<svg width="677" height="677" viewBox="0 0 677 677" fill="none" xmlns="http://www.w3.org/2000/svg">
<mask id="mask0_1_290" style="mask-type:luminance" maskUnits="userSpaceOnUse" x="165" y="150" width="348" height="200">
<path d="M203.003 318.937C203.003 318.937 454.285 350.013 464.258 349.88C481.262 349.656 497.877 346.123 506.702 330.509C519.669 307.544 510.002 288.482 495.327 279.177C476.022 266.932 456.984 281.404 456.984 281.404C456.984 281.404 496.348 244.781 467.99 209.245C440.837 175.226 395.77 187.233 378.883 209.632C376.136 173.02 354.795 143.018 311.755 151.821C264.455 161.494 272.252 213.784 272.252 213.784C272.252 213.784 250.098 183.135 226.112 196.513C189.165 217.111 217.666 249.32 217.666 249.32C217.666 249.32 186.488 232.246 170.042 261.843C153.406 291.776 184.106 316.759 203.003 318.937Z" fill="white"/>
</mask>
<g mask="url(#mask0_1_290)">
<path d="M203.003 318.937C203.003 318.937 454.285 350.013 464.258 349.88C481.262 349.656 497.877 346.123 506.702 330.509C519.669 307.544 510.002 288.482 495.327 279.177C476.022 266.932 456.984 281.404 456.984 281.404C456.984 281.404 496.348 244.781 467.99 209.245C440.837 175.226 395.77 187.233 378.883 209.632C376.136 173.02 354.795 143.018 311.755 151.821C264.455 161.494 272.252 213.784 272.252 213.784C272.252 213.784 250.098 183.135 226.112 196.513C189.165 217.111 217.666 249.32 217.666 249.32C217.666 249.32 186.488 232.246 170.042 261.843C153.406 291.776 184.106 316.759 203.003 318.937Z" fill="url(#paint0_linear_1_290)"/>
</g>
<path d="M203.003 321.204C216.952 322.933 230.902 324.646 244.854 326.356C275.362 330.101 305.875 333.824 336.391 337.511C366.448 341.143 396.508 344.761 426.585 348.217C444.751 350.303 463.995 354.368 482.151 350.263C493.012 347.806 502.637 341.881 508.367 332.15C514.423 321.854 517.119 309.222 513.105 297.693C509.66 287.802 501.821 279.265 492.263 274.961C482.29 270.468 471.196 271.501 461.49 276.146C459.537 277.082 457.579 278.14 455.838 279.446C456.754 280.633 457.673 281.818 458.585 283.006C472.922 269.597 483.565 248.277 479.679 228.438C476.687 213.171 465.077 199.662 451.577 192.388C439.338 185.797 425.026 184.295 411.521 187.26C398.07 190.216 385.365 197.505 376.928 208.49C378.336 208.873 379.741 209.254 381.15 209.632C379.938 194.395 375.774 178.931 366.17 166.756C356.898 154.994 343.139 148.539 328.249 148.04C312.768 147.521 295.966 151.975 284.802 163.181C276.613 171.404 272.083 182.518 270.39 193.869C269.387 200.599 269.073 207.622 270.064 214.385C271.445 213.799 272.829 213.219 274.21 212.639C265.247 200.321 249.747 188.423 233.706 191.34C222.857 193.31 211.67 202.21 207.249 212.309C203.81 220.173 204.499 228.961 207.623 236.806C209.636 241.865 212.453 246.815 216.061 250.925C216.977 249.737 217.892 248.549 218.811 247.365C207.297 241.112 191.673 239.822 180.38 247.081C170.534 253.415 163.88 265.355 163.076 276.96C162.324 287.796 167.225 298.083 174.539 305.834C181.97 313.712 192.163 319.811 203.003 321.204C205.889 321.576 205.862 317.04 203.003 316.671C185.859 314.468 168.195 297.98 167.558 280.296C167.171 269.452 172.985 257.657 181.955 251.471C188.425 247.008 196.394 245.896 204.039 247.204C208.297 247.933 212.703 249.205 216.52 251.278C218.829 252.532 220.956 249.64 219.267 247.718C212.637 240.172 207.705 228.535 209.99 218.399C212.265 208.296 221.766 199.937 231.295 196.649C240.599 193.434 250.076 197.039 257.683 202.551C262.279 205.885 267.275 210.774 270.297 214.923C271.85 217.063 274.815 215.742 274.437 213.177C274.573 214.098 274.404 212.923 274.364 212.506C274.271 211.442 274.183 210.384 274.129 209.321C273.962 205.939 274.023 202.542 274.304 199.167C275.123 189.261 278.024 179.306 283.902 171.189C292.318 159.56 306.119 154.151 320.042 152.839C334.43 151.48 348.76 155.13 359.119 165.589C370.57 177.151 375.357 193.794 376.617 209.632C376.807 211.998 379.475 212.557 380.841 210.777C395.338 191.905 424.234 185.042 445.82 194.597C459.078 200.466 470.743 212.584 474.62 226.718C477.956 238.867 474.75 251.502 468.736 262.26C465.185 268.612 460.719 274.807 455.382 279.8C453.545 281.52 456.038 284.928 458.126 283.36C463.662 279.207 471.003 276.702 477.881 276.532C489.966 276.239 501.147 284.058 506.777 294.493C512.891 305.825 510.784 319.097 504.45 329.865C498.343 340.249 487.539 345.153 475.986 346.797C468.38 347.882 461.477 347.502 453.974 346.725C444.651 345.757 435.337 344.691 426.026 343.618C397.281 340.315 368.554 336.861 339.827 333.394C310.142 329.81 280.46 326.19 250.784 322.552C240.219 321.255 229.657 319.956 219.098 318.66C214.048 318.038 208.799 316.913 203.704 316.759L203.003 316.671C200.117 316.314 200.144 320.851 203.003 321.204Z" fill="#040606"/>
<mask id="mask1_1_290" style="mask-type:luminance" maskUnits="userSpaceOnUse" x="214" y="338" width="64" height="112">
<path d="M277.021 421.87C275.083 439.083 259.559 451.465 242.349 449.524C225.133 447.59 212.755 432.063 214.692 414.853C216.629 397.639 254.809 338.889 254.809 338.889C254.809 338.889 278.961 404.659 277.021 421.87Z" fill="white"/>
</mask>
<g mask="url(#mask1_1_290)">
<path d="M277.021 421.87C275.083 439.083 259.559 451.465 242.349 449.524C225.133 447.59 212.755 432.063 214.692 414.853C216.629 397.639 254.809 338.889 254.809 338.889C254.809 338.889 278.961 404.659 277.021 421.87Z" fill="url(#paint1_linear_1_290)"/>
</g>
<path d="M274.754 421.87C272.651 438.141 257.136 449.89 240.865 447.037C225.958 444.42 214.58 429.73 217.016 414.494C218.472 405.382 223.791 396.437 228.037 388.41C233.628 377.846 239.696 367.529 245.924 357.326C249.469 351.52 253.059 345.74 256.764 340.035C255.383 339.853 254.002 339.674 252.621 339.494C260.397 360.683 267.822 382.364 272.678 404.424C273.911 410.042 275.334 416.08 274.754 421.87C274.467 424.771 279 424.75 279.287 421.87C279.777 416.966 278.776 411.846 277.846 407.05C276.48 400.033 274.642 393.11 272.69 386.24C268.903 372.935 264.57 359.777 259.998 346.722C259.012 343.903 258.021 341.089 256.991 338.287C256.32 336.447 253.954 336.042 252.848 337.747C241.775 354.8 231.122 372.297 221.893 390.417C217.115 399.791 211.392 410.205 212.341 421.075C213.731 437.053 226.378 450.065 242.349 451.791C260.889 453.797 276.942 440.002 279.287 421.87C279.662 418.986 275.123 419.014 274.754 421.87Z" fill="#040606"/>
<mask id="mask2_1_290" style="mask-type:luminance" maskUnits="userSpaceOnUse" x="370" y="356" width="64" height="112">
<path d="M433.439 439.485C431.499 456.699 415.978 469.08 398.762 467.139C381.552 465.205 369.17 449.679 371.108 432.468C373.048 415.255 411.222 356.504 411.222 356.504C411.222 356.504 435.379 422.275 433.439 439.485Z" fill="white"/>
</mask>
<g mask="url(#mask2_1_290)">
<path d="M433.439 439.485C431.499 456.699 415.978 469.08 398.762 467.139C381.552 465.205 369.17 449.679 371.108 432.468C373.048 415.255 411.222 356.504 411.222 356.504C411.222 356.504 435.379 422.275 433.439 439.485Z" fill="url(#paint2_linear_1_290)"/>
</g>
<path d="M431.173 439.485C429.069 455.756 413.555 467.509 397.284 464.652C382.377 462.036 370.996 447.345 373.434 432.109C374.891 422.997 380.21 414.052 384.456 406.025C390.046 395.461 396.112 385.144 402.343 374.941C405.888 369.136 409.475 363.355 413.183 357.65C411.802 357.468 410.421 357.289 409.04 357.109C416.815 378.299 424.24 399.979 429.094 422.043C430.33 427.657 431.75 433.695 431.173 439.485C430.883 442.386 435.419 442.365 435.706 439.485C436.195 434.581 435.195 429.461 434.258 424.666C432.895 417.648 431.061 410.725 429.106 403.855C425.319 390.55 420.989 377.392 416.416 364.337C415.431 361.518 414.437 358.704 413.409 355.902C412.733 354.062 410.372 353.657 409.266 355.362C398.194 372.415 387.541 389.913 378.309 408.032C373.534 417.406 367.81 427.82 368.756 438.69C370.149 454.668 382.797 467.681 398.762 469.406C417.308 471.412 433.361 457.617 435.706 439.485C436.077 436.603 431.541 436.63 431.173 439.485Z" fill="#040606"/>
<mask id="mask3_1_290" style="mask-type:luminance" maskUnits="userSpaceOnUse" x="284" y="416" width="64" height="112">
<path d="M347.499 499.351C345.559 516.562 330.032 528.946 312.822 527.005C295.612 525.065 283.228 509.544 285.168 492.328C287.105 475.118 325.282 416.369 325.282 416.369C325.282 416.369 349.434 482.138 347.499 499.351Z" fill="white"/>
</mask>
<g mask="url(#mask3_1_290)">
<path d="M347.499 499.351C345.559 516.562 330.032 528.946 312.822 527.005C295.612 525.065 283.228 509.544 285.168 492.328C287.105 475.118 325.282 416.369 325.282 416.369C325.282 416.369 349.434 482.138 347.499 499.351Z" fill="url(#paint3_linear_1_290)"/>
</g>
<path d="M345.233 499.35C343.124 515.615 327.609 527.371 311.341 524.516C296.434 521.901 285.053 507.208 287.492 491.968C288.948 482.863 294.264 473.917 298.513 465.888C304.104 455.32 310.172 445.003 316.397 434.801C319.942 428.996 323.535 423.215 327.237 417.516C325.856 417.33 324.475 417.15 323.094 416.971C330.872 438.164 338.297 459.841 343.151 481.906C344.387 487.523 345.807 493.56 345.233 499.35C344.94 502.252 349.476 502.231 349.766 499.35C350.255 494.443 349.252 489.323 348.318 484.528C346.952 477.514 345.115 470.591 343.163 463.718C339.376 450.409 335.043 437.258 330.476 424.197C329.488 421.383 328.494 418.566 327.47 415.765C326.793 413.928 324.432 413.52 323.323 415.224C312.248 432.275 301.598 449.772 292.366 467.894C287.591 477.272 281.868 487.683 282.813 498.556C284.204 514.53 296.854 527.546 312.822 529.272C331.368 531.275 347.418 517.482 349.766 499.35C350.138 496.465 345.602 496.493 345.233 499.35Z" fill="#040606"/>
<path d="M490.038 287.07C482.359 282.543 473.556 282.985 465.808 287.113C463.115 288.549 460.915 290.652 457.685 290.848C452.227 291.181 447.322 286.82 447.201 281.301C447.081 275.886 451.873 272.547 455.007 268.733C459.187 263.65 462.744 258.069 465.213 251.949C468.165 244.63 469.256 236.555 467.352 228.819C465.043 219.454 458.431 211.373 450.758 205.767C435.999 194.981 415.969 195.347 400.24 203.914C395.963 206.241 391.929 209.245 388.677 212.89C384.93 217.087 380.739 221.079 374.685 218.139C369.098 215.425 369.249 209.798 368.527 204.455C367.814 199.17 366.671 193.939 364.867 188.913C361.981 180.899 357.49 173.241 350.785 167.838C343.529 161.996 334.411 159.554 325.185 159.751C309.435 160.083 293.771 166.393 286.519 181.11C282.215 189.838 280.889 200.04 281.768 209.674C281.961 211.781 282.33 213.793 281.771 215.906C280.179 221.874 273.146 225.065 267.649 222.074C265.525 220.919 264.277 219.049 262.781 217.263C260.977 215.108 259.012 213.077 256.912 211.216C251.868 206.749 245.45 202.518 238.439 202.684C230.539 202.872 221.712 209.538 218.472 216.592C214.9 224.373 218.666 233.557 223.265 240.082C226.103 244.104 228.907 247.736 226.635 252.898C224.175 258.492 217.937 259.9 212.74 257.452C205.656 254.116 197.654 252.188 190.135 255.325C181.501 258.93 175.49 268.881 175.152 278.068C174.801 287.654 181.099 296.109 188.416 301.652C194.765 306.46 201.238 308.43 208.992 309.388C227.81 311.715 246.628 314.026 265.443 316.329C303.937 321.044 342.435 325.725 380.944 330.312C406.184 333.319 431.424 336.451 456.712 339.025C466.458 340.019 476.603 340.013 485.798 336.133C499.76 330.237 507.427 311.444 500.186 297.76C497.862 293.368 494.19 289.74 490.038 287.07C487.575 285.484 485.3 289.406 487.751 290.981C492.042 293.744 495.72 297.781 497.406 302.655C500.162 310.619 497.197 320.551 491.667 326.692C484.179 335.012 470.649 335.816 460.178 334.833C438.48 332.803 416.839 330.031 395.205 327.474C359.585 323.257 323.973 318.941 288.371 314.601C269.653 312.316 250.932 310.022 232.216 307.72C223.48 306.644 214.746 305.572 206.01 304.486C198.334 303.534 191.25 299.126 186.101 293.457C182.314 289.283 179.404 283.837 179.685 278.068C179.966 272.305 182.988 266.298 187.267 262.441C194.317 256.089 203.435 258.12 211.241 261.762C218.602 265.192 227.499 262.272 230.823 254.66C232.443 250.946 232.374 246.709 230.733 243.022C229.27 239.743 226.517 237.126 224.8 233.95C222.528 229.753 220.521 224.352 222.129 219.59C223.752 214.785 228.357 211.412 232.582 209.009C239.678 204.978 247.19 208.889 252.826 213.66C256.211 216.519 259.13 220.242 261.575 222.968C267.25 229.305 277.61 229.251 283.143 222.757C287.054 218.166 286.552 213.413 286.21 208.559C285.926 204.495 286.026 200.367 286.606 196.332C288.462 183.407 295.554 172.105 308.153 167.375C317.397 163.909 328.588 162.978 338.059 166.013C346.587 168.741 353.024 175.121 357.243 182.854C359.615 187.203 361.28 191.881 362.474 196.677C363.722 201.699 363.882 206.788 364.807 211.838C366.309 220.025 374.8 225.371 382.836 223.083C387.16 221.847 389.345 218.837 392.243 215.688C395.589 212.056 399.69 209.209 404.099 207.012C412.512 202.82 422.424 200.989 431.744 202.57C449.806 205.625 466.491 222.69 463.405 241.825C461.616 252.922 454.944 262.574 447.283 270.489C441.976 275.97 440.946 284.414 446.168 290.428C451.311 296.355 459.389 296.563 465.66 292.498C472.471 288.083 480.468 286.693 487.751 290.981C490.268 292.467 492.553 288.552 490.038 287.07Z" fill="#040606"/>
<path d="M243.742 437.146C254.301 438.333 263.857 430.712 265.044 420.154C265.794 413.502 259.571 390.338 251.711 366.377C238.72 387.993 227.499 409.192 226.749 415.838C225.562 426.396 233.183 435.956 243.742 437.146Z" fill="white"/>
<path d="M243.742 439.412C257.121 440.573 268.668 429.298 267.166 415.844C266.395 408.897 264.588 402.042 262.787 395.31C260.131 385.376 257.09 375.545 253.896 365.772C253.298 363.938 250.787 363.509 249.756 365.232C244.567 373.883 239.511 382.62 234.791 391.535C231.443 397.854 228.028 404.297 225.665 411.069C221.207 423.814 229.802 437.484 243.138 439.331C245.994 439.724 247.227 435.36 244.344 434.958C237.466 434.009 231.657 429.627 229.605 422.853C228.082 417.824 229.424 413.475 231.373 408.842C237.42 394.467 245.664 380.868 253.67 367.523C252.288 367.338 250.907 367.157 249.526 366.979C254.356 381.759 259.281 396.796 262.056 412.127C262.959 417.117 263.313 421.662 260.744 426.286C257.32 432.45 250.617 435.478 243.742 434.879C240.838 434.625 240.85 439.162 243.742 439.412Z" fill="#040606"/>
<path d="M400.158 454.762C410.717 455.949 420.275 448.327 421.463 437.769C422.212 431.117 415.987 407.954 408.13 383.993C395.135 405.608 383.915 426.808 383.168 433.453C381.98 444.012 389.599 453.571 400.158 454.762Z" fill="white"/>
<path d="M400.158 457.028C413.539 458.191 425.083 446.913 423.584 433.459C422.808 426.512 421.007 419.661 419.206 412.925C416.549 402.991 413.506 393.161 410.315 383.391C409.713 381.554 407.202 381.128 406.172 382.847C400.986 391.496 395.93 400.236 391.207 409.151C387.861 415.469 384.446 421.915 382.083 428.684C377.629 441.428 386.22 455.099 399.557 456.946C402.406 457.339 403.645 452.976 400.762 452.573C393.884 451.624 388.07 447.242 386.024 440.468C384.501 435.439 385.843 431.09 387.792 426.46C393.836 412.082 402.083 398.483 410.085 385.138C408.704 384.954 407.323 384.775 405.942 384.594C410.774 399.374 415.7 414.411 418.474 429.742C419.378 434.732 419.728 439.277 417.16 443.9C413.733 450.065 407.036 453.094 400.158 452.495C397.251 452.242 397.269 456.777 400.158 457.028Z" fill="#040606"/>
<path d="M314.218 514.621C324.774 515.812 334.333 508.187 335.52 497.632C336.27 490.98 330.045 467.819 322.187 443.852C309.196 465.471 297.975 486.667 297.226 493.319C296.035 503.878 303.66 513.434 314.218 514.621Z" fill="white"/>
<path d="M314.218 516.887C327.597 518.054 339.141 506.776 337.642 493.322C336.868 486.375 335.061 479.523 333.263 472.788C330.61 462.852 327.566 453.024 324.372 443.251C323.774 441.417 321.262 440.987 320.229 442.707C315.04 451.362 309.984 460.095 305.264 469.014C301.919 475.329 298.507 481.778 296.138 488.544C291.686 501.288 300.281 514.962 313.614 516.81C316.467 517.205 317.7 512.839 314.82 512.44C307.945 511.484 302.13 507.105 300.078 500.333C298.555 495.305 299.9 490.95 301.846 486.321C307.893 471.941 316.14 458.342 324.142 444.997C322.761 444.819 321.383 444.635 320.002 444.457C324.834 459.233 329.757 474.275 332.532 489.605C333.435 494.595 333.786 499.139 331.22 503.767C327.793 509.928 321.09 512.957 314.218 512.354C311.311 512.104 311.329 516.637 314.218 516.887Z" fill="#040606"/>
<defs>
<linearGradient id="paint0_linear_1_290" x1="445.899" y1="64.6334" x2="310.219" y2="356.883" gradientUnits="userSpaceOnUse">
<stop stop-color="#C9E9A4"/>
<stop offset="0.293296" stop-color="#E57FC5"/>
<stop offset="0.46648" stop-color="#F57F9D"/>
<stop offset="0.667598" stop-color="#7A6BBC"/>
<stop offset="0.860335" stop-color="#86D7DF"/>
<stop offset="0.963687" stop-color="#9FDCA8"/>
<stop offset="1" stop-color="#9FDCA8"/>
</linearGradient>
<linearGradient id="paint1_linear_1_290" x1="310.692" y1="243.575" x2="232.963" y2="453.492" gradientUnits="userSpaceOnUse">
<stop stop-color="#C9E9A4"/>
<stop offset="0.293296" stop-color="#E57FC5"/>
<stop offset="0.46648" stop-color="#F57F9D"/>
<stop offset="0.667598" stop-color="#7A6BBC"/>
<stop offset="0.860335" stop-color="#86D7DF"/>
<stop offset="0.963687" stop-color="#9FDCA8"/>
<stop offset="1" stop-color="#9FDCA8"/>
</linearGradient>
<linearGradient id="paint2_linear_1_290" x1="467.107" y1="261.19" x2="389.378" y2="471.107" gradientUnits="userSpaceOnUse">
<stop stop-color="#C9E9A4"/>
<stop offset="0.293296" stop-color="#E57FC5"/>
<stop offset="0.46648" stop-color="#F57F9D"/>
<stop offset="0.667598" stop-color="#7A6BBC"/>
<stop offset="0.860335" stop-color="#86D7DF"/>
<stop offset="0.963687" stop-color="#9FDCA8"/>
<stop offset="1" stop-color="#9FDCA8"/>
</linearGradient>
<linearGradient id="paint3_linear_1_290" x1="381.165" y1="321.053" x2="303.436" y2="530.97" gradientUnits="userSpaceOnUse">
<stop stop-color="#C9E9A4"/>
<stop offset="0.293296" stop-color="#E57FC5"/>
<stop offset="0.46648" stop-color="#F57F9D"/>
<stop offset="0.667598" stop-color="#7A6BBC"/>
<stop offset="0.860335" stop-color="#86D7DF"/>
<stop offset="0.963687" stop-color="#9FDCA8"/>
<stop offset="1" stop-color="#9FDCA8"/>
</linearGradient>
</defs>
</svg>
