<svg width="677" height="677" viewBox="0 0 677 677" fill="none" xmlns="http://www.w3.org/2000/svg">
<g clip-path="url(#clip0_43_45)">
<mask id="mask0_43_45" style="mask-type:alpha" maskUnits="userSpaceOnUse" x="0" y="0" width="677" height="677">
<rect width="677" height="677" fill="#D9D9D9"/>
</mask>
<g mask="url(#mask0_43_45)">
<path d="M28.208 592.375V535.958H648.791V592.375H28.208ZM112.833 507.75C97.3184 507.75 84.037 502.226 72.9887 491.178C61.9405 480.129 56.4163 466.848 56.4163 451.333V141.042C56.4163 125.527 61.9405 112.246 72.9887 101.197C84.037 90.1491 97.3184 84.625 112.833 84.625H564.166C579.681 84.625 592.962 90.1491 604.011 101.197C615.059 112.246 620.583 125.527 620.583 141.042V451.333C620.583 466.848 615.059 480.129 604.011 491.178C592.962 502.226 579.681 507.75 564.166 507.75H112.833ZM112.833 451.333H564.166V141.042H112.833V451.333Z" fill="black"/>
</g>
</g>
<defs>
<clipPath id="clip0_43_45">
<rect width="677" height="677" fill="white"/>
</clipPath>
</defs>
</svg>
