<svg width="677" height="677" viewBox="0 0 677 677" fill="none" xmlns="http://www.w3.org/2000/svg">
<g clip-path="url(#clip0_7_12)">
<mask id="mask0_7_12" style="mask-type:alpha" maskUnits="userSpaceOnUse" x="0" y="0" width="677" height="677">
<rect width="677" height="677" fill="#D9D9D9"/>
</mask>
<g mask="url(#mask0_7_12)">
<path d="M592.375 197.458V535.958C592.375 551.473 586.851 564.754 575.803 575.803C564.754 586.851 551.473 592.375 535.958 592.375H141.042C125.527 592.375 112.246 586.851 101.197 575.803C90.1491 564.754 84.625 551.473 84.625 535.958V141.042C84.625 125.527 90.1491 112.246 101.197 101.197C112.246 90.1491 125.527 84.625 141.042 84.625H479.542L592.375 197.458ZM535.958 221.435L455.565 141.042H141.042V535.958H535.958V221.435ZM338.5 507.75C362.007 507.75 381.988 499.523 398.443 483.068C414.898 466.613 423.125 446.632 423.125 423.125C423.125 399.618 414.898 379.637 398.443 363.182C381.988 346.727 362.007 338.5 338.5 338.5C314.993 338.5 295.012 346.727 278.557 363.182C262.102 379.637 253.875 399.618 253.875 423.125C253.875 446.632 262.102 466.613 278.557 483.068C295.012 499.523 314.993 507.75 338.5 507.75ZM169.25 282.083H423.125V169.25H169.25V282.083Z" fill="black"/>
</g>
</g>
<defs>
<clipPath id="clip0_7_12">
<rect width="677" height="677" fill="white"/>
</clipPath>
</defs>
</svg>
