<svg width="677" height="677" viewBox="0 0 677 677" fill="none" xmlns="http://www.w3.org/2000/svg">
<g clip-path="url(#clip0_24_2)">
<mask id="mask0_24_2" style="mask-type:alpha" maskUnits="userSpaceOnUse" x="0" y="0" width="677" height="677">
<rect width="677" height="677" fill="#D9D9D9"/>
</mask>
<g mask="url(#mask0_24_2)">
<path d="M141.042 592.375C125.527 592.375 112.246 586.851 101.197 575.803C90.1491 564.754 84.625 551.473 84.625 535.958V141.042C84.625 125.527 90.1491 112.246 101.197 101.197C112.246 90.1491 125.527 84.625 141.042 84.625H392.801L336.384 141.042H141.042V535.958H535.958V339.91L592.375 283.494V535.958C592.375 551.473 586.851 564.754 575.803 575.803C564.754 586.851 551.473 592.375 535.958 592.375H141.042ZM253.875 423.125V303.24L512.686 44.4281C518.328 38.7864 524.675 34.5552 531.727 31.7344C538.779 28.9135 545.831 27.5031 552.883 27.5031C560.406 27.5031 567.575 28.9135 574.392 31.7344C581.209 34.5552 587.439 38.7864 593.08 44.4281L632.572 84.625C637.743 90.2667 641.74 96.496 644.56 103.313C647.381 110.13 648.792 117.065 648.792 124.117C648.792 131.169 647.499 138.103 644.913 144.92C642.327 151.737 638.214 157.967 632.572 163.608L373.76 423.125H253.875ZM310.292 366.708H349.783L513.392 203.1L493.646 183.354L473.195 163.608L310.292 326.511V366.708Z" fill="black"/>
</g>
</g>
<defs>
<clipPath id="clip0_24_2">
<rect width="677" height="677" fill="white"/>
</clipPath>
</defs>
</svg>
