<svg width="677" height="677" viewBox="0 0 677 677" fill="none" xmlns="http://www.w3.org/2000/svg">
<mask id="mask0_1_293" style="mask-type:luminance" maskUnits="userSpaceOnUse" x="171" y="170" width="336" height="336">
<path d="M506.703 337.974C506.703 430.604 431.61 505.695 338.982 505.695C246.355 505.695 171.261 430.604 171.261 337.974C171.261 245.344 246.355 170.253 338.982 170.253C431.61 170.253 506.703 245.344 506.703 337.974Z" fill="white"/>
</mask>
<g mask="url(#mask0_1_293)">
<path d="M506.703 337.974C506.703 430.604 431.61 505.695 338.982 505.695C246.355 505.695 171.261 430.604 171.261 337.974C171.261 245.344 246.355 170.253 338.982 170.253C431.61 170.253 506.703 245.344 506.703 337.974Z" fill="url(#paint0_linear_1_293)"/>
</g>
<path d="M504.437 337.974C504.331 372.313 493.7 405.957 473.776 433.959C454.362 461.247 426.542 482.398 395.013 493.707C362.563 505.347 326.692 506.556 293.532 497.109C261.293 487.923 232.342 468.778 211.046 442.916C166.885 389.284 161.491 311.19 197.643 251.91C214.845 223.712 240.453 201.032 270.492 187.303C302.184 172.822 338.454 168.863 372.557 175.925C439.352 189.751 491.98 245.111 502.5 312.492C503.817 320.921 504.41 329.446 504.437 337.974C504.446 340.89 508.979 340.896 508.97 337.974C508.861 302.728 497.946 267.99 477.402 239.3C457.563 211.591 429.615 190.186 397.636 178.385C364.104 166.016 326.695 164.677 292.329 174.469C259.392 183.852 229.607 203.395 207.84 229.829C185.803 256.592 172.34 289.707 169.548 324.269C166.686 359.63 175.09 395.555 193.476 425.902C211.224 455.197 237.863 478.917 269.114 492.972C301.455 507.517 337.991 511.576 372.759 504.601C406.485 497.835 437.79 480.51 461.597 455.705C485.607 430.698 501.705 398.441 506.951 364.151C508.278 355.48 508.943 346.744 508.97 337.974C508.979 335.058 504.446 335.052 504.437 337.974Z" fill="#040606"/>
<path d="M485.063 337.974C485.063 418.652 419.658 484.054 338.982 484.054C258.307 484.054 192.902 418.652 192.902 337.974C192.902 257.296 258.307 191.894 338.982 191.894C419.658 191.894 485.063 257.296 485.063 337.974Z" fill="white"/>
<path d="M482.796 337.974C482.582 397.831 444.465 452.84 387.987 473.23C331.418 493.649 266.748 475.971 228.296 429.816C189.52 383.271 184.561 315.146 215.993 263.397C247.126 212.135 308.608 185.094 367.444 196.971C425.735 208.741 471.817 256.858 481.08 315.596C482.246 323 482.769 330.483 482.796 337.974C482.805 340.89 487.338 340.896 487.329 337.974C487.109 276.349 448.043 220.053 390.139 198.693C331.678 177.128 263.985 195.596 224.461 243.691C184.939 291.786 179.714 361.546 212.08 414.839C244.312 467.914 307.795 495.632 368.646 483.347C428.678 471.229 476.495 421.127 485.61 360.536C486.734 353.06 487.302 345.535 487.329 337.974C487.338 335.058 482.805 335.052 482.796 337.974Z" fill="#040606"/>
<mask id="mask1_1_293" style="mask-type:luminance" maskUnits="userSpaceOnUse" x="261" y="227" width="192" height="192">
<path d="M452.6 323.299C452.6 376.151 409.755 418.994 356.906 418.994C304.051 418.994 261.208 376.151 261.208 323.299C261.208 270.447 304.051 227.601 356.906 227.601C409.755 227.601 452.6 270.447 452.6 323.299Z" fill="white"/>
</mask>
<g mask="url(#mask1_1_293)">
<path d="M452.6 323.299C452.6 376.151 409.755 418.994 356.906 418.994C304.051 418.994 261.208 376.151 261.208 323.299C261.208 270.447 304.051 227.601 356.906 227.601C409.755 227.601 452.6 270.447 452.6 323.299Z" fill="url(#paint1_linear_1_293)"/>
</g>
<path d="M450.334 323.299C450.122 362.035 425.674 397.689 389.117 411.034C352.355 424.452 310.31 413.128 285.176 383.183C259.848 353.012 256.551 308.682 276.908 275.008C297.104 241.597 337.163 223.927 375.461 231.708C413.172 239.372 442.897 270.327 449.143 308.277C449.965 313.242 450.307 318.268 450.334 323.299C450.349 326.215 454.882 326.222 454.867 323.299C454.643 282.611 429.02 245.549 390.795 231.367C352.237 217.061 307.433 229.227 281.341 260.968C255.264 292.689 251.701 338.66 272.994 373.878C294.193 408.946 335.988 427.301 376.165 419.363C415.826 411.524 447.557 378.484 453.676 338.506C454.45 333.468 454.84 328.394 454.867 323.299C454.882 320.38 450.349 320.377 450.334 323.299Z" fill="#040606"/>
<path d="M412.834 313.898C412.834 338.998 392.487 359.346 367.386 359.346C342.288 359.346 321.938 338.998 321.938 313.898C321.938 288.797 342.288 268.45 367.386 268.45C392.487 268.45 412.834 288.797 412.834 313.898Z" fill="#040606"/>
<path d="M410.567 313.898C410.362 331.773 399.295 348.194 382.378 354.411C365.313 360.681 345.875 355.42 334.198 341.534C322.564 327.696 321.041 307.316 330.27 291.819C339.466 276.38 357.894 268.027 375.567 271.487C395.814 275.452 410.332 293.384 410.567 313.898C410.601 316.814 415.134 316.82 415.1 313.898C414.874 294.089 402.656 276.216 384.055 269.187C365.358 262.119 343.364 268.003 330.675 283.436C318.013 298.836 316.112 321.063 326.353 338.264C336.55 355.381 356.718 364.377 376.271 360.778C398.715 356.647 414.843 336.475 415.1 313.898C415.134 310.979 410.601 310.979 410.567 313.898Z" fill="#040606"/>
<path d="M306.52 283.206C306.52 270.858 316.532 260.847 328.88 260.847C341.231 260.847 351.243 270.858 351.243 283.206C351.243 295.557 341.231 305.569 328.88 305.569C316.532 305.569 306.52 295.557 306.52 283.206Z" fill="white"/>
<path d="M308.787 283.206C308.902 274.847 314.066 267.163 322.023 264.31C330.007 261.445 339.076 263.95 344.461 270.502C349.771 276.963 350.409 286.358 346.132 293.517C341.881 300.631 333.371 304.536 325.199 302.973C315.698 301.154 308.92 292.816 308.787 283.206C308.747 280.293 304.214 280.284 304.254 283.206C304.396 293.448 310.663 302.61 320.261 306.27C329.92 309.951 341.315 306.881 347.852 298.89C354.358 290.937 355.347 279.48 350.046 270.611C344.758 261.759 334.389 257.199 324.292 259.018C312.694 261.103 304.414 271.59 304.254 283.206C304.214 286.126 308.747 286.126 308.787 283.206Z" fill="#040606"/>
<path d="M392.547 339.355C392.547 332.017 398.492 326.07 405.829 326.07C413.163 326.07 419.114 332.017 419.114 339.355C419.114 346.689 413.163 352.637 405.829 352.637C398.492 352.637 392.547 346.689 392.547 339.355Z" fill="white"/>
<path d="M394.814 339.355C394.874 334.81 397.664 330.579 402 329.017C406.433 327.415 411.459 328.784 414.436 332.459C417.304 336.004 417.612 341.12 415.282 345.015C412.967 348.886 408.34 351.032 403.886 350.207C398.637 349.237 394.883 344.655 394.814 339.355C394.772 336.439 390.239 336.433 390.281 339.355C390.368 345.867 394.37 351.627 400.465 353.942C406.482 356.23 413.671 354.299 417.748 349.321C421.882 344.281 422.568 337.049 419.195 331.407C415.829 325.771 409.268 322.945 402.858 324.097C395.569 325.408 390.378 332.075 390.281 339.355C390.239 342.271 394.772 342.274 394.814 339.355Z" fill="#040606"/>
<defs>
<linearGradient id="paint0_linear_1_293" x1="171.261" y1="337.974" x2="506.703" y2="337.974" gradientUnits="userSpaceOnUse">
<stop stop-color="#C9E9A4"/>
<stop offset="0.293296" stop-color="#E57FC5"/>
<stop offset="0.46648" stop-color="#F57F9D"/>
<stop offset="0.667598" stop-color="#7A6BBC"/>
<stop offset="0.860335" stop-color="#86D7DF"/>
<stop offset="0.963687" stop-color="#9FDCA8"/>
<stop offset="1" stop-color="#9FDCA8"/>
</linearGradient>
<linearGradient id="paint1_linear_1_293" x1="432.749" y1="204.616" x2="287.269" y2="432.265" gradientUnits="userSpaceOnUse">
<stop stop-color="#C9E9A4"/>
<stop offset="0.293296" stop-color="#E57FC5"/>
<stop offset="0.46648" stop-color="#F57F9D"/>
<stop offset="0.667598" stop-color="#7A6BBC"/>
<stop offset="0.860335" stop-color="#86D7DF"/>
<stop offset="0.963687" stop-color="#9FDCA8"/>
<stop offset="1" stop-color="#9FDCA8"/>
</linearGradient>
</defs>
</svg>
