<svg width="677" height="677" viewBox="0 0 677 677" fill="none" xmlns="http://www.w3.org/2000/svg">
<g clip-path="url(#clip0_27_31)">
<mask id="mask0_27_31" style="mask-type:alpha" maskUnits="userSpaceOnUse" x="0" y="0" width="677" height="677">
<rect width="677" height="677" fill="#D9D9D9"/>
</mask>
<g mask="url(#mask0_27_31)">
<path d="M28.208 592.375L338.5 56.4167L648.791 592.375H28.208ZM125.527 535.958H551.473L338.5 169.25L125.527 535.958ZM338.5 507.75C346.492 507.75 353.192 505.047 358.598 499.64C364.005 494.234 366.708 487.534 366.708 479.542C366.708 471.549 364.005 464.85 358.598 459.443C353.192 454.037 346.492 451.333 338.5 451.333C330.507 451.333 323.808 454.037 318.401 459.443C312.995 464.85 310.291 471.549 310.291 479.542C310.291 487.534 312.995 494.234 318.401 499.64C323.808 505.047 330.507 507.75 338.5 507.75ZM310.291 423.125H366.708V282.083H310.291V423.125Z" fill="black"/>
</g>
</g>
<defs>
<clipPath id="clip0_27_31">
<rect width="677" height="677" fill="white"/>
</clipPath>
</defs>
</svg>
