<svg width="677" height="677" viewBox="0 0 677 677" fill="none" xmlns="http://www.w3.org/2000/svg">
<mask id="mask0_1_296" style="mask-type:luminance" maskUnits="userSpaceOnUse" x="221" y="148" width="236" height="382">
<path d="M243.374 271.888C233.753 266.01 221.208 267.425 221.208 267.425C221.208 267.425 245.685 297.621 231.348 354.969C220.909 396.727 204.633 503.102 309.069 526.41C406.498 548.153 493.299 451.945 440.837 354.243C403.478 284.671 356.421 291.096 338.118 217.949C330.221 186.393 337.304 148.297 337.304 148.297C337.304 148.297 271.439 189.288 262.574 254.599C259.8 275.037 266.782 298.636 266.782 298.636C266.782 298.636 262.761 283.731 243.374 271.888Z" fill="white"/>
</mask>
<g mask="url(#mask0_1_296)">
<path d="M243.374 271.888C233.753 266.01 221.208 267.425 221.208 267.425C221.208 267.425 245.685 297.621 231.348 354.969C220.909 396.727 204.633 503.102 309.069 526.41C406.498 548.153 493.299 451.945 440.837 354.243C403.478 284.671 356.421 291.096 338.118 217.949C330.221 186.393 337.304 148.297 337.304 148.297C337.304 148.297 271.439 189.288 262.574 254.599C259.8 275.037 266.782 298.636 266.782 298.636C266.782 298.636 262.761 283.731 243.374 271.888Z" fill="url(#paint0_linear_1_296)"/>
</g>
<path d="M244.519 269.93C237.658 265.965 229.102 264.324 221.208 265.158C219.172 265.376 218.328 267.443 219.605 269.026C219.269 268.612 219.654 269.084 219.986 269.561C220.585 270.438 221.165 271.32 221.718 272.227C223.601 275.333 225.216 278.618 226.585 281.985C231.513 294.106 233.593 307.267 233.585 320.31C233.566 344.009 225.271 366.782 222.7 390.259C217.846 434.617 226.249 483.676 265.411 510.632C290.221 527.712 322.973 534.554 352.661 530.78C382.161 527.03 409.971 512.66 429.698 490.336C449.414 468.031 460.163 438.721 458.806 408.912C457.226 374.204 439.885 341.488 416.825 316.148C398.095 295.566 373.131 280.782 357.421 257.476C337.693 228.205 334.152 192.086 338.201 157.817C338.553 154.837 338.945 151.851 339.487 148.899C339.824 147.071 337.959 145.218 336.159 146.342C323.601 154.175 312.146 164.414 301.946 175.057C281.639 196.245 265.269 222.503 260.695 251.886C258.274 267.449 260.172 284.151 264.595 299.237C265.417 302.033 269.751 300.854 268.97 298.035C265.635 286.016 254.632 276.243 244.519 269.93C242.038 268.38 239.759 272.302 242.229 273.846C251.316 279.516 261.588 288.388 264.595 299.237C266.053 298.835 267.512 298.436 268.97 298.035C265.257 285.378 263.385 271.532 264.437 258.383C265.675 242.844 271.225 227.528 278.644 213.923C290.344 192.458 307.355 174.006 326.465 158.896C330.315 155.849 334.276 152.858 338.445 150.253C337.335 149.401 336.226 148.548 335.117 147.696C329.957 175.683 330.663 205.731 340.143 232.678C345.018 246.54 352.144 259.368 361.739 270.516C370.276 280.443 380.418 288.76 390.321 297.258C415.939 319.24 438.223 345.607 448.664 378.293C458.126 407.938 455.69 440.279 440.39 467.551C425.857 493.458 401.199 512.965 372.892 521.786C342.964 531.112 309.413 528.248 281.228 514.566C259.29 503.921 242.536 485.83 233.997 462.96C226.377 442.544 224.905 420.32 226.464 398.736C227.131 389.496 228.378 380.3 230.103 371.194C232.216 360.031 235.431 349.109 236.916 337.831C239.938 314.87 237.76 288.86 224.964 268.866C224.295 267.821 223.589 266.79 222.81 265.823C222.275 267.11 221.742 268.401 221.208 269.691C228.343 268.936 236.013 270.25 242.229 273.846C244.761 275.306 247.045 271.393 244.519 269.93Z" fill="#040606"/>
<mask id="mask1_1_296" style="mask-type:luminance" maskUnits="userSpaceOnUse" x="261" y="213" width="155" height="274">
<path d="M283.832 329.249C283.832 329.249 233.473 416.657 285.416 468.699C323.208 506.567 399.077 481.08 413.008 429.002C426.933 376.92 382.338 338.527 348.792 307.215C306.251 267.503 310.247 213.364 310.247 213.364C310.247 213.364 278.98 258.957 293.343 311.183C308.187 365.15 337.785 369.196 331.478 397.603C327.019 417.691 290.645 412.155 283.832 329.249Z" fill="white"/>
</mask>
<g mask="url(#mask1_1_296)">
<path d="M283.832 329.249C283.832 329.249 233.473 416.657 285.416 468.699C323.208 506.567 399.077 481.08 413.008 429.002C426.933 376.92 382.338 338.527 348.792 307.215C306.251 267.503 310.247 213.364 310.247 213.364C310.247 213.364 278.98 258.957 293.343 311.183C308.187 365.15 337.785 369.196 331.478 397.603C327.019 417.691 290.645 412.155 283.832 329.249Z" fill="url(#paint1_linear_1_296)"/>
</g>
<path d="M281.875 328.103C277.578 335.583 274.155 343.661 271.089 351.708C264.649 368.598 260.235 386.543 259.696 404.672C259.092 425.222 264.141 445.864 276.831 462.328C288.834 477.892 305.803 487.197 325.405 488.819C362.282 491.869 402.474 468.932 414.19 432.98C421.403 410.846 417.266 387.603 405.955 367.662C394.468 347.411 377.428 330.848 360.567 315.082C351.428 306.536 342.203 298.252 334.937 287.971C328.253 278.513 322.988 268.096 319.268 257.132C314.763 243.835 312.118 229.55 312.428 215.474C312.447 214.77 312.464 214.068 312.514 213.364C312.685 210.95 309.451 210.521 308.288 212.222C298.508 226.549 292.307 244.364 289.282 261.293C283.811 291.921 291.006 323.217 307.408 349.499C312.549 357.734 318.883 365.099 324.179 373.212C328.604 379.985 331.047 387.16 329.631 395.298C328.94 399.269 327.267 403.254 323.321 404.635C319.227 406.069 314.731 404.029 311.428 401.511C304.154 395.968 299.57 387.003 296.306 378.683C290.138 362.968 287.515 345.981 286.098 329.25C285.853 326.363 281.316 326.336 281.565 329.25C282.9 345.009 285.245 360.913 290.463 375.903C293.573 384.841 297.711 393.802 304.132 400.877C310.696 408.111 323.189 414.197 330.673 404.651C334.736 399.468 335.22 391.547 334.201 385.308C332.856 377.065 327.787 370.188 322.914 363.658C315.692 353.974 308.839 344.195 303.719 333.205C296.147 316.955 291.572 299.177 291.85 281.196C292.198 258.383 299.216 233.53 312.203 214.51C310.796 214.129 309.389 213.748 307.981 213.364C307.326 222.482 308.571 231.956 310.289 240.88C314.172 261.036 322.711 280.214 335.554 296.267C342.913 305.466 351.898 313.121 360.441 321.178C368.684 328.949 376.779 336.904 384.241 345.435C398.873 362.165 411.736 382.183 413.21 404.943C414.549 425.588 406.719 445.421 392.007 459.841C378.78 472.803 361.052 481.289 342.724 483.806C325.003 486.239 306.051 482.8 291.853 471.435C275.524 458.37 266.403 438.107 264.587 417.57C262.005 388.335 271.148 357.498 284.968 331.881C285.237 331.383 285.505 330.884 285.788 330.391C287.244 327.859 283.329 325.571 281.875 328.103Z" fill="#040606"/>
<defs>
<linearGradient id="paint0_linear_1_296" x1="413.119" y1="78.0752" x2="274.002" y2="584.753" gradientUnits="userSpaceOnUse">
<stop stop-color="#C9E9A4"/>
<stop offset="0.293296" stop-color="#E57FC5"/>
<stop offset="0.46648" stop-color="#F57F9D"/>
<stop offset="0.667598" stop-color="#7A6BBC"/>
<stop offset="0.860335" stop-color="#86D7DF"/>
<stop offset="0.963687" stop-color="#9FDCA8"/>
<stop offset="1" stop-color="#9FDCA8"/>
</linearGradient>
<linearGradient id="paint1_linear_1_296" x1="362.17" y1="260.758" x2="239.472" y2="1026.31" gradientUnits="userSpaceOnUse">
<stop stop-color="#C9E9A4"/>
<stop offset="0.293296" stop-color="#E57FC5"/>
<stop offset="0.46648" stop-color="#F57F9D"/>
<stop offset="0.667598" stop-color="#7A6BBC"/>
<stop offset="0.860335" stop-color="#86D7DF"/>
<stop offset="0.963687" stop-color="#9FDCA8"/>
<stop offset="1" stop-color="#9FDCA8"/>
</linearGradient>
</defs>
</svg>
