<svg width="677" height="677" viewBox="0 0 677 677" fill="none" xmlns="http://www.w3.org/2000/svg">
<mask id="mask0_1_11" style="mask-type:luminance" maskUnits="userSpaceOnUse" x="213" y="123" width="252" height="432">
<path d="M360.408 288.275C360.368 288.472 360.087 288.584 360.408 288.275ZM464.361 320.315C462.817 316.244 459.2 315.195 455.495 314.177C451.258 313.01 447.018 311.847 442.778 310.68C429.336 306.985 415.892 303.292 402.45 299.593C390.588 296.335 378.73 293.074 366.869 289.814C364.811 289.248 362.632 288.807 360.604 288.103L360.607 288.1C361.205 287.601 361.68 286.653 362.145 286.027C375.889 267.508 389.63 248.989 403.371 230.471C417.602 211.296 431.833 192.118 446.063 172.944C446.943 171.762 448.04 170.584 448.768 169.302C452.01 163.618 447.952 157.994 442.446 156.365C434.519 154.02 426.487 151.98 418.515 149.789C391.966 142.491 365.421 135.193 338.87 127.895C333.72 126.477 328.574 125.063 323.424 123.649C323.101 123.516 322.744 123.407 322.336 123.35C321.657 123.162 321.028 123.132 320.454 123.214C315.942 123.208 313.237 125.846 311.506 129.765C310.675 131.639 309.704 133.464 308.804 135.311C305.075 142.975 301.346 150.638 297.61 158.305C285.652 182.871 273.691 207.44 261.733 232.006C249.957 256.203 238.177 280.397 226.4 304.594C222.961 311.654 219.525 318.713 216.089 325.772C215.382 327.223 214.644 328.664 213.964 330.13C211.638 335.183 214.85 340.269 219.818 341.898C228.28 344.672 237.095 346.648 245.677 349.005C259.603 352.834 273.525 356.666 287.454 360.489C292.648 361.918 297.837 363.348 303.029 364.774C303.824 364.992 308.964 365.723 309.348 366.509C309.139 366.077 307.894 369.286 307.825 369.467C306.734 372.296 305.637 375.128 304.546 377.956C295.577 401.171 286.61 424.386 277.641 447.601C267.974 472.635 258.3 497.664 248.63 522.695C246.212 528.95 243.731 535.188 241.38 541.468C239.963 545.251 240.214 549.325 243.556 552.12C247.457 555.387 252.495 554.477 255.88 551.059C264.876 541.963 273.371 532.305 282.093 522.952C299.801 503.968 317.504 484.986 335.21 466.002C355.343 444.419 375.475 422.833 395.608 401.247C411.912 383.764 428.218 366.285 444.519 348.803C449.179 343.811 453.836 338.815 458.493 333.823C462.031 330.03 466.595 326.21 464.361 320.315Z" fill="white"/>
</mask>
<g mask="url(#mask0_1_11)">
<path d="M360.408 288.275C360.368 288.472 360.087 288.584 360.408 288.275ZM464.361 320.315C462.817 316.244 459.2 315.195 455.495 314.177C451.258 313.01 447.018 311.847 442.778 310.68C429.336 306.985 415.892 303.292 402.45 299.593C390.588 296.335 378.73 293.074 366.869 289.814C364.811 289.248 362.632 288.807 360.604 288.103L360.607 288.1C361.205 287.601 361.68 286.653 362.145 286.027C375.889 267.508 389.63 248.989 403.371 230.471C417.602 211.296 431.833 192.118 446.063 172.944C446.943 171.762 448.04 170.584 448.768 169.302C452.01 163.618 447.952 157.994 442.446 156.365C434.519 154.02 426.487 151.98 418.515 149.789C391.966 142.491 365.421 135.193 338.87 127.895C333.72 126.477 328.574 125.063 323.424 123.649C323.101 123.516 322.744 123.407 322.336 123.35C321.657 123.162 321.028 123.132 320.454 123.214C315.942 123.208 313.237 125.846 311.506 129.765C310.675 131.639 309.704 133.464 308.804 135.311C305.075 142.975 301.346 150.638 297.61 158.305C285.652 182.871 273.691 207.44 261.733 232.006C249.957 256.203 238.177 280.397 226.4 304.594C222.961 311.654 219.525 318.713 216.089 325.772C215.382 327.223 214.644 328.664 213.964 330.13C211.638 335.183 214.85 340.269 219.818 341.898C228.28 344.672 237.095 346.648 245.677 349.005C259.603 352.834 273.525 356.666 287.454 360.489C292.648 361.918 297.837 363.348 303.029 364.774C303.824 364.992 308.964 365.723 309.348 366.509C309.139 366.077 307.894 369.286 307.825 369.467C306.734 372.296 305.637 375.128 304.546 377.956C295.577 401.171 286.61 424.386 277.641 447.601C267.974 472.635 258.3 497.664 248.63 522.695C246.212 528.95 243.731 535.188 241.38 541.468C239.963 545.251 240.214 549.325 243.556 552.12C247.457 555.387 252.495 554.477 255.88 551.059C264.876 541.963 273.371 532.305 282.093 522.952C299.801 503.968 317.504 484.986 335.21 466.002C355.343 444.419 375.475 422.833 395.608 401.247C411.912 383.764 428.218 366.285 444.519 348.803C449.179 343.811 453.836 338.815 458.493 333.823C462.031 330.03 466.595 326.21 464.361 320.315Z" fill="url(#paint0_linear_1_11)"/>
</g>
<path d="M466.317 319.169C463.174 312.243 454.123 311.448 447.622 309.659C437.807 306.96 427.992 304.265 418.176 301.566C408.627 298.943 399.077 296.317 389.531 293.691C380.117 291.104 370.501 288.889 361.205 285.918C361.538 287.178 361.873 288.441 362.206 289.705C364.998 286.912 367.125 283.096 369.477 279.925C373.064 275.093 376.648 270.264 380.235 265.432C387.104 256.173 393.979 246.913 400.848 237.654C414.498 219.262 428.146 200.867 441.796 182.478C444.694 178.571 448.333 174.681 450.726 170.444C452.533 167.247 452.675 163.397 450.844 160.17C449.14 157.163 446.257 155.271 443.047 154.18C437.544 152.312 431.775 151.013 426.163 149.508C403.991 143.561 381.882 137.366 359.749 131.282C348.776 128.266 337.806 125.25 326.836 122.234C323.089 121.204 319.668 120.258 315.912 121.851C312.63 123.244 310.762 126.069 309.29 129.179C299.777 149.339 289.759 169.278 279.998 189.323C259.977 230.452 239.954 271.585 219.93 312.714C217.298 318.121 214.403 323.469 212.009 328.985C210.519 332.421 210.619 336.065 212.71 339.253C215.155 342.976 219.214 344.137 223.248 345.343C229.114 347.098 235.07 348.543 240.993 350.099C253.432 353.369 265.807 356.893 278.206 360.302C284.392 362 290.578 363.701 296.764 365.4C298.916 365.995 301.059 366.645 303.234 367.128C304.292 367.358 306.976 367.352 307.746 368.113C308.278 366.823 308.813 365.533 309.348 364.242C307.326 364.493 306.779 366.098 306.069 367.805C304.757 370.954 303.591 374.173 302.358 377.352C298.955 386.176 295.546 394.997 292.138 403.818C285.323 421.458 278.511 439.094 271.697 456.734C264.891 474.349 258.086 491.961 251.28 509.576C247.944 518.219 244.565 526.844 241.238 535.49C238.869 541.649 236.089 548.56 241.954 553.725C246.72 557.922 253.12 556.686 257.481 552.661C264.069 546.578 269.935 539.533 275.985 532.927C288.653 519.08 301.539 505.424 314.34 491.698C340.257 463.911 366.177 436.127 392.093 408.336C406.708 392.67 421.322 377.001 435.936 361.332C442.993 353.768 450.049 346.201 457.105 338.634C462.086 333.294 469.076 327.848 466.546 319.713C465.682 316.936 461.303 318.12 462.173 320.916C463.4 324.853 461.315 327.54 458.71 330.308C455.936 333.261 453.168 336.213 450.406 339.175C444.513 345.491 438.62 351.81 432.727 358.126C421.008 370.691 409.288 383.254 397.572 395.822C374.037 421.053 350.501 446.287 326.966 471.52C303.721 496.446 280.935 521.891 257.258 546.405C254.885 548.859 252.265 552.292 248.403 551.863C243.248 551.295 242.19 546.206 243.565 542.069C246.215 534.082 249.663 526.285 252.697 518.431C258.874 502.438 265.054 486.446 271.231 470.453C278.221 452.361 285.214 434.262 292.204 416.166C295.61 407.345 299.019 398.524 302.427 389.703C304.174 385.179 305.921 380.655 307.668 376.134C308.728 373.393 309.496 370.132 311.161 367.672C310.508 368.047 309.853 368.419 309.2 368.793L309.348 368.775C311.188 368.549 312.473 366.412 310.95 364.907C309.396 363.366 306.77 363.239 304.751 362.813C300.327 361.876 295.96 360.477 291.597 359.28C281.295 356.445 270.99 353.614 260.685 350.782C250.887 348.09 241.066 345.509 231.25 342.88C227.171 341.789 221.214 341.085 217.893 338.32C213.408 334.587 216.675 329.722 218.691 325.594C237.098 287.873 255.429 250.116 273.8 212.381C283.05 193.381 292.298 174.388 301.545 155.392C303.739 150.88 305.933 146.374 308.13 141.865C310.173 137.662 311.92 133.011 314.416 129.061C317.178 124.685 321.258 125.405 325.633 126.604C330.81 128.028 335.987 129.451 341.163 130.874C361.677 136.516 382.193 142.156 402.71 147.792C412.939 150.605 423.187 153.355 433.419 156.162C437.375 157.247 443.355 157.882 446.118 161.279C449.928 165.963 445.102 170.456 442.331 174.195C428.394 192.976 414.456 211.755 400.522 230.534C393.35 240.198 386.179 249.86 379.011 259.521C375.424 264.353 371.84 269.182 368.253 274.014C365.291 278.006 362.52 282.981 359.002 286.498C357.757 287.743 358.395 289.774 360.003 290.288C377.279 295.812 395.155 299.94 412.649 304.748C421.531 307.19 430.412 309.632 439.297 312.073C443.552 313.243 447.81 314.416 452.068 315.585C456.087 316.691 460.505 317.274 462.403 321.457C463.609 324.11 467.516 321.807 466.317 319.169Z" fill="#040606"/>
<path d="M358.452 287.133L358.316 287.32C356.6 289.684 360.528 291.947 362.23 289.608L362.369 289.421C364.085 287.057 360.154 284.791 358.452 287.133L358.316 287.32C356.6 289.684 360.528 291.947 362.23 289.608L362.369 289.421C364.085 287.057 360.154 284.791 358.452 287.133Z" fill="#040606"/>
<path d="M325.676 142.582C343.073 147.363 360.471 152.146 377.866 156.927C389.074 160.01 400.28 163.089 411.489 166.171C414.625 167.033 417.765 167.897 420.902 168.758C422.277 169.136 423.619 169.341 423.069 171.01C422.552 172.563 420.691 174.331 419.748 175.651C417.602 178.652 415.453 181.653 413.308 184.654C406.959 193.533 400.606 202.411 394.257 211.29C379.794 231.504 365.337 251.718 350.876 271.935C346.416 278.173 341.955 284.41 337.492 290.645C336.803 291.609 335.917 292.585 335.355 293.633C333.325 297.438 336.056 300.729 339.607 301.805C359.147 307.716 379.044 312.645 398.73 318.057C409.071 320.901 419.412 323.745 429.753 326.585C431.814 327.153 434.791 327.416 436.665 328.486C438.112 329.311 437.662 329.846 436.916 330.855C434.401 334.264 431.053 337.295 428.206 340.426C422.603 346.582 417.004 352.738 411.401 358.893C395.414 376.46 379.431 394.027 363.448 411.591C346.262 430.479 329.076 449.363 311.889 468.25C300.022 481.293 288.155 494.33 276.29 507.373C274.918 508.878 273.549 510.383 272.18 511.888C271.881 512.215 270.984 513.62 270.527 513.704C269.403 513.916 269.122 512.831 269.122 512.205C269.122 511.74 269.636 510.969 269.817 510.537C270.799 508.168 271.784 505.802 272.767 503.433C281.056 483.478 289.345 463.518 297.632 443.561C306.713 421.697 315.791 399.832 324.872 377.965C327.181 372.405 329.598 366.871 331.81 361.266C332.781 358.797 333.113 356.161 330.813 354.143C329.284 352.798 327.006 352.463 325.093 351.937C303.383 345.968 281.672 340 259.959 334.031C252.151 331.886 244.339 329.749 236.533 327.592C236.219 327.504 234.602 327.174 234.532 327.02L234.883 326.298C235.058 324.881 236.536 322.935 237.158 321.665C245.188 305.292 253.217 288.919 261.244 272.549C272.555 249.482 283.866 226.418 295.178 203.351C303.651 186.068 312.125 168.788 320.602 151.506C321.282 150.116 323.887 142.361 326.277 142.663C329.166 143.026 329.142 138.49 326.277 138.13C321.125 137.481 319.29 143.908 317.426 147.713C314.062 154.57 310.699 161.43 307.335 168.287C296.547 190.293 285.752 212.299 274.961 234.305C264.22 256.203 253.486 278.103 242.746 300.001C239.519 306.58 236.291 313.165 233.064 319.743C231.078 323.796 227.666 329.347 234.3 331.68C240.295 333.79 246.708 335.092 252.834 336.775C265.19 340.172 277.544 343.569 289.898 346.966C300.37 349.842 310.844 352.722 321.315 355.599C322.763 355.998 326.19 356.249 327.359 357.262C328.613 358.343 327.531 359.833 327.06 360.966C319.985 377.998 312.914 395.034 305.839 412.069C296.048 435.646 286.254 459.224 276.463 482.804C273.268 490.495 270.074 498.189 266.88 505.88C266.194 507.533 265.396 509.183 264.807 510.876C263.456 514.735 266.012 519.15 270.497 518.549C273.679 518.12 276.254 514.143 278.255 511.943C282.908 506.826 287.562 501.713 292.219 496.597C307.595 479.701 322.971 462.802 338.35 445.903C356.198 426.29 374.046 406.674 391.894 387.055C405.194 372.444 418.487 357.833 431.784 343.221C434.616 340.109 437.538 337.053 440.294 333.871C442.129 331.75 443.144 329.006 441.358 326.446C439.91 324.376 437.493 324.01 435.235 323.391C413.468 317.407 391.703 311.424 369.936 305.437C360.906 302.956 351.871 300.472 342.841 297.991C341.566 297.641 339.118 297.532 339.402 295.734C339.595 294.552 341.617 292.642 342.294 291.693C354.572 274.525 366.851 257.36 379.132 240.192C392.785 221.102 406.442 202.012 420.095 182.922C422.452 179.631 425.695 176.214 427.442 172.545C431.15 164.757 417.98 163.255 413.413 161.998C389.996 155.561 366.579 149.124 343.158 142.687C337.737 141.195 332.309 139.702 326.882 138.212C324.065 137.435 322.865 141.808 325.676 142.582Z" fill="#040606"/>
<defs>
<linearGradient id="paint0_linear_1_11" x1="396.916" y1="218.688" x2="165.295" y2="466.687" gradientUnits="userSpaceOnUse">
<stop stop-color="#C9E9A4"/>
<stop offset="0.293296" stop-color="#E57FC5"/>
<stop offset="0.46648" stop-color="#F57F9D"/>
<stop offset="0.667598" stop-color="#7A6BBC"/>
<stop offset="0.860335" stop-color="#86D7DF"/>
<stop offset="0.963687" stop-color="#9FDCA8"/>
<stop offset="1" stop-color="#9FDCA8"/>
</linearGradient>
</defs>
</svg>
