<svg width="677" height="677" viewBox="0 0 677 677" fill="none" xmlns="http://www.w3.org/2000/svg">
<mask id="mask0_1_294" style="mask-type:luminance" maskUnits="userSpaceOnUse" x="135" y="143" width="408" height="391">
<path d="M335.911 500.489L150.064 467.721C136.505 465.331 130.612 449.157 139.466 438.607L260.766 294.041L382.066 149.474C390.918 138.924 407.871 141.913 412.579 154.853L477.129 332.184L541.676 509.518C546.388 522.458 535.321 535.643 521.758 533.253L335.911 500.489Z" fill="white"/>
</mask>
<g mask="url(#mask0_1_294)">
<path d="M335.911 500.489L150.064 467.721C136.505 465.331 130.612 449.157 139.466 438.607L260.766 294.041L382.066 149.474C390.918 138.924 407.871 141.913 412.579 154.853L477.129 332.184L541.676 509.518C546.388 522.458 535.321 535.643 521.758 533.253L335.911 500.489Z" fill="url(#paint0_linear_1_294)"/>
</g>
<path d="M336.513 498.301C322.612 495.85 308.704 493.399 294.803 490.948C267.497 486.134 240.193 481.32 212.892 476.506C193.349 473.061 173.805 469.616 154.268 466.171C153.075 465.962 151.872 465.778 150.681 465.539C142.138 463.829 136.024 455.824 137.832 447.008C138.944 441.584 143.513 437.296 146.964 433.183C161.515 415.842 176.066 398.499 190.617 381.159C207.939 360.513 225.267 339.863 242.589 319.214C249.482 311 256.379 302.783 263.272 294.567C274.695 280.952 286.118 267.335 297.544 253.721C315.48 232.344 333.418 210.966 351.354 189.591C362.004 176.899 372.553 164.116 383.306 151.514C391.314 142.119 405.983 144.035 410.528 155.83C412.417 160.722 414.121 165.696 415.916 170.625C424.362 193.825 432.806 217.025 441.249 240.222C450.074 264.47 458.901 288.716 467.725 312.965C470.705 321.142 473.681 329.323 476.658 337.503C483.742 356.965 490.828 376.43 497.912 395.891C507.374 421.89 516.836 447.885 526.3 473.883C529.57 482.867 532.84 491.852 536.11 500.836C537.811 505.508 540.619 511.048 540.501 516.1C540.274 525.58 531.474 532.386 522.299 531.056C520.961 530.863 519.628 530.585 518.298 530.352C510.659 529.004 503.022 527.66 495.388 526.312C469.079 521.676 442.773 517.034 416.466 512.398C393.487 508.346 370.504 504.296 347.522 500.244C343.853 499.594 340.185 498.95 336.513 498.301C333.663 497.799 332.439 502.169 335.31 502.674C349.637 505.2 363.965 507.726 378.292 510.253C406.227 515.176 434.16 520.102 462.092 525.024C481.049 528.367 500.012 531.712 518.969 535.054C521.453 535.493 523.904 535.934 526.449 535.734C535.279 535.033 542.91 528.345 544.635 519.621C545.941 513.039 543.254 507.252 541.075 501.256C533.257 479.782 525.439 458.305 517.624 436.83C508.232 411.028 498.84 385.227 489.447 359.425C485.836 349.504 482.225 339.585 478.616 329.664C472.092 311.738 465.564 293.814 459.04 275.891C449.333 249.219 439.624 222.549 429.917 195.877C424.87 182.012 420.056 168.033 414.768 154.255C409.246 139.867 390.546 136.286 380.338 148.021C377.092 151.753 373.974 155.606 370.795 159.396C354.69 178.588 338.586 197.781 322.482 216.977C305.686 236.994 288.889 257.012 272.09 277.03C266.439 283.769 260.785 290.505 255.13 297.244C240.991 314.098 226.848 330.948 212.711 347.802C194.851 369.083 176.997 390.364 159.14 411.645C153.395 418.496 147.644 425.347 141.896 432.198C137.288 437.688 132.709 442.947 133.014 450.744C133.456 461.825 141.827 468.561 152.017 470.359C159.185 471.623 166.353 472.886 173.518 474.149C199.937 478.806 226.355 483.466 252.773 488.123C276.49 492.302 300.207 496.485 323.923 500.664C327.719 501.335 331.515 502.003 335.31 502.674C338.163 503.178 339.387 498.808 336.513 498.301Z" fill="#040606"/>
<path d="M339.686 480.308C327.501 478.159 315.313 476.01 303.126 473.862C278.635 469.543 254.142 465.225 229.652 460.906C210.915 457.603 192.179 454.3 173.437 450.997C171.838 450.713 170.212 450.487 168.623 450.148C163.751 449.105 160.929 444.391 164.053 439.903C166.157 436.884 168.885 434.147 171.249 431.33C184.848 415.12 198.45 398.913 212.049 382.703C227.542 364.239 243.036 345.774 258.53 327.31C264.607 320.063 270.688 312.816 276.768 305.573C286.873 293.524 296.985 281.478 307.094 269.429C323.267 250.152 339.441 230.875 355.618 211.6C366.056 199.159 376.494 186.717 386.932 174.279C388.594 172.296 390.307 170.477 393.221 170.601C396.536 170.74 398.298 173.149 399.316 175.92C401.274 181.26 403.205 186.612 405.148 191.957C412.972 213.444 420.793 234.933 428.614 256.423C436.462 277.985 444.314 299.55 452.165 321.115C454.767 328.271 457.372 335.427 459.98 342.586C466.293 359.929 472.603 377.27 478.915 394.613C487.459 418.076 495.999 441.541 504.539 465.007C508.99 477.234 514.285 489.455 517.981 501.939C519.492 507.043 515.739 511.144 510.604 510.44C508.851 510.201 507.102 509.823 505.358 509.515C497.73 508.17 490.103 506.826 482.472 505.481C458.538 501.262 434.601 497.04 410.664 492.822C390.244 489.219 369.821 485.62 349.402 482.021C346.165 481.45 342.922 480.879 339.686 480.308C336.836 479.803 335.609 484.17 338.483 484.677C351.191 486.92 363.901 489.159 376.609 491.401C401.767 495.835 426.922 500.271 452.077 504.704C470.227 507.905 488.377 511.105 506.524 514.305C507.685 514.511 508.842 514.743 510 514.919C516.95 515.967 523.508 510.76 522.934 503.444C522.62 499.461 520.338 495.2 518.999 491.516C511.737 471.565 504.473 451.611 497.211 431.659C488.773 408.481 480.336 385.302 471.898 362.123C468.671 353.248 465.437 344.372 462.207 335.493C456.456 319.691 450.699 303.886 444.948 288.081C436.154 263.92 427.36 239.756 418.566 215.592C413.486 201.646 408.651 187.579 403.326 173.726C400.102 165.349 390.102 163.647 384.269 170.426C380.743 174.524 377.31 178.718 373.834 182.861C358.906 200.652 343.983 218.439 329.057 236.23C314.071 254.09 299.085 271.95 284.099 289.81C279.149 295.709 274.202 301.605 269.252 307.501C256.662 322.505 244.073 337.512 231.483 352.516C215.225 371.896 198.963 391.276 182.699 410.657C177.142 417.281 171.584 423.905 166.027 430.526C163.28 433.799 159.103 437.604 158.342 441.949C157.308 447.866 161.306 453.179 167.012 454.448C168.299 454.732 169.62 454.908 170.916 455.137C178.057 456.395 185.195 457.655 192.333 458.912C216.533 463.179 240.734 467.443 264.931 471.71C286.088 475.439 307.242 479.171 328.399 482.9C331.759 483.493 335.12 484.085 338.483 484.677C341.336 485.179 342.56 480.815 339.686 480.308Z" fill="#040606"/>
<path d="M445.522 373.413C442.612 365.484 436.245 360.292 427.992 358.808C426 358.449 423.973 358.276 421.936 358.21C431.047 354.33 438.599 348.476 438.351 337.932C437.901 319.036 416.683 300.931 398.709 312.127C397.367 312.964 396.137 313.938 394.952 314.971C397.092 307.205 396.551 299.565 389.165 293.624C382.045 287.9 371.789 285.138 362.819 287.093C354.745 288.852 347.585 294.304 344.784 302.233C344.43 303.228 344.186 304.237 343.959 305.249C339.565 297.244 331.795 293.618 322.693 294.938C313.769 296.232 305.005 300.734 299.944 308.38C295.06 315.748 294.066 325.028 298.067 333.018C298.55 333.982 299.094 334.904 299.672 335.802C298.81 335.515 297.952 335.231 297.067 335.019C288.131 332.858 280.554 337.074 275.632 344.451C270.615 351.963 268.318 361.304 270.845 370.135C273.117 378.07 279.059 384.057 287.006 386.242C289.584 386.952 292.244 387.282 294.93 387.372C285.127 391.751 277.161 398.387 279.328 410.56C280.887 419.291 285.928 427.674 293.495 432.442C301.258 437.335 311.077 437.752 318.979 432.983C320.2 432.246 321.324 431.388 322.406 430.475C322.216 431.285 322.022 432.092 321.889 432.911C320.493 441.505 324.05 448.731 331.439 453.243C345.491 461.828 368.489 459.643 373.139 441.339C373.254 440.889 373.291 440.432 373.378 439.979C377.73 446.754 384.78 449.828 393.103 448.719C401.64 447.586 410.123 443.361 415.13 436.184C420.05 429.133 421.289 420.04 417.56 412.174C416.874 410.732 416.043 409.39 415.148 408.094C416.865 408.698 418.618 409.218 420.452 409.526C424.692 410.24 429.104 409.907 433.036 408.085C436.768 406.353 439.379 403.652 441.603 400.234C446.725 392.361 448.822 382.407 445.522 373.413Z" fill="white"/>
<path d="M352.469 329.966C349.471 323.357 347.162 315.878 348.003 308.543C348.861 301.043 353.823 294.893 360.943 292.397C368.365 289.795 376.621 291.33 383.315 295.213C386.657 297.157 389.658 299.84 390.851 303.63C391.988 307.247 391.395 311.13 390.332 314.687C388.014 322.417 383.445 329.15 379.779 336.261C378.443 338.851 382.354 341.145 383.695 338.549C390.694 324.971 404.804 304.887 387.842 292.744C380.546 287.519 370.625 285.183 361.858 287.389C353.675 289.447 346.887 295.419 344.418 303.563C341.523 313.122 344.579 323.49 348.556 332.257C349.755 334.91 353.663 332.608 352.469 329.966Z" fill="#040606"/>
<path d="M384.369 337.654C388.228 330.97 392.045 323.892 397.805 318.619C404.163 312.795 412.824 311.768 420.419 315.99C427.783 320.081 433.114 328.809 433.697 337.21C434.293 345.753 427.696 350.646 420.567 353.635C413.661 356.533 406.27 358.373 399.144 360.643C396.376 361.525 397.557 365.904 400.35 365.012C407.88 362.616 415.659 360.652 422.927 357.524C430.663 354.194 437.711 348.582 438.242 339.567C439.37 320.516 417.575 301.07 399.395 311.804C390.598 316.996 385.394 326.805 380.456 335.367C378.996 337.899 382.913 340.184 384.369 337.654Z" fill="#040606"/>
<path d="M401.06 366.097C407.397 364.127 414.024 362.837 420.682 362.828C427.324 362.822 434.136 364.2 438.36 369.766C447.556 381.869 440.37 406.583 423.033 405.214C413.365 404.447 405.263 397.653 397.566 392.425C395.149 390.781 392.879 394.707 395.282 396.338C403.375 401.835 411.48 408.266 421.485 409.575C425.946 410.158 430.37 409.487 434.347 407.351C438.013 405.383 440.597 401.978 442.633 398.43C447.281 390.328 448.596 380.443 444.746 371.77C441.304 364.018 434.565 359.736 426.342 358.657C417.521 357.5 408.282 359.107 399.851 361.724C397.074 362.589 398.261 366.965 401.06 366.097Z" fill="#040606"/>
<path d="M395.445 397.662C401.625 400.968 407.787 405.166 411.691 411.122C415.907 417.553 416.275 425.292 412.356 431.977C408.488 438.586 401.389 442.545 394.003 443.914C389.996 444.654 385.608 444.681 382.015 442.524C379.413 440.961 377.594 438.489 376.231 435.827C372.453 428.453 371.695 419.463 370.208 411.436C369.676 408.571 365.306 409.783 365.835 412.642C367.413 421.134 368.325 430.318 372.317 438.115C376.249 445.787 383.484 449.656 392.081 448.743C400.727 447.827 409.225 443.85 414.547 436.827C419.727 429.988 421.21 420.977 417.829 413.017C414.097 404.232 405.913 398.121 397.732 393.749C395.164 392.374 392.87 396.284 395.445 397.662Z" fill="#040606"/>
<path d="M364.705 414.054C367.908 425.791 374.523 443.436 360.45 450.934C353.865 454.446 345.793 454.307 338.924 451.765C331.928 449.175 325.881 444.228 326.174 436.181C326.51 427.112 332.276 418.372 336.201 410.478C337.492 407.874 333.587 405.574 332.285 408.188C328.136 416.541 322.738 425.217 321.753 434.676C320.831 443.557 325.836 450.411 333.521 454.31C341.336 458.274 350.435 459.39 358.812 456.531C366.213 454.007 371.807 448.105 373.281 440.318C375.025 431.101 371.471 421.621 369.078 412.848C368.313 410.037 363.934 411.231 364.705 414.054Z" fill="#040606"/>
<path d="M330.768 409.073C328.299 415.731 324.812 422.397 319.324 427.063C313.231 432.24 304.9 433.186 297.753 429.565C290.708 425.996 286.012 418.868 284.19 411.313C283.18 407.124 283.386 402.766 285.946 399.173C287.84 396.511 290.633 394.616 293.482 393.102C300.412 389.418 308.324 387.535 315.746 385.094C318.505 384.187 317.323 379.808 314.543 380.724C300.657 385.29 276.78 389.917 279.255 409.409C280.397 418.393 285.631 427.308 293.295 432.234C301.007 437.193 310.998 437.764 318.901 432.935C327.066 427.946 331.904 418.988 335.138 410.279C336.156 407.541 331.777 406.356 330.768 409.073Z" fill="#040606"/>
<path d="M313.82 379.648C302.346 383.326 285.054 386.166 277.55 373.985C273.356 367.176 273.607 358.624 276.922 351.51C280.204 344.448 285.985 337.887 294.492 339.204C303.633 340.619 311.753 347.6 319.236 352.577C321.669 354.197 323.941 350.271 321.521 348.663C313.666 343.435 305.347 336.476 295.788 334.844C286.411 333.242 279.182 338.455 274.562 346.27C270.005 353.982 268.288 363.604 271.609 372.114C274.55 379.654 280.654 384.909 288.59 386.538C297.329 388.33 306.64 386.707 315.026 384.018C317.794 383.132 316.61 378.753 313.82 379.648Z" fill="#040606"/>
<path d="M320.738 347.53C314.334 344.185 307.928 339.918 303.848 333.816C299.436 327.222 298.958 319.226 302.935 312.282C306.867 305.419 314.132 301.263 321.747 299.771C325.878 298.961 330.42 298.879 334.156 301.073C336.863 302.663 338.77 305.186 340.209 307.927C344.174 315.494 345.047 324.735 346.664 332.994C347.22 335.856 351.593 334.644 351.034 331.789C349.329 323.07 348.305 313.617 344.122 305.639C340.009 297.791 332.566 293.896 323.739 294.905C314.896 295.915 306.266 300.055 300.844 307.25C295.516 314.319 294.063 323.641 297.605 331.822C301.5 340.821 310.007 347.035 318.45 351.444C321.031 352.795 323.328 348.884 320.738 347.53Z" fill="#040606"/>
<mask id="mask1_1_294" style="mask-type:luminance" maskUnits="userSpaceOnUse" x="314" y="329" width="89" height="90">
<path d="M401.885 381.6C397.651 405.607 374.76 421.639 350.75 417.405C326.743 413.171 310.711 390.279 314.948 366.273C319.179 342.263 342.07 326.234 366.077 330.468C390.087 334.699 406.119 357.593 401.885 381.6Z" fill="white"/>
</mask>
<g mask="url(#mask1_1_294)">
<path d="M401.885 381.6C397.651 405.607 374.76 421.639 350.75 417.405C326.743 413.171 310.711 390.279 314.948 366.273C319.179 342.263 342.07 326.234 366.077 330.468C390.087 334.699 406.119 357.593 401.885 381.6Z" fill="url(#paint1_linear_1_294)"/>
</g>
<path d="M399.697 380.996C396.436 398.282 383.137 412.065 365.687 415.196C348.48 418.281 330.747 409.853 322.077 394.746C313.401 379.627 315.163 359.966 326.568 346.726C337.87 333.614 356.307 328.733 372.623 334.532C391.601 341.281 402.937 361.271 399.697 380.996C399.229 383.851 403.599 385.078 404.07 382.201C407.201 363.115 398.685 343.695 381.816 333.846C365.08 324.076 343.603 325.983 328.719 338.289C313.767 350.655 308.046 372.008 314.945 390.174C321.838 408.327 339.653 420.665 359.151 420.342C381.166 419.983 400.008 403.733 404.07 382.201C404.608 379.352 400.238 378.131 399.697 380.996Z" fill="#040606"/>
<defs>
<linearGradient id="paint0_linear_1_294" x1="604.335" y1="-50.4312" x2="301.382" y2="558.508" gradientUnits="userSpaceOnUse">
<stop stop-color="#C9E9A4"/>
<stop offset="0.293296" stop-color="#E57FC5"/>
<stop offset="0.46648" stop-color="#F57F9D"/>
<stop offset="0.667598" stop-color="#7A6BBC"/>
<stop offset="0.860335" stop-color="#86D7DF"/>
<stop offset="0.963687" stop-color="#9FDCA8"/>
<stop offset="1" stop-color="#9FDCA8"/>
</linearGradient>
<linearGradient id="paint1_linear_1_294" x1="378.356" y1="349.658" x2="193.834" y2="574.294" gradientUnits="userSpaceOnUse">
<stop stop-color="#C9E9A4"/>
<stop offset="0.293296" stop-color="#E57FC5"/>
<stop offset="0.46648" stop-color="#F57F9D"/>
<stop offset="0.667598" stop-color="#7A6BBC"/>
<stop offset="0.860335" stop-color="#86D7DF"/>
<stop offset="0.963687" stop-color="#9FDCA8"/>
<stop offset="1" stop-color="#9FDCA8"/>
</linearGradient>
</defs>
</svg>
