<svg width="677" height="677" viewBox="0 0 677 677" fill="none" xmlns="http://www.w3.org/2000/svg">
<mask id="mask0_1_291" style="mask-type:luminance" maskUnits="userSpaceOnUse" x="151" y="174" width="349" height="331">
<path d="M422.105 177.071C405.741 173.236 391.685 173.321 379.67 175.98C333.654 186.155 317.365 234.033 314.422 244.096C307.51 236.212 272.54 199.676 226.536 209.851C214.514 212.51 201.743 218.355 188.519 228.738C118.666 283.572 160.112 378.509 206.536 420.294C252.957 462.076 372.024 504.522 372.024 504.522C372.024 504.522 462.086 415.818 486.555 358.352C511.021 300.892 508.567 197.331 422.105 177.071Z" fill="white"/>
</mask>
<g mask="url(#mask0_1_291)">
<path d="M422.105 177.071C405.741 173.236 391.685 173.321 379.67 175.98C333.654 186.155 317.365 234.033 314.422 244.096C307.51 236.212 272.54 199.676 226.536 209.851C214.514 212.51 201.743 218.355 188.519 228.738C118.666 283.572 160.112 378.509 206.536 420.294C252.957 462.076 372.024 504.522 372.024 504.522C372.024 504.522 462.086 415.818 486.555 358.352C511.021 300.892 508.567 197.331 422.105 177.071Z" fill="url(#paint0_linear_1_291)"/>
</g>
<path d="M422.706 174.886C398.288 169.311 372.514 171.211 351.565 185.916C336.893 196.212 325.923 211.081 318.447 227.239C316.011 232.501 313.875 237.928 312.237 243.492C313.5 243.156 314.76 242.824 316.023 242.494C292.361 215.614 255.157 198.246 219.501 209.379C197.005 216.402 176.38 232.576 163.687 252.4C153.141 268.87 148.463 288.356 149.049 307.821C150.209 346.258 169.239 384.099 194.977 412.028C207.162 425.247 221.758 435.702 237.052 445.023C254.498 455.651 272.773 464.895 291.27 473.529C316.906 485.49 343.212 497.062 370.02 506.2C370.492 506.36 370.957 506.541 371.423 506.705C372.172 506.974 373.085 506.659 373.629 506.124C385.593 494.336 397.089 482.039 408.37 469.601C430.083 445.657 451.155 420.789 469.148 393.888C477.093 382.015 484.473 369.638 489.819 356.351C494.705 344.205 497.99 331.408 499.97 318.473C504.173 291.01 502.955 261.76 492.693 235.695C482.176 208.974 461.907 188.132 434.703 178.407C430.775 177.002 426.765 175.853 422.706 174.886C419.868 174.209 418.66 178.576 421.5 179.256C450.218 186.113 473.358 204.284 485.851 231.141C497.443 256.054 499.586 284.866 496.34 311.87C494.79 324.753 491.865 337.543 487.489 349.769C483.022 362.25 476.606 373.875 469.514 385.042C452.37 412.035 431.66 436.781 410.391 460.592C397.469 475.052 384.239 489.304 370.422 502.915C371.157 502.724 371.891 502.529 372.632 502.335C351.568 494.823 330.822 486.279 310.372 477.243C292.328 469.275 274.492 460.788 257.167 451.35C241.295 442.705 225.469 433.34 211.592 421.687C183.838 398.388 163.255 363.836 156.018 328.349C152.267 309.967 152.494 290.62 158.737 272.799C166.12 251.736 181.783 234.604 200.637 223.027C221.027 210.506 244.822 206.829 267.629 214.641C283.22 219.98 297.281 229.738 308.813 241.412C310.185 242.803 311.527 244.229 312.82 245.698C313.981 247.018 316.15 246.245 316.607 244.697C325.222 215.423 346.219 187.358 376.672 179.053C391.38 175.04 406.762 175.892 421.5 179.256C424.341 179.906 425.553 175.533 422.706 174.886Z" fill="#040606"/>
<path d="M324.234 276.622C314.854 266.683 305.727 256.692 294.809 248.375C280.394 237.396 263.323 229.521 244.964 229.092C234.487 228.85 224.841 231.138 215.651 236.2C206.234 241.388 197.123 248.297 190.094 256.477C178.906 269.496 173.433 286.017 173.321 303.086C173.089 338.593 192.073 373.685 214.949 399.771C236.723 424.603 267.2 439.906 296.746 453.545C318.782 463.72 341.493 473.644 364.62 481.127C365.037 481.263 365.448 481.42 365.862 481.565C368.624 482.516 369.812 478.141 367.068 477.192C348.948 470.936 331.094 463.756 313.524 456.12C298.233 449.474 283.12 442.364 268.484 434.377C255.184 427.12 241.86 419.209 230.48 409.128C218.253 398.293 207.984 385.008 199.519 371.087C190.384 356.064 183.155 339.628 179.743 322.321C176.543 306.095 177.026 288.634 184.288 273.512C188.014 265.755 193.3 258.91 199.685 253.156C208.159 245.526 218.537 238.215 229.667 235.175C247.648 230.27 267.384 236.172 282.802 245.61C295.434 253.337 306.087 263.67 316.09 274.488C317.734 276.271 319.366 278.063 321.025 279.825C323.031 281.95 326.235 278.743 324.234 276.622Z" fill="#040606"/>
<path d="M324.675 278.858C333.977 250.905 344.524 220.923 372.187 206.046C382.111 200.706 392.374 198.672 403.601 199.724C414.066 200.706 424.891 203.248 434.304 208.038C448.169 215.088 458.435 226.967 464.845 241.008C478.193 270.254 476.41 306.014 468.504 336.472C460.149 368.675 439.943 395.347 418.898 420.487C402.495 440.078 384.855 458.444 366.923 476.609C366.612 476.923 366.294 477.222 365.977 477.527C363.877 479.558 367.083 482.758 369.183 480.734C385.892 464.605 401.751 447.48 416.87 429.865C438.994 404.089 461.617 376.269 471.357 343.178C480.586 311.801 483.067 275.12 471.043 244.138C465.395 229.584 456.169 216.563 443.038 207.877C435.731 203.042 427.532 199.845 419.031 197.82C407.209 195.004 394.215 193.199 382.38 196.88C348.93 207.285 332.545 239.575 322.566 270.632C321.813 272.974 321.079 275.319 320.302 277.649C319.381 280.423 323.76 281.617 324.675 278.858Z" fill="#040606"/>
<defs>
<linearGradient id="paint0_linear_1_291" x1="366.675" y1="209.727" x2="219.279" y2="553.649" gradientUnits="userSpaceOnUse">
<stop stop-color="#C9E9A4"/>
<stop offset="0.293296" stop-color="#E57FC5"/>
<stop offset="0.46648" stop-color="#F57F9D"/>
<stop offset="0.667598" stop-color="#7A6BBC"/>
<stop offset="0.860335" stop-color="#86D7DF"/>
<stop offset="0.963687" stop-color="#9FDCA8"/>
<stop offset="1" stop-color="#9FDCA8"/>
</linearGradient>
</defs>
</svg>
