<svg width="677" height="677" viewBox="0 0 677 677" fill="none" xmlns="http://www.w3.org/2000/svg">
<g clip-path="url(#clip0_5_2)">
<mask id="mask0_5_2" style="mask-type:alpha" maskUnits="userSpaceOnUse" x="0" y="0" width="677" height="677">
<rect width="677" height="677" fill="#D9D9D9"/>
</mask>
<g mask="url(#mask0_5_2)">
<path d="M338.5 620.583C299.948 620.583 263.513 613.179 229.193 598.369C194.872 583.56 164.901 563.344 139.278 537.721C113.656 512.099 93.4399 482.127 78.6306 447.807C63.8212 413.487 56.4165 377.051 56.4165 338.5C56.4165 299.478 63.8212 262.925 78.6306 228.84C93.4399 194.755 113.656 164.901 139.278 139.279C164.901 113.656 194.872 93.4401 229.193 78.6308C263.513 63.8214 299.948 56.4167 338.5 56.4167C346.492 56.4167 353.192 59.12 358.598 64.5266C364.005 69.9332 366.708 76.6327 366.708 84.625C366.708 92.6174 364.005 99.3169 358.598 104.723C353.192 110.13 346.492 112.833 338.5 112.833C275.971 112.833 222.728 134.812 178.77 178.77C134.812 222.728 112.833 275.972 112.833 338.5C112.833 401.029 134.812 454.272 178.77 498.23C222.728 542.188 275.971 564.167 338.5 564.167C401.028 564.167 454.272 542.188 498.23 498.23C542.188 454.272 564.167 401.029 564.167 338.5C564.167 330.508 566.87 323.808 572.276 318.402C577.683 312.995 584.382 310.292 592.375 310.292C600.367 310.292 607.067 312.995 612.473 318.402C617.88 323.808 620.583 330.508 620.583 338.5C620.583 377.051 613.178 413.487 598.369 447.807C583.56 482.127 563.344 512.099 537.721 537.721C512.099 563.344 482.245 583.56 448.16 598.369C414.075 613.179 377.521 620.583 338.5 620.583Z" fill="black"/>
</g>
</g>
<defs>
<clipPath id="clip0_5_2">
<rect width="677" height="677" fill="white"/>
</clipPath>
</defs>
</svg>
