<svg width="677" height="677" viewBox="0 0 677 677" fill="none" xmlns="http://www.w3.org/2000/svg">
<mask id="mask0_2_322" style="mask-type:alpha" maskUnits="userSpaceOnUse" x="0" y="0" width="661" height="661">
<rect width="661" height="661" fill="#D9D9D9"/>
</mask>
<g mask="url(#mask0_2_322)">
<path d="M275.361 322.623C241.834 322.623 214.049 311.604 192.006 289.566C169.964 267.523 158.942 239.736 158.942 206.204C158.942 172.672 169.964 144.89 192.006 122.856C214.049 100.823 241.834 89.8063 275.361 89.8063C308.893 89.8063 336.74 100.823 358.902 122.856C381.068 144.89 392.151 172.672 392.151 206.204C392.151 239.736 381.068 267.523 358.902 289.566C336.74 311.604 308.893 322.623 275.361 322.623ZM44.1831 565.472V484.94C44.1831 465.982 49.1773 449.264 59.1658 434.786C69.1588 420.313 81.4998 409.547 96.1887 402.487C126.025 388.716 156.048 378.161 186.257 370.821C216.47 363.481 246.19 359.811 275.416 359.811H286.694C291.464 359.811 295.505 359.963 298.82 360.265C295.239 367.477 291.725 376.758 288.278 388.11C284.831 399.466 282.485 410.35 281.241 420.761H276.332C249.359 420.761 223.158 423.765 197.728 429.774C172.302 435.787 147.788 444.548 124.185 456.055C117.905 459.232 113.118 463.554 109.822 469.021C106.526 474.488 104.878 480.356 104.878 486.627V504.783H281.785C284.406 515.837 288.654 526.794 294.53 537.654C300.41 548.515 306.534 557.787 312.9 565.472H44.1831ZM457.88 589.274L450.388 543.776C444.04 541.829 437.643 539.089 431.199 535.554C424.759 532.024 419.163 528.026 414.412 523.56L374.167 533.978L349.62 491.825L383.049 461.543C381.869 457.6 381.346 452.457 381.479 446.113C381.608 439.769 382.131 434.711 383.049 430.937L349.62 400.263L374.167 358.503L414.412 368.659C419.163 364.367 424.759 360.412 431.199 356.795C437.643 353.173 444.04 350.477 450.388 348.705L457.88 302.951H509.183L516.915 348.705C523.089 350.477 529.463 353.19 536.036 356.843C542.609 360.497 548.269 364.589 553.015 369.12L592.875 358.503L617.814 400.724L583.993 431.399C585.343 435.057 585.953 440.065 585.824 446.423C585.696 452.776 585.085 457.816 583.993 461.543L617.814 491.825L592.875 533.978L553.015 523.56C548.269 528.026 542.609 532.024 536.036 535.554C529.463 539.089 523.089 541.829 516.915 543.776L509.183 589.274H457.88ZM483.714 498.793C498.885 498.793 511.425 493.824 521.336 483.886C531.246 473.948 536.201 461.334 536.201 446.044C536.201 430.758 531.244 418.167 521.329 408.271C511.414 398.374 498.866 393.426 483.686 393.426C468.506 393.426 455.904 398.381 445.878 408.291C435.853 418.202 430.841 430.742 430.841 445.913C430.841 461.291 435.86 473.948 445.899 483.886C455.938 493.824 468.543 498.793 483.714 498.793ZM275.361 261.935C291.257 261.935 304.537 256.617 315.2 245.981C325.863 235.35 331.195 222.077 331.195 206.163C331.195 190.184 325.884 176.911 315.262 166.345C304.635 155.782 291.372 150.501 275.471 150.501C259.575 150.501 246.295 155.796 235.632 166.386C224.969 176.971 219.637 190.186 219.637 206.032C219.637 221.983 224.948 235.288 235.57 245.947C246.197 256.606 259.46 261.935 275.361 261.935Z" fill="black"/>
</g>
</svg>
