<svg width="677" height="677" viewBox="0 0 677 677" fill="none" xmlns="http://www.w3.org/2000/svg">
<g clip-path="url(#clip0_43_49)">
<mask id="mask0_43_49" style="mask-type:alpha" maskUnits="userSpaceOnUse" x="0" y="0" width="677" height="677">
<rect width="677" height="677" fill="#D9D9D9"/>
</mask>
<g mask="url(#mask0_43_49)">
<path d="M197.459 648.792C181.944 648.792 168.663 643.267 157.614 632.219C146.566 621.171 141.042 607.89 141.042 592.375V84.625C141.042 69.1104 146.566 55.829 157.614 44.7807C168.663 33.7324 181.944 28.2083 197.459 28.2083H479.542C495.057 28.2083 508.338 33.7324 519.386 44.7807C530.435 55.829 535.959 69.1104 535.959 84.625V592.375C535.959 607.89 530.435 621.171 519.386 632.219C508.338 643.267 495.057 648.792 479.542 648.792H197.459ZM197.459 507.75V592.375H479.542V507.75H197.459ZM338.5 578.271C346.493 578.271 353.192 575.567 358.599 570.161C364.005 564.754 366.709 558.055 366.709 550.062C366.709 542.07 364.005 535.371 358.599 529.964C353.192 524.557 346.493 521.854 338.5 521.854C330.508 521.854 323.808 524.557 318.402 529.964C312.995 535.371 310.292 542.07 310.292 550.062C310.292 558.055 312.995 564.754 318.402 570.161C323.808 575.567 330.508 578.271 338.5 578.271ZM197.459 451.333H479.542V169.25H197.459V451.333ZM197.459 112.833H479.542V84.625H197.459V112.833Z" fill="black"/>
</g>
</g>
<defs>
<clipPath id="clip0_43_49">
<rect width="677" height="677" fill="white"/>
</clipPath>
</defs>
</svg>
