<svg width="677" height="677" viewBox="0 0 677 677" fill="none" xmlns="http://www.w3.org/2000/svg">
<g clip-path="url(#clip0_24_12)">
<mask id="mask0_24_12" style="mask-type:alpha" maskUnits="userSpaceOnUse" x="0" y="0" width="677" height="677">
<rect width="677" height="677" fill="#D9D9D9"/>
</mask>
<g mask="url(#mask0_24_12)">
<path d="M310.292 564.167V334.269L236.95 407.61L197.458 366.708L338.5 225.667L479.542 366.708L440.05 407.61L366.709 334.269V564.167H310.292ZM112.833 253.875V169.25C112.833 153.735 118.358 140.454 129.406 129.406C140.454 118.358 153.736 112.833 169.25 112.833H507.75C523.265 112.833 536.546 118.358 547.594 129.406C558.643 140.454 564.167 153.735 564.167 169.25V253.875H507.75V169.25H169.25V253.875H112.833Z" fill="black"/>
</g>
</g>
<defs>
<clipPath id="clip0_24_12">
<rect width="677" height="677" fill="white"/>
</clipPath>
</defs>
</svg>
