<svg width="677" height="677" viewBox="0 0 677 677" fill="none" xmlns="http://www.w3.org/2000/svg">
<g clip-path="url(#clip0_2_373)">
<mask id="mask0_2_373" style="mask-type:alpha" maskUnits="userSpaceOnUse" x="0" y="0" width="677" height="677">
<rect width="677" height="677" fill="#D9D9D9"/>
</mask>
<g mask="url(#mask0_2_373)">
<path d="M368.845 653.706V482.665L306.293 424.894L278.077 550.266L78.7782 509.385L89.5679 454.555L228.261 482.764L274.967 246.406L219.799 271.497V368.188H162.289V232.951L283.042 183.6C298.998 176.858 310.519 172.455 317.604 170.391C324.684 168.323 331.649 167.289 338.499 167.289C349.035 167.289 358.452 169.837 366.75 174.933C375.048 180.029 382.004 186.962 387.617 195.73L417.567 242.273C429.434 261.309 445.839 277.47 466.784 290.756C487.729 304.038 512.425 310.679 540.873 310.679V368.188C508.913 368.188 480.133 361.618 454.534 348.478C428.935 335.337 405.849 316.278 385.276 291.299L363.957 382.229L425.691 439.732V653.706H368.845ZM381.609 143.65C365.351 143.65 351.548 137.928 340.199 126.485C328.845 115.047 323.168 101.288 323.168 85.2094C323.168 68.952 328.845 55.1675 340.199 43.8559C351.548 32.5491 365.351 26.8957 381.609 26.8957C397.688 26.8957 411.38 32.5491 422.687 43.8559C433.994 55.1675 439.647 68.952 439.647 85.2094C439.647 101.288 433.994 115.047 422.687 126.485C411.38 137.928 397.688 143.65 381.609 143.65Z" fill="black"/>
</g>
</g>
<defs>
<clipPath id="clip0_2_373">
<rect width="677" height="677" fill="white"/>
</clipPath>
</defs>
</svg>
