<svg width="677" height="677" viewBox="0 0 677 677" fill="none" xmlns="http://www.w3.org/2000/svg">
<mask id="mask0_1_295" style="mask-type:luminance" maskUnits="userSpaceOnUse" x="155" y="62" width="356" height="365">
<path d="M495.174 260.019C489.32 252.872 482.687 246.417 475.682 240.406C461.294 228.068 445.471 217.551 430.82 205.538C415.807 193.227 402.45 179.211 394.13 161.46C384.451 140.81 380.301 117.489 366.521 98.8649C355.814 84.3956 340.635 73.6101 323.772 67.4664C308.777 61.9996 291.971 61.2138 275.362 63.435L274.743 63.3293C267.496 64.4595 259.993 66.1186 252.502 68.3186L251.832 68.518C251.192 68.7084 250.555 68.9018 249.915 69.1012C249.276 69.2977 248.64 69.5001 248.005 69.7026L247.34 69.9203C239.919 72.3439 232.792 75.2208 226.182 78.3878L225.727 78.8261C210.775 86.3902 197.363 96.5471 188.09 109.539C177.664 124.144 171.247 141.623 170.604 159.616C169.779 182.768 179.553 204.345 183.254 226.847C186.437 246.19 183.354 265.308 177.938 283.953C172.653 302.146 165.555 319.77 160.674 338.083C158.295 347.004 156.479 356.076 155.694 365.284C154.789 375.952 154.927 387.351 159.635 397.191C167.603 413.842 186.626 420.808 203.669 423.718C213.877 425.459 224.319 426.066 234.659 426.323C245.876 426.601 257.112 426.232 268.291 425.235C290.584 423.243 312.669 418.774 333.983 411.947C340.734 409.786 347.41 407.387 353.992 404.755C360.912 403.198 367.775 401.4 374.566 399.364C396.004 392.933 416.741 384.124 436.248 373.154C446.03 367.651 455.504 361.601 464.597 355.025C472.977 348.966 481.245 342.556 488.676 335.342C501.082 323.3 512.828 306.797 509.978 288.556C508.292 277.779 501.958 268.302 495.174 260.019Z" fill="white"/>
</mask>
<g mask="url(#mask0_1_295)">
<path d="M495.174 260.019C489.32 252.872 482.687 246.417 475.682 240.406C461.294 228.068 445.471 217.551 430.82 205.538C415.807 193.227 402.45 179.211 394.13 161.46C384.451 140.81 380.301 117.489 366.521 98.8649C355.814 84.3956 340.635 73.6101 323.772 67.4664C308.777 61.9996 291.971 61.2138 275.362 63.435L274.743 63.3293C267.496 64.4595 259.993 66.1186 252.502 68.3186L251.832 68.518C251.192 68.7084 250.555 68.9018 249.915 69.1012C249.276 69.2977 248.64 69.5001 248.005 69.7026L247.34 69.9203C239.919 72.3439 232.792 75.2208 226.182 78.3878L225.727 78.8261C210.775 86.3902 197.363 96.5471 188.09 109.539C177.664 124.144 171.247 141.623 170.604 159.616C169.779 182.768 179.553 204.345 183.254 226.847C186.437 246.19 183.354 265.308 177.938 283.953C172.653 302.146 165.555 319.77 160.674 338.083C158.295 347.004 156.479 356.076 155.694 365.284C154.789 375.952 154.927 387.351 159.635 397.191C167.603 413.842 186.626 420.808 203.669 423.718C213.877 425.459 224.319 426.066 234.659 426.323C245.876 426.601 257.112 426.232 268.291 425.235C290.584 423.243 312.669 418.774 333.983 411.947C340.734 409.786 347.41 407.387 353.992 404.755C360.912 403.198 367.775 401.4 374.566 399.364C396.004 392.933 416.741 384.124 436.248 373.154C446.03 367.651 455.504 361.601 464.597 355.025C472.977 348.966 481.245 342.556 488.676 335.342C501.082 323.3 512.828 306.797 509.978 288.556C508.292 277.779 501.958 268.302 495.174 260.019Z" fill="url(#paint0_linear_1_295)"/>
</g>
<path d="M496.775 258.417C471.3 227.66 432.73 211.184 408.068 179.688C396.185 164.512 390.64 146.616 384.049 128.801C377.793 111.899 369.679 96.1904 356.029 84.0571C342.859 72.3468 326.298 64.0786 308.852 61.3135C289.675 58.2704 270.059 60.7635 251.564 66.2333C234.685 71.2257 218.554 78.6024 204.599 89.4272C190.551 100.325 180.096 114.833 173.928 131.502C167.18 149.737 167.253 168.604 171.448 187.406C176 207.79 183.197 227.285 182.132 248.499C179.986 291.206 154.385 328.836 153.038 371.754C152.508 388.663 157.419 404.368 171.752 414.313C185.042 423.533 201.922 426.398 217.702 427.731C259.31 431.246 301.89 425.546 341.312 411.893C345.968 410.279 350.562 408.124 355.288 406.78C360.51 405.299 365.856 404.232 371.087 402.745C380.969 399.932 390.715 396.61 400.265 392.809C419.092 385.314 437.212 376.013 454.183 364.928C480.544 347.712 523.871 317.44 510.09 280.112C507.111 272.053 502.158 265.039 496.775 258.417C494.938 256.151 491.747 259.375 493.572 261.621C499.338 268.722 504.705 276.513 507.029 285.479C509.362 294.485 507.733 303.802 503.644 312.049C495.364 328.73 479.891 341.057 465.165 351.821C433.576 374.913 397.59 391.718 359.604 401.104C350.19 403.428 341.278 407.278 332.019 410.194C322.478 413.201 312.79 415.731 302.999 417.786C282.948 421.995 262.468 424.144 241.975 424.147C212.068 424.153 163.757 422.316 158.138 384.178C155.291 364.828 160.778 344.418 166.544 326.101C172.653 306.697 180.382 287.692 184.259 267.653C186.122 258.043 187.134 248.218 186.709 238.424C186.302 229.062 184.413 219.896 182.123 210.833C177.448 192.314 171.343 173.859 173.21 154.491C174.967 136.323 182.817 118.245 194.929 104.58C206.366 91.6696 221.753 82.1352 237.685 75.8101C271.322 62.4559 310.182 58.5514 341.88 78.962C356.953 88.6717 367.981 102.434 375.188 118.765C382.263 134.8 386.309 152.134 394.698 167.597C412.44 200.298 446.148 218.195 473.539 241.549C480.753 247.698 487.522 254.317 493.572 261.621C495.434 263.869 498.625 260.648 496.775 258.417Z" fill="#040606"/>
<mask id="mask1_1_295" style="mask-type:luminance" maskUnits="userSpaceOnUse" x="155" y="62" width="356" height="365">
<path d="M495.174 260.019C489.32 252.872 482.687 246.417 475.682 240.406C461.294 228.068 445.471 217.551 430.82 205.538C415.807 193.227 402.45 179.211 394.13 161.46C384.448 140.81 380.301 117.489 366.521 98.8649C355.814 84.3956 340.635 73.6101 323.772 67.4664C308.777 61.9996 291.971 61.2138 275.362 63.435L274.743 63.3293C267.496 64.4595 259.993 66.1186 252.502 68.3186L251.832 68.518C251.192 68.7084 250.555 68.9018 249.915 69.1012C249.277 69.2977 248.64 69.5001 248.005 69.7026L247.341 69.9203C239.919 72.3409 232.791 75.2208 226.182 78.3878L225.727 78.8231C210.775 86.3902 197.363 96.5471 188.09 109.539C177.664 124.144 171.247 141.623 170.605 159.616C169.779 182.768 179.553 204.345 183.254 226.847C186.437 246.19 183.354 265.308 177.938 283.953C172.653 302.146 165.555 319.77 160.674 338.083C158.295 347.004 156.479 356.076 155.694 365.284C154.789 375.952 154.928 387.351 159.635 397.191C167.603 413.842 186.626 420.808 203.669 423.718C213.877 425.459 224.319 426.066 234.659 426.323C245.876 426.601 257.112 426.232 268.291 425.235C290.584 423.243 312.669 418.774 333.983 411.947C340.734 409.786 347.41 407.387 353.992 404.755C360.912 403.198 367.775 401.4 374.566 399.364C396.004 392.933 416.741 384.124 436.248 373.154C446.03 367.651 455.504 361.601 464.597 355.022C472.977 348.966 481.245 342.553 488.676 335.342C501.082 323.3 512.828 306.797 509.978 288.556C508.292 277.779 501.958 268.302 495.174 260.019Z" fill="white"/>
</mask>
<g mask="url(#mask1_1_295)">
<path d="M224.047 124.821C229.262 141.644 219.853 159.51 203.031 164.726C186.207 169.942 168.341 160.535 163.125 143.711C157.909 126.888 167.317 109.022 184.141 103.806C200.963 98.59 218.829 107.997 224.047 124.821Z" fill="white"/>
<path d="M221.861 125.422C225.363 137.275 221.483 150.269 211.564 157.842C201.687 165.382 187.844 165.811 177.445 159.109C166.965 152.357 161.795 139.209 164.829 127.127C167.819 115.223 178.123 106.112 190.368 104.8C204.398 103.295 217.531 112.089 221.861 125.422C222.758 128.187 227.138 127.003 226.231 124.22C221.826 110.642 209.661 100.929 195.315 100.149C181.084 99.3757 167.593 107.982 162.1 121.074C156.538 134.31 160.051 150.221 170.849 159.758C181.497 169.16 197.091 171.051 209.663 164.406C224.059 156.803 230.803 139.677 226.231 124.22C225.408 121.427 221.031 122.615 221.861 125.422Z" fill="#040606"/>
<path d="M453.413 181.532C458.629 198.355 449.221 216.221 432.398 221.437C415.574 226.653 397.708 217.243 392.492 200.422C387.276 183.599 396.684 165.733 413.507 160.517C430.331 155.301 448.197 164.708 453.413 181.532Z" fill="white"/>
<path d="M451.228 182.133C454.73 193.985 450.85 206.98 440.929 214.553C431.053 222.093 417.212 222.522 406.81 215.819C396.333 209.068 391.159 195.92 394.196 183.838C397.185 171.934 407.49 162.823 419.732 161.511C433.767 160.006 446.9 168.8 451.228 182.133C452.125 184.898 456.501 183.714 455.598 180.93C451.188 167.353 439.028 157.64 424.682 156.86C410.452 156.084 396.962 164.696 391.465 177.784C385.907 191.021 389.419 206.932 400.216 216.466C410.863 225.871 426.456 227.762 439.028 221.117C453.425 213.514 460.167 196.388 455.598 180.93C454.773 178.138 450.4 179.326 451.228 182.133Z" fill="#040606"/>
<path d="M515.738 314.841C520.951 331.665 511.544 349.531 494.723 354.747C477.897 359.963 460.031 350.555 454.818 333.732C449.599 316.908 459.006 299.042 475.833 293.826C492.653 288.61 510.52 298.018 515.738 314.841Z" fill="white"/>
<path d="M513.55 315.446C517.053 327.295 513.173 340.292 503.254 347.863C493.376 355.402 479.535 355.832 469.136 349.129C458.656 342.381 453.485 329.229 456.519 317.147C459.508 305.246 469.816 296.135 482.058 294.823C496.089 293.319 509.223 302.113 513.55 315.446C514.448 318.208 518.827 317.023 517.923 314.237C513.517 300.662 501.351 290.949 487.005 290.173C472.775 289.396 459.284 298.003 453.79 311.094C448.23 324.33 451.741 340.244 462.539 349.779C473.189 359.18 488.782 361.072 501.354 354.429C515.75 346.823 522.493 329.7 517.923 314.237C517.098 311.448 512.722 312.635 513.55 315.446Z" fill="#040606"/>
<path d="M195.588 408.39C200.807 425.211 191.399 443.077 174.574 448.296C157.752 453.509 139.886 444.101 134.668 427.281C129.454 410.454 138.861 392.588 155.683 387.375C172.508 382.156 190.374 391.564 195.588 408.39Z" fill="white"/>
<path d="M193.406 408.992C196.908 420.841 193.028 433.839 183.106 441.409C173.232 448.952 159.39 449.378 148.987 442.675C138.507 435.927 133.336 422.775 136.374 410.693C139.364 398.792 149.666 389.681 161.911 388.37C175.943 386.865 189.076 395.659 193.406 408.992C194.302 411.754 198.679 410.569 197.776 407.786C193.367 394.208 181.205 384.495 166.859 383.719C152.629 382.942 139.138 391.552 133.641 404.64C128.083 417.876 131.593 433.79 142.394 443.325C153.038 452.729 168.634 454.621 181.205 447.975C195.6 440.372 202.344 423.246 197.776 407.786C196.949 404.997 192.574 406.181 193.406 408.992Z" fill="#040606"/>
<path d="M330.707 68.8505C335.926 85.674 326.516 103.54 309.692 108.756C292.872 113.972 275.006 104.564 269.787 87.741C264.574 70.9175 273.981 53.0515 290.802 47.8355C307.625 42.6195 325.491 52.027 330.707 68.8505Z" fill="white"/>
<path d="M328.523 69.4518C332.025 81.3041 328.145 94.3017 318.224 101.872C308.348 109.415 294.51 109.841 284.105 103.141C273.628 96.3899 268.457 83.2381 271.491 71.1562C274.483 59.2525 284.785 50.1443 297.03 48.8327C311.058 47.3277 324.192 56.1187 328.523 69.4518C329.42 72.2169 333.799 71.0353 332.895 68.2491C328.486 54.6712 316.326 44.9585 301.977 44.1788C287.747 43.4051 274.256 52.0148 268.759 65.1031C263.199 78.3395 266.714 94.2533 277.511 103.788C288.158 113.189 303.751 115.081 316.326 108.439C330.72 100.832 337.465 83.7096 332.895 68.2491C332.07 65.4567 327.691 66.6444 328.523 69.4518Z" fill="#040606"/>
<path d="M219.688 276.9C224.907 293.721 215.495 311.587 198.673 316.806C181.851 322.022 163.985 312.611 158.767 295.791C153.553 278.967 162.96 261.098 179.783 255.885C196.605 250.666 214.471 260.077 219.688 276.9Z" fill="white"/>
<path d="M217.501 277.501C221.005 289.354 217.124 302.348 207.205 309.921C197.331 317.461 183.489 317.887 173.086 311.188C162.607 304.436 157.436 291.288 160.469 279.206C163.463 267.302 173.765 258.194 186.01 256.879C200.04 255.374 213.173 264.168 217.501 277.501C218.399 280.264 222.778 279.085 221.875 276.299C217.466 262.721 205.305 253.008 190.955 252.228C176.724 251.455 163.235 260.065 157.74 273.153C152.182 286.389 155.692 302.3 166.49 311.837C177.139 321.239 192.733 323.131 205.305 316.488C219.699 308.882 226.444 291.756 221.875 276.299C221.049 273.506 216.673 274.691 217.501 277.501Z" fill="#040606"/>
<path d="M348.304 273.271C353.517 290.091 344.11 307.957 327.286 313.176C310.466 318.389 292.6 308.982 287.381 292.161C282.165 275.335 291.575 257.469 308.399 252.256C325.219 247.04 343.085 256.447 348.304 273.271Z" fill="white"/>
<path d="M346.117 273.872C349.619 285.724 345.739 298.719 335.821 306.292C325.942 313.832 312.104 314.261 301.702 307.558C291.222 300.807 286.051 287.661 289.085 275.573C292.077 263.673 302.379 254.561 314.624 253.25C328.656 251.745 341.786 260.539 346.117 273.872C347.014 276.634 351.393 275.453 350.489 272.669C346.08 259.091 333.92 249.379 319.571 248.599C305.341 247.822 291.851 256.432 286.357 269.523C280.796 282.76 284.308 298.671 295.105 308.205C305.755 317.609 321.348 319.501 333.92 312.856C348.317 305.252 355.059 288.127 350.489 272.669C349.664 269.877 345.289 271.065 346.117 273.872Z" fill="#040606"/>
</g>
<mask id="mask2_1_295" style="mask-type:luminance" maskUnits="userSpaceOnUse" x="190" y="272" width="290" height="129">
<path d="M478.368 292.055C486.165 317.198 428.279 357.491 349.078 382.048C269.878 406.607 199.352 406.133 191.555 380.987C183.758 355.844 241.642 315.551 320.847 290.992C400.047 266.435 470.572 266.909 478.368 292.055Z" fill="white"/>
</mask>
<g mask="url(#mask2_1_295)">
<path d="M478.368 292.055C486.165 317.198 428.279 357.491 349.078 382.048C269.878 406.607 199.352 406.133 191.555 380.987C183.758 355.844 241.642 315.551 320.847 290.992C400.047 266.435 470.572 266.909 478.368 292.055Z" fill="url(#paint1_linear_1_295)"/>
</g>
<path d="M476.18 292.657C479.837 305.077 467.117 317.359 458.873 324.66C442.041 339.576 421.576 350.522 401.247 359.848C374.402 372.169 346.123 381.582 317.386 388.351C291.512 394.447 264.625 398.768 237.959 397.768C228.804 397.427 219.514 396.453 210.753 393.649C205.024 391.812 198.744 388.965 195.338 383.737C188.314 372.948 199.107 360.035 206.414 352.731C221.518 337.636 240.88 326.703 259.899 317.359C285.882 304.588 313.4 294.818 341.387 287.468C368.032 280.469 395.617 275.401 423.235 275.156C433.316 275.066 443.537 275.58 453.394 277.828C459.952 279.324 467.054 281.566 472.043 286.308C473.917 288.088 475.373 290.188 476.18 292.657C477.084 295.416 481.463 294.234 480.553 291.451C475.839 277.042 457.172 273.289 444.138 271.681C418.348 268.511 391.607 272.062 366.288 277.075C334.999 283.264 304.274 292.856 274.976 305.461C252.447 315.156 230.014 326.712 211.042 342.435C201.099 350.676 187.486 363.375 188.651 377.711C189.843 392.386 206.647 398.046 218.859 400.31C243.182 404.818 268.907 402.008 293.077 397.91C324.675 392.549 355.772 383.495 385.49 371.522C409.192 361.966 432.745 350.561 453.204 335.089C464.524 326.524 479.344 314.418 481.17 299.221C481.487 296.6 481.297 293.983 480.553 291.451C479.731 288.659 475.355 289.846 476.18 292.657Z" fill="#040606"/>
<path d="M262.005 390.31C265.765 383.377 270.715 377.209 276.683 372.051C279.581 369.549 282.715 367.324 286.021 365.387C288.883 363.713 293.525 360.516 296.816 362.658C299.264 364.254 301.539 360.328 299.1 358.742C295.142 356.164 290.451 357.899 286.641 359.872C282.621 361.954 278.859 364.472 275.332 367.303C268.276 372.96 262.401 380.077 258.09 388.022C256.699 390.588 260.612 392.878 262.005 390.31Z" fill="#040606"/>
<path d="M216.044 377.073C225.909 365.49 239.429 357.793 254.202 354.375C262.812 352.381 271.703 351.864 280.506 352.474C285.06 352.786 289.578 353.417 294.048 354.33C297.589 355.052 302.464 355.572 304.208 359.195C305.471 361.824 309.381 359.528 308.121 356.911C304.739 349.878 293.549 349.434 286.904 348.579C277.022 347.307 267.004 347.4 257.185 349.147C240.161 352.175 224.106 360.637 212.839 373.87C210.959 376.076 214.149 379.301 216.044 377.073Z" fill="#040606"/>
<path d="M263.347 334.134C287.097 327.809 306.459 347.086 317.411 365.762C318.885 368.276 322.805 365.998 321.324 363.474C315.129 352.909 307.42 342.937 297.045 336.189C286.813 329.537 274.072 326.585 262.141 329.764C259.325 330.513 260.521 334.886 263.347 334.134Z" fill="#040606"/>
<path d="M427.744 335.563C419.019 331.127 409.497 328.522 399.712 328.008C395.103 327.766 390.38 327.942 385.832 328.752C381.976 329.444 378.612 331.16 377.05 334.892C375.926 337.582 380.311 338.757 381.423 336.101C382.68 333.088 387.99 332.916 390.643 332.689C394.484 332.36 398.346 332.372 402.184 332.716C410.283 333.445 418.213 335.793 425.456 339.48C428.049 340.797 430.349 336.89 427.744 335.563Z" fill="#040606"/>
<path d="M457.06 298.241C439.185 293.433 420.273 296.066 403.734 304.11C396.167 307.794 389.162 312.593 382.798 318.087C379.377 321.036 376.077 324.188 373.079 327.576C370.45 330.541 368.159 333.823 368.706 337.957C369.084 340.806 373.62 340.846 373.239 337.957C372.653 333.526 376.841 330.063 379.679 327.195C382.29 324.56 385.025 322.049 387.893 319.701C393.776 314.875 400.244 310.728 407.134 307.495C422.283 300.378 439.62 298.245 455.851 302.614C458.674 303.373 459.877 299 457.06 298.241Z" fill="#040606"/>
<path d="M390.455 289.976C379.806 293.745 371.462 302.025 366.527 312.088C360.607 324.167 359.649 337.908 360.583 351.135C360.789 354.027 365.322 354.052 365.116 351.135C363.599 329.646 368.534 302.536 391.658 294.346C394.39 293.379 393.215 289 390.455 289.976Z" fill="#040606"/>
<path d="M296.535 319.241C305.495 321.254 310.665 329.392 313.959 337.343C317.758 346.509 320.925 355.977 324.361 365.288C325.361 367.998 329.743 366.829 328.731 364.082C324.947 353.825 321.605 343.248 317.105 333.279C313.331 324.92 307.118 316.975 297.737 314.869C294.897 314.231 293.682 318.604 296.535 319.241Z" fill="#040606"/>
<path d="M352.52 297.782C346.059 304.793 345.276 314.355 346.718 323.381C348.468 334.333 351.916 345.158 354.633 355.901C355.349 358.724 359.722 357.53 359.005 354.692C356.609 345.23 353.953 335.79 351.874 326.252C350.024 317.754 349.392 307.86 355.727 300.988C357.7 298.846 354.503 295.63 352.52 297.782Z" fill="#040606"/>
<path d="M322.669 307.008C326.111 318.818 329.553 330.631 332.995 342.441C333.811 345.24 338.187 344.052 337.365 341.239C333.926 329.429 330.481 317.616 327.039 305.8C326.226 303.007 321.85 304.195 322.669 307.008Z" fill="#040606"/>
<mask id="mask3_1_295" style="mask-type:luminance" maskUnits="userSpaceOnUse" x="295" y="329" width="228" height="284">
<path d="M515.92 511.852C510.211 501.755 500.795 494.56 491.284 487.914C481.481 481.066 471.883 474.031 462.85 466.271C421.754 430.965 391.734 384.465 380.885 331.873C380.637 330.671 379.262 329.972 378.074 329.975C361.87 330.015 345.18 334.028 329.734 338.869C322.415 341.163 315.135 343.816 308.29 347.276C303.845 349.528 298.955 352.281 296.332 356.566C295.966 357.167 295.864 357.739 295.939 358.258C295.909 358.527 295.9 358.805 295.948 359.105C304.434 408.965 299.626 460.29 308.16 510.144C312.234 533.942 319.378 558.572 333.276 578.695C345.651 596.619 364.971 607.936 387.192 611.556C412.177 615.63 437.864 609.731 461.545 601.152C480.188 594.394 499.413 584.872 511.529 569.046C524.475 552.135 526.083 529.808 515.92 511.852Z" fill="white"/>
</mask>
<g mask="url(#mask3_1_295)">
<path d="M515.92 511.852C510.211 501.755 500.795 494.56 491.284 487.914C481.481 481.066 471.883 474.031 462.85 466.271C421.754 430.965 391.734 384.465 380.885 331.873C380.637 330.671 379.262 329.972 378.074 329.975C361.87 330.015 345.18 334.028 329.734 338.869C322.415 341.163 315.135 343.816 308.29 347.276C303.845 349.528 298.955 352.281 296.332 356.566C295.966 357.167 295.864 357.739 295.939 358.258C295.909 358.527 295.9 358.805 295.948 359.105C304.434 408.965 299.626 460.29 308.16 510.144C312.234 533.942 319.378 558.572 333.276 578.695C345.651 596.619 364.971 607.936 387.192 611.556C412.177 615.63 437.864 609.731 461.545 601.152C480.188 594.394 499.413 584.872 511.529 569.046C524.475 552.135 526.083 529.808 515.92 511.852Z" fill="url(#paint2_linear_1_295)"/>
</g>
<path d="M517.878 510.706C511.236 499.344 500.634 491.752 490.079 484.312C477.939 475.754 466.211 466.691 455.374 456.516C436.444 438.746 420.029 418.287 407.3 395.635C400.945 384.317 395.502 372.486 391.166 360.247C389.026 354.206 387.14 348.071 385.532 341.864C384.726 338.742 384.088 335.584 383.32 332.457C382.782 330.281 381.936 328.573 379.582 327.918C376.624 327.093 372.716 327.827 369.709 328.066C366.225 328.341 362.753 328.776 359.302 329.32C351.831 330.489 344.451 332.23 337.177 334.282C324.567 337.842 310.088 341.78 299.545 349.909C297.487 351.495 295.187 353.514 294.147 355.962C293.074 358.491 294.063 361.444 294.465 364.027C295.698 371.984 296.598 379.99 297.293 388.013C298.635 403.519 299.203 419.076 299.771 434.624C300.874 464.739 302.041 495.076 308.704 524.577C314.319 549.445 324.035 576.462 343.648 593.805C363.17 611.07 389.597 616.972 415.106 614.615C429.829 613.258 444.235 609.565 458.181 604.739C470.333 600.538 482.394 595.564 493.206 588.535C513.889 575.084 528.407 553.096 523.97 527.645C522.934 521.679 520.794 516.001 517.878 510.706C516.47 508.15 512.553 510.434 513.964 512.994C519.879 523.737 521.791 536.236 518.972 548.212C516.149 560.216 508.927 570.285 499.625 578.184C490.245 586.147 479.03 591.859 467.667 596.407C454.999 601.475 441.829 605.618 428.418 608.175C403.217 612.983 376.128 611.076 354.367 596.416C333.37 582.267 322.336 557.695 315.755 534.042C300.499 479.22 307.39 421.527 299.269 365.705C299.025 364.021 298.729 362.344 298.493 360.664C298.166 358.331 298.514 357.158 300.082 355.433C302.331 352.964 305.474 351.287 308.399 349.764C314.392 346.642 320.705 344.206 327.111 342.091C340.674 337.612 354.738 333.883 369.008 332.659C371.94 332.405 377.597 331.054 379.074 334.252C380.25 336.793 380.456 340.335 381.163 343.067C382.671 348.887 384.42 354.647 386.397 360.319C390.208 371.25 394.852 381.894 400.238 392.135C411.265 413.087 425.435 432.364 441.799 449.459C450.442 458.489 459.71 466.93 469.52 474.675C479.961 482.919 491.499 489.87 501.571 498.552C506.437 502.74 510.716 507.436 513.964 512.994C515.436 515.511 519.356 513.233 517.878 510.706Z" fill="#040606"/>
<path d="M360.223 167.292L360.25 167.204L360.148 167.235C358.322 165.845 339.921 152.097 319.1 147.779C298.925 143.6 279.312 149.387 277.015 150.1L276.985 150.003C276.985 150.003 255.935 156.153 240.748 171.967C226.018 187.307 218.623 209.056 217.909 211.232L217.802 211.265L217.879 211.323L217.849 211.413L217.952 211.38C219.776 212.773 238.177 226.52 259.004 230.836C279.176 235.018 298.789 229.231 301.086 228.518L301.113 228.615C301.113 228.615 322.164 222.465 337.353 206.648C352.082 191.308 359.477 169.562 360.193 167.383L360.296 167.35L360.223 167.292Z" fill="white"/>
<path d="M362.408 167.897L362.435 167.806C362.961 166.177 361.263 164.518 359.649 165.017C361.066 164.579 361.499 165.407 359.942 164.282C359.075 163.654 358.196 163.043 357.31 162.442C354.536 160.565 351.683 158.8 348.773 157.144C340.988 152.717 332.69 148.979 324.032 146.634C308.722 142.491 291.563 143.255 276.414 147.915C277.342 148.441 278.273 148.97 279.2 149.496L279.173 149.402C278.814 148.248 277.59 147.459 276.384 147.818C262.616 151.886 249.064 160.046 239.145 170.366C228.45 181.493 220.562 196.01 215.721 210.631C216.25 210.102 216.778 209.576 217.307 209.047L217.2 209.081C215.178 209.709 215.158 212.063 216.661 213.224L216.734 213.281C216.386 212.426 216.041 211.574 215.693 210.721L215.663 210.812C215.138 212.438 216.84 214.1 218.452 213.598C217.035 214.04 216.601 213.209 218.157 214.336C219.024 214.964 219.904 215.572 220.793 216.173C223.565 218.053 226.418 219.818 229.327 221.474C237.112 225.898 245.41 229.639 254.07 231.981C269.376 236.124 286.538 235.363 301.687 230.703C300.756 230.177 299.829 229.648 298.898 229.119L298.928 229.216C299.288 230.367 300.509 231.156 301.717 230.8C315.483 226.729 329.036 218.57 338.954 208.252C349.649 197.125 357.54 182.605 362.378 167.987C361.849 168.513 361.323 169.042 360.794 169.568L360.9 169.538C362.922 168.909 362.94 166.552 361.441 165.394L361.366 165.337C359.057 163.557 356.796 167.492 359.078 169.251L359.15 169.308C359.335 167.927 359.516 166.546 359.694 165.165C357.927 165.712 357.63 167.927 357.062 169.456C355.986 172.354 354.781 175.207 353.478 178.008C349.347 186.881 344.282 195.484 337.782 202.834C328.16 213.722 314.5 222.296 300.512 226.43C301.442 226.956 302.37 227.484 303.301 228.01L303.268 227.914C302.914 226.771 301.687 225.961 300.481 226.333C284.806 231.153 267.276 231.546 251.638 226.536C243.312 223.867 235.407 219.96 227.958 215.399C225.655 213.988 223.392 212.513 221.187 210.951C220.042 210.141 218.786 208.751 217.248 209.229C218.177 210.159 219.107 211.087 220.034 212.018L220.063 211.924C220.403 210.876 219.807 209.969 219.021 209.368L218.948 209.31C218.767 210.688 218.588 212.069 218.404 213.45C220.173 212.903 220.47 210.691 221.041 209.159C222.117 206.261 223.321 203.414 224.622 200.61C228.751 191.734 233.818 183.134 240.318 175.784C249.943 164.896 263.601 156.322 277.587 152.188C276.662 151.663 275.731 151.134 274.8 150.605L274.831 150.701C275.184 151.847 276.417 152.657 277.62 152.285C293.292 147.462 310.826 147.072 326.462 152.083C334.79 154.751 342.696 158.658 350.142 163.219C352.445 164.63 354.708 166.105 356.911 167.664C358.056 168.477 359.314 169.864 360.855 169.39C359.924 168.459 358.996 167.531 358.066 166.6L358.035 166.691C357.138 169.474 361.514 170.665 362.408 167.897Z" fill="#040606"/>
<mask id="mask4_1_295" style="mask-type:luminance" maskUnits="userSpaceOnUse" x="252" y="152" width="74" height="74">
<path d="M254.432 199.806C248.516 180.725 259.186 160.456 278.27 154.539C297.35 148.622 317.616 159.296 323.533 178.38C329.45 197.461 318.78 217.726 299.699 223.643C280.615 229.56 260.349 218.89 254.432 199.806Z" fill="white"/>
</mask>
<g mask="url(#mask4_1_295)">
<path d="M254.432 199.806C248.516 180.725 259.186 160.456 278.27 154.539C297.35 148.622 317.616 159.296 323.533 178.38C329.45 197.461 318.78 217.726 299.699 223.643C280.615 229.56 260.349 218.89 254.432 199.806Z" fill="url(#paint3_linear_1_295)"/>
</g>
<path d="M256.616 199.204C252.606 185.633 257.068 170.743 268.439 162.085C279.735 153.485 295.555 152.986 307.447 160.65C319.45 168.38 325.373 183.43 321.895 197.27C318.471 210.909 306.655 221.325 292.633 222.821C276.58 224.532 261.567 214.453 256.616 199.204C255.719 196.439 251.34 197.624 252.246 200.407C257.204 215.674 270.887 226.611 287.021 227.487C303.044 228.358 318.233 218.681 324.422 203.94C330.683 189.032 326.715 171.127 314.561 160.393C302.588 149.822 285.036 147.694 270.899 155.165C254.69 163.729 247.098 182.997 252.246 200.407C253.072 203.199 257.446 202.012 256.616 199.204Z" fill="#040606"/>
<path d="M276.49 192.967C274.35 186.068 278.209 178.74 285.109 176.6C292.011 174.46 299.336 178.319 301.476 185.219C303.615 192.118 299.756 199.446 292.857 201.586C285.958 203.725 278.629 199.866 276.49 192.967Z" fill="#040606"/>
<path d="M278.678 192.363C277.412 188.08 278.726 183.381 282.286 180.577C285.931 177.706 291.065 177.567 294.927 180.057C298.717 182.499 300.584 187.304 299.487 191.664C298.408 195.971 294.743 199.307 290.303 199.839C285.163 200.458 280.267 197.261 278.678 192.363C277.78 189.6 273.398 190.782 274.305 193.568C276.302 199.724 281.778 204.07 288.273 204.423C294.646 204.768 300.666 200.854 303.12 195.019C305.601 189.12 304.084 181.955 299.255 177.691C294.422 173.427 287.426 172.559 281.715 175.575C275.296 178.966 272.268 186.678 274.305 193.568C275.13 196.361 279.506 195.173 278.678 192.363Z" fill="#040606"/>
<path d="M286.758 178.634C285.407 174.276 287.846 169.646 292.204 168.295C296.562 166.945 301.191 169.383 302.539 173.741C303.89 178.099 301.454 182.726 297.096 184.076C292.739 185.427 288.112 182.991 286.758 178.634Z" fill="white"/>
<path d="M288.946 178.032L288.771 177.386C288.78 177.419 288.647 176.715 288.698 177.041C288.747 177.365 288.668 176.669 288.668 176.7L288.653 176.056L288.671 175.633C288.674 175.569 288.783 174.899 288.689 175.4C288.768 174.986 288.865 174.581 288.998 174.182L289.137 173.789C288.964 174.24 289.227 173.617 289.252 173.575C289.409 173.264 289.599 172.977 289.777 172.68C290.11 172.13 289.508 172.955 289.928 172.472L290.206 172.161L290.651 171.716C290.669 171.698 291.183 171.263 290.841 171.529C291.122 171.311 291.427 171.121 291.736 170.946L292.316 170.65C291.965 170.813 292.397 170.619 292.488 170.589C292.839 170.465 293.195 170.366 293.558 170.287C293.664 170.266 294.135 170.19 293.709 170.245L294.458 170.193C294.848 170.184 295.238 170.196 295.625 170.248C295.163 170.184 296.121 170.372 296.257 170.411L296.655 170.532C296.698 170.547 297.329 170.804 296.888 170.607C297.269 170.777 297.635 170.976 297.982 171.2L298.266 171.384L298.523 171.602L299.263 172.345C299.711 172.819 299.061 172.006 299.433 172.55L299.671 172.904L299.995 173.463C300.028 173.53 300.282 174.068 300.131 173.714C300.291 174.089 300.406 174.484 300.499 174.88L300.611 175.418C300.527 174.938 300.626 175.624 300.629 175.675C300.654 176.032 300.654 176.385 300.626 176.739L300.59 177.162C300.657 176.66 300.502 177.5 300.478 177.591C300.394 177.927 300.288 178.259 300.164 178.582C300.315 178.192 300.146 178.613 300.094 178.706L299.85 179.166L299.52 179.694C299.484 179.752 299.269 180.042 299.502 179.74C299.248 180.069 298.955 180.374 298.65 180.658C298.626 180.683 298.094 181.124 298.457 180.843L298.112 181.091C297.783 181.311 297.438 181.502 297.082 181.677C296.722 181.855 297.571 181.523 296.918 181.749L296.386 181.925L295.849 182.064L295.419 182.148L295.483 182.139C295.057 182.185 294.631 182.194 294.202 182.169L293.676 182.127C294.168 182.191 293.443 182.064 293.349 182.04L292.845 181.904L292.334 181.734C292.63 181.855 292.014 181.574 292.035 181.586L291.403 181.227C291.031 180.994 290.306 180.38 289.947 179.933C289.53 179.416 289.131 178.604 288.946 178.032C288.569 176.866 287.375 176.113 286.157 176.449C285.015 176.763 284.196 178.066 284.576 179.235C285.958 183.49 289.714 186.461 294.202 186.702C298.562 186.941 302.666 184.227 304.343 180.25C306.033 176.234 305.026 171.311 301.726 168.395C298.384 165.446 293.591 164.838 289.638 166.93C285.262 169.238 283.186 174.539 284.576 179.235C284.921 180.411 286.166 181.148 287.363 180.819C288.529 180.498 289.294 179.208 288.946 178.032Z" fill="#040606"/>
<path d="M324.963 488.346C324.053 507.648 329.565 528.222 337.836 545.45C344.781 559.922 354.947 574.987 368.927 583.44C380.425 590.396 394.103 593.025 407.406 593.122C415.354 593.174 423.619 592.53 431.358 590.59C434.187 589.88 432.987 585.507 430.156 586.217C412.71 590.596 391.698 589.834 375.472 581.853C361.121 574.794 351.043 560.962 343.741 547.115C337.395 535.088 333.228 521.957 331.034 508.548C329.952 501.942 329.178 495.058 329.496 488.346C329.632 485.43 325.099 485.436 324.963 488.346Z" fill="#040606"/>
<path d="M466.196 501.19C476.307 506.774 486.993 514.194 493.714 523.713C497.779 529.47 500.06 537.399 498.975 544.444C497.534 553.8 489.731 560.119 482.128 564.764C479.644 566.284 481.916 570.206 484.415 568.677C491.106 564.588 497.779 559.451 501.236 552.204C503.916 546.583 504.224 540.449 502.998 534.408C500.244 520.869 489.819 511.643 478.997 503.979C475.612 501.583 472.116 499.283 468.483 497.276C465.927 495.862 463.642 499.776 466.196 501.19Z" fill="#040606"/>
<defs>
<linearGradient id="paint0_linear_1_295" x1="328.447" y1="280.022" x2="306.583" y2="4.67134" gradientUnits="userSpaceOnUse">
<stop stop-color="#C9E9A4"/>
<stop offset="0.293296" stop-color="#E57FC5"/>
<stop offset="0.46648" stop-color="#F57F9D"/>
<stop offset="0.667598" stop-color="#7A6BBC"/>
<stop offset="0.860335" stop-color="#86D7DF"/>
<stop offset="0.963687" stop-color="#9FDCA8"/>
<stop offset="1" stop-color="#9FDCA8"/>
</linearGradient>
<linearGradient id="paint1_linear_1_295" x1="319.024" y1="256.015" x2="345.105" y2="387.762" gradientUnits="userSpaceOnUse">
<stop stop-color="#C9E9A4"/>
<stop offset="0.293296" stop-color="#E57FC5"/>
<stop offset="0.46648" stop-color="#F57F9D"/>
<stop offset="0.667598" stop-color="#7A6BBC"/>
<stop offset="0.860335" stop-color="#86D7DF"/>
<stop offset="0.963687" stop-color="#9FDCA8"/>
<stop offset="1" stop-color="#9FDCA8"/>
</linearGradient>
<linearGradient id="paint2_linear_1_295" x1="441.965" y1="175.376" x2="395.465" y2="563.89" gradientUnits="userSpaceOnUse">
<stop stop-color="#C9E9A4"/>
<stop offset="0.293296" stop-color="#E57FC5"/>
<stop offset="0.46648" stop-color="#F57F9D"/>
<stop offset="0.667598" stop-color="#7A6BBC"/>
<stop offset="0.860335" stop-color="#86D7DF"/>
<stop offset="0.963687" stop-color="#9FDCA8"/>
<stop offset="1" stop-color="#9FDCA8"/>
</linearGradient>
<linearGradient id="paint3_linear_1_295" x1="252.946" y1="97.1455" x2="293.256" y2="199.992" gradientUnits="userSpaceOnUse">
<stop stop-color="#C9E9A4"/>
<stop offset="0.293296" stop-color="#E57FC5"/>
<stop offset="0.46648" stop-color="#F57F9D"/>
<stop offset="0.667598" stop-color="#7A6BBC"/>
<stop offset="0.860335" stop-color="#86D7DF"/>
<stop offset="0.963687" stop-color="#9FDCA8"/>
<stop offset="1" stop-color="#9FDCA8"/>
</linearGradient>
</defs>
</svg>
