<svg width="677" height="677" viewBox="0 0 677 677" fill="none" xmlns="http://www.w3.org/2000/svg">
<mask id="mask0_1_292" style="mask-type:luminance" maskUnits="userSpaceOnUse" x="132" y="119" width="414" height="438">
<path d="M286.82 556.948C286.82 556.948 286.82 556.948 286.819 556.948C285.862 556.942 285.449 539.867 285.361 538.169C283.965 511.427 282.611 484.683 281.262 457.938C280.592 444.68 279.928 431.42 279.277 418.162C279.116 414.908 278.958 411.656 278.801 408.404C278.671 405.772 278.887 402.886 278.096 400.342C276.732 395.936 271.665 394.76 267.899 393.161C243.495 382.799 219.107 372.409 194.722 362.008C182.297 356.71 169.877 351.409 157.454 346.109C151.475 343.558 145.494 341.005 139.511 338.451C137.902 337.765 136.291 337.079 134.68 336.39L132.852 335.61C132.891 335.565 132.93 335.517 132.972 335.465C133.391 334.952 136.413 334.232 137.074 333.973C138.469 333.423 139.865 332.873 141.264 332.326C165.877 322.707 190.622 313.414 215.307 303.976C227.622 299.265 239.948 294.587 252.248 289.842C258.19 287.549 264.102 285.188 270.077 282.988C273.725 281.644 278.647 280.891 279.889 276.618C280.507 274.487 280.412 272.012 280.58 269.824C280.855 266.313 281.129 262.801 281.401 259.287C281.929 252.515 282.458 245.742 282.986 238.97C284.022 225.676 285.06 212.382 286.096 199.086C287.135 185.792 288.174 172.498 289.213 159.204C289.714 152.804 290.216 146.406 290.72 140.006C290.962 136.953 291.204 133.901 291.447 130.846C291.558 129.416 291.674 127.984 291.786 126.552C291.919 124.88 291.579 122.218 292.246 120.737C292.512 120.151 292.43 119.773 292.473 119.773C292.512 119.773 292.657 120.093 293.279 120.864C294.377 122.224 295.475 123.578 296.573 124.938C298.613 127.455 300.648 129.978 302.687 132.499C306.919 137.733 311.155 142.967 315.387 148.201C323.698 158.479 332.004 168.757 340.313 179.035C348.773 189.509 357.234 199.983 365.686 210.463C369.757 215.51 373.825 220.557 377.892 225.607C381.9 230.578 385.632 236.344 390.225 240.774C392.047 242.536 393.966 243.113 396 243.113C397.844 243.113 399.781 242.636 401.824 242.137C408.106 240.605 414.386 239.079 420.672 237.562C433.724 234.404 446.782 231.279 459.84 228.157C472.417 225.153 484.995 222.153 497.573 219.14C510.304 216.087 523.03 212.996 535.759 209.925C536.798 209.675 539.995 208.351 542.153 208.351C543.027 208.351 543.728 208.569 544.045 209.161C545.097 211.119 540.331 216.559 539.234 218.284C535.78 223.715 532.326 229.148 528.865 234.579C514.668 256.878 500.48 279.187 486.258 301.474C479.021 312.825 471.559 324.057 464.5 335.517C461.677 340.104 462.59 343.304 465.295 347.689C468.861 353.467 472.417 359.249 475.98 365.033C490.087 387.942 504.167 410.87 518.243 433.801C525.215 445.158 532.187 456.521 539.155 467.877C540.866 470.664 542.573 473.45 544.287 476.236L545.012 477.424C544.888 477.327 544.779 477.261 544.752 477.252C542.984 476.626 541.059 476.26 539.246 475.771C532.691 474.009 526.137 472.244 519.582 470.482C493.853 463.562 468.123 456.642 442.403 449.697C429.3 446.158 416.196 442.613 403.096 439.06C400.134 438.256 396.487 436.66 393.129 436.66C391.827 436.66 390.567 436.899 389.409 437.518C387.264 438.667 385.765 440.927 384.229 442.734C381.951 445.418 379.669 448.095 377.388 450.779C359.96 471.262 342.508 491.724 325.046 512.18C316.396 522.313 307.746 532.442 299.093 542.575C296.972 545.059 294.849 547.543 292.73 550.027C291.751 551.176 290.771 552.324 289.791 553.469C289.372 553.959 287.377 556.948 286.82 556.948ZM329.791 239.774C328.281 239.774 326.998 241.055 326.562 242.838C325.905 245.525 326.094 248.737 325.876 251.499C325.612 254.857 325.35 258.211 325.087 261.568C324.117 273.977 323.149 286.388 322.181 298.796C322 301.105 322.274 304.067 321.601 306.243C320.959 308.322 321.288 307.866 319.134 308.736C317.827 309.265 316.493 309.742 315.177 310.25C309.271 312.537 303.354 314.795 297.44 317.055C286.234 321.341 274.991 325.544 263.827 329.941C261.483 330.866 257.623 332.588 260.049 335.719C260.917 336.834 262.505 337.203 263.732 337.729C266.943 339.098 270.157 340.47 273.368 341.839C284.843 346.734 296.316 351.63 307.793 356.514C310.549 357.686 313.303 358.859 316.06 360.028C316.963 360.412 319.584 361.041 320.19 361.784C321.15 362.951 320.9 365.256 320.967 366.652C321.28 373.059 321.601 379.466 321.923 385.872C322.519 397.652 323.094 409.432 323.735 421.206C323.879 423.847 323.067 430.193 327.302 430.193C327.336 430.193 327.369 430.193 327.403 430.193C328.912 430.157 329.833 429.051 330.718 428.008C332.998 425.34 335.278 422.671 337.556 420.003C345.371 410.849 353.188 401.696 360.99 392.536C362.946 390.245 364.895 387.955 366.844 385.664C368.192 384.08 370.41 380.17 372.432 379.593C372.51 379.572 372.601 379.559 372.704 379.559C373.74 379.559 376.001 380.56 376.789 380.774C378.24 381.167 379.693 381.56 381.144 381.956C384.532 382.872 387.919 383.79 391.307 384.703C403.41 387.973 415.519 391.227 427.625 394.485C429.581 395.008 433.11 396.743 435.857 396.743C436.839 396.743 437.722 396.522 438.393 395.945C441.487 393.291 436.444 387.976 435.117 385.809C427.864 373.993 420.617 362.177 413.352 350.373C411.536 347.417 409.72 344.468 407.904 341.518C407.145 340.286 406.184 339.031 405.565 337.723C404.498 335.481 405.003 335.323 406.372 333.184C409.814 327.802 413.253 322.419 416.689 317.031C420.388 311.229 424.081 305.424 427.773 299.618C429.596 296.757 431.421 293.895 433.24 291.03C434.875 288.461 437.151 285.775 438.36 282.985C439.662 279.969 437.906 277.138 434.791 277.138C434.549 277.138 434.301 277.156 434.044 277.192C427.761 278.047 421.391 280.254 415.22 281.731C403.298 284.587 391.37 287.416 379.458 290.308C378.11 290.634 376.548 291.253 375.17 291.35C374.529 291.396 374.112 291.441 373.804 291.441C373.045 291.441 372.957 291.169 371.815 289.984C369.754 287.845 368.007 285.258 366.143 282.943C362.045 277.857 357.944 272.777 353.84 267.697C350.052 263.007 346.262 258.32 342.473 253.633C340.893 251.681 339.315 249.728 337.733 247.773C335.927 245.537 334.191 242.624 332.037 240.729C331.281 240.064 330.51 239.774 329.791 239.774Z" fill="white"/>
</mask>
<g mask="url(#mask0_1_292)">
<path d="M286.82 556.948C286.82 556.948 286.82 556.948 286.819 556.948C285.862 556.942 285.449 539.867 285.361 538.169C283.965 511.427 282.611 484.683 281.262 457.938C280.592 444.68 279.928 431.42 279.277 418.162C279.116 414.908 278.958 411.656 278.801 408.404C278.671 405.772 278.887 402.886 278.096 400.342C276.732 395.936 271.665 394.76 267.899 393.161C243.495 382.799 219.107 372.409 194.722 362.008C182.297 356.71 169.877 351.409 157.454 346.109C151.475 343.558 145.494 341.005 139.511 338.451C137.902 337.765 136.291 337.079 134.68 336.39L132.852 335.61C132.891 335.565 132.93 335.517 132.972 335.465C133.391 334.952 136.413 334.232 137.074 333.973C138.469 333.423 139.865 332.873 141.264 332.326C165.877 322.707 190.622 313.414 215.307 303.976C227.622 299.265 239.948 294.587 252.248 289.842C258.19 287.549 264.102 285.188 270.077 282.988C273.725 281.644 278.647 280.891 279.889 276.618C280.507 274.487 280.412 272.012 280.58 269.824C280.855 266.313 281.129 262.801 281.401 259.287C281.929 252.515 282.458 245.742 282.986 238.97C284.022 225.676 285.06 212.382 286.096 199.086C287.135 185.792 288.174 172.498 289.213 159.204C289.714 152.804 290.216 146.406 290.72 140.006C290.962 136.953 291.204 133.901 291.447 130.846C291.558 129.416 291.674 127.984 291.786 126.552C291.919 124.88 291.579 122.218 292.246 120.737C292.512 120.151 292.43 119.773 292.473 119.773C292.512 119.773 292.657 120.093 293.279 120.864C294.377 122.224 295.475 123.578 296.573 124.938C298.613 127.455 300.648 129.978 302.687 132.499C306.919 137.733 311.155 142.967 315.387 148.201C323.698 158.479 332.004 168.757 340.313 179.035C348.773 189.509 357.234 199.983 365.686 210.463C369.757 215.51 373.825 220.557 377.892 225.607C381.9 230.578 385.632 236.344 390.225 240.774C392.047 242.536 393.966 243.113 396 243.113C397.844 243.113 399.781 242.636 401.824 242.137C408.106 240.605 414.386 239.079 420.672 237.562C433.724 234.404 446.782 231.279 459.84 228.157C472.417 225.153 484.995 222.153 497.573 219.14C510.304 216.087 523.03 212.996 535.759 209.925C536.798 209.675 539.995 208.351 542.153 208.351C543.027 208.351 543.728 208.569 544.045 209.161C545.097 211.119 540.331 216.559 539.234 218.284C535.78 223.715 532.326 229.148 528.865 234.579C514.668 256.878 500.48 279.187 486.258 301.474C479.021 312.825 471.559 324.057 464.5 335.517C461.677 340.104 462.59 343.304 465.295 347.689C468.861 353.467 472.417 359.249 475.98 365.033C490.087 387.942 504.167 410.87 518.243 433.801C525.215 445.158 532.187 456.521 539.155 467.877C540.866 470.664 542.573 473.45 544.287 476.236L545.012 477.424C544.888 477.327 544.779 477.261 544.752 477.252C542.984 476.626 541.059 476.26 539.246 475.771C532.691 474.009 526.137 472.244 519.582 470.482C493.853 463.562 468.123 456.642 442.403 449.697C429.3 446.158 416.196 442.613 403.096 439.06C400.134 438.256 396.487 436.66 393.129 436.66C391.827 436.66 390.567 436.899 389.409 437.518C387.264 438.667 385.765 440.927 384.229 442.734C381.951 445.418 379.669 448.095 377.388 450.779C359.96 471.262 342.508 491.724 325.046 512.18C316.396 522.313 307.746 532.442 299.093 542.575C296.972 545.059 294.849 547.543 292.73 550.027C291.751 551.176 290.771 552.324 289.791 553.469C289.372 553.959 287.377 556.948 286.82 556.948ZM329.791 239.774C328.281 239.774 326.998 241.055 326.562 242.838C325.905 245.525 326.094 248.737 325.876 251.499C325.612 254.857 325.35 258.211 325.087 261.568C324.117 273.977 323.149 286.388 322.181 298.796C322 301.105 322.274 304.067 321.601 306.243C320.959 308.322 321.288 307.866 319.134 308.736C317.827 309.265 316.493 309.742 315.177 310.25C309.271 312.537 303.354 314.795 297.44 317.055C286.234 321.341 274.991 325.544 263.827 329.941C261.483 330.866 257.623 332.588 260.049 335.719C260.917 336.834 262.505 337.203 263.732 337.729C266.943 339.098 270.157 340.47 273.368 341.839C284.843 346.734 296.316 351.63 307.793 356.514C310.549 357.686 313.303 358.859 316.06 360.028C316.963 360.412 319.584 361.041 320.19 361.784C321.15 362.951 320.9 365.256 320.967 366.652C321.28 373.059 321.601 379.466 321.923 385.872C322.519 397.652 323.094 409.432 323.735 421.206C323.879 423.847 323.067 430.193 327.302 430.193C327.336 430.193 327.369 430.193 327.403 430.193C328.912 430.157 329.833 429.051 330.718 428.008C332.998 425.34 335.278 422.671 337.556 420.003C345.371 410.849 353.188 401.696 360.99 392.536C362.946 390.245 364.895 387.955 366.844 385.664C368.192 384.08 370.41 380.17 372.432 379.593C372.51 379.572 372.601 379.559 372.704 379.559C373.74 379.559 376.001 380.56 376.789 380.774C378.24 381.167 379.693 381.56 381.144 381.956C384.532 382.872 387.919 383.79 391.307 384.703C403.41 387.973 415.519 391.227 427.625 394.485C429.581 395.008 433.11 396.743 435.857 396.743C436.839 396.743 437.722 396.522 438.393 395.945C441.487 393.291 436.444 387.976 435.117 385.809C427.864 373.993 420.617 362.177 413.352 350.373C411.536 347.417 409.72 344.468 407.904 341.518C407.145 340.286 406.184 339.031 405.565 337.723C404.498 335.481 405.003 335.323 406.372 333.184C409.814 327.802 413.253 322.419 416.689 317.031C420.388 311.229 424.081 305.424 427.773 299.618C429.596 296.757 431.421 293.895 433.24 291.03C434.875 288.461 437.151 285.775 438.36 282.985C439.662 279.969 437.906 277.138 434.791 277.138C434.549 277.138 434.301 277.156 434.044 277.192C427.761 278.047 421.391 280.254 415.22 281.731C403.298 284.587 391.37 287.416 379.458 290.308C378.11 290.634 376.548 291.253 375.17 291.35C374.529 291.396 374.112 291.441 373.804 291.441C373.045 291.441 372.957 291.169 371.815 289.984C369.754 287.845 368.007 285.258 366.143 282.943C362.045 277.857 357.944 272.777 353.84 267.697C350.052 263.007 346.262 258.32 342.473 253.633C340.893 251.681 339.315 249.728 337.733 247.773C335.927 245.537 334.191 242.624 332.037 240.729C331.281 240.064 330.51 239.774 329.791 239.774Z" fill="url(#paint0_linear_1_292)"/>
</g>
<path d="M496.364 214.77C469.764 221.143 443.152 227.456 416.568 233.89C413.183 234.709 409.802 235.531 406.417 236.353C403.259 237.12 399.442 238.798 396.188 238.719C393.338 238.65 391.621 235.47 390.014 233.47C387.665 230.557 385.32 227.643 382.975 224.73C374.372 214.05 365.762 203.377 357.149 192.706C339.917 171.365 322.67 150.038 305.423 128.709C303.384 126.189 301.345 123.668 299.309 121.148C297.86 119.359 296.342 116.54 294.2 115.482C291.111 113.962 288.345 116.261 287.831 119.265C286.716 125.778 286.763 132.719 286.244 139.307C285.718 145.941 285.199 152.574 284.68 159.204C282.523 186.798 280.368 214.389 278.217 241.98C277.67 249.003 277.122 256.026 276.576 263.052C276.322 266.313 276.072 269.574 275.814 272.834C275.704 274.197 275.818 275.539 274.636 276.506C273.477 277.458 270.968 277.848 269.534 278.374C257.051 282.946 244.7 287.902 232.282 292.653C206.412 302.547 180.539 312.438 154.669 322.341C148.802 324.589 142.925 326.819 137.08 329.125C133.863 330.391 127.388 331.476 128.047 336.191C128.246 337.635 129.064 338.687 130.306 339.415C133.237 341.132 136.865 342.213 139.984 343.546C146.197 346.196 152.408 348.847 158.617 351.497C184.151 362.391 209.684 373.286 235.23 384.159C241.441 386.803 247.658 389.444 253.872 392.089C256.865 393.361 259.858 394.63 262.849 395.902C265.842 397.175 269.709 398.172 272.367 400.039C274.684 401.668 274.106 405.104 274.229 407.655C274.401 411.157 274.571 414.657 274.744 418.162C275.088 425.167 275.437 432.172 275.785 439.177C277.16 466.696 278.574 494.214 279.983 521.729C280.338 528.644 280.684 535.555 281.058 542.466C281.229 545.612 281.407 548.755 281.584 551.898C281.72 554.297 281.274 557.715 282.84 559.776C285.016 562.641 288.394 561.792 290.55 559.541C295.386 554.485 299.713 548.809 304.258 543.485C322.213 522.458 340.168 501.431 358.104 480.388C367.071 469.869 376.037 459.346 384.994 448.815C386.689 446.817 389.219 442.42 391.694 441.432C394.429 440.344 399.225 442.707 401.89 443.432C408.68 445.273 415.474 447.113 422.27 448.954C448.961 456.173 475.657 463.362 502.356 470.546C515.705 474.136 529.05 477.747 542.407 481.316C545.501 482.144 550.382 482.328 549.926 477.581C549.729 475.568 548.025 473.664 547.016 472.02C545.172 469.02 543.332 466.019 541.491 463.018C526.895 439.229 512.299 415.437 497.681 391.656C490.438 379.874 483.191 368.094 475.935 356.32C474.222 353.537 472.508 350.754 470.792 347.97C469.876 346.481 468.867 345.009 468.02 343.477C466.615 340.935 467.386 339.503 468.818 337.176C472.345 331.443 476.08 325.831 479.704 320.159C494.614 296.832 509.476 273.475 524.341 250.121C531.522 238.84 538.705 227.559 545.879 216.272C547.98 212.969 550.358 209.273 547.142 205.761C543.972 202.301 539.065 204.468 535.275 205.38C522.305 208.505 509.34 211.657 496.364 214.77C493.529 215.45 494.729 219.819 497.573 219.139C510.304 216.087 523.03 212.996 535.759 209.925C537.218 209.572 542.942 207.106 544.045 209.161C545.097 211.119 540.331 216.559 539.234 218.284C535.78 223.715 532.326 229.148 528.865 234.579C514.668 256.878 500.48 279.187 486.258 301.474C479.021 312.824 471.559 324.057 464.5 335.517C461.677 340.104 462.59 343.304 465.295 347.689C468.861 353.467 472.417 359.249 475.98 365.033C490.087 387.942 504.167 410.87 518.243 433.801C525.215 445.158 532.187 456.521 539.155 467.877C540.866 470.664 542.573 473.45 544.287 476.236L545.468 478.167C545.801 477.947 544.846 477.285 544.752 477.252C542.984 476.626 541.059 476.26 539.246 475.771C532.691 474.009 526.137 472.244 519.582 470.482C493.852 463.562 468.123 456.641 442.403 449.697C429.3 446.158 416.196 442.613 403.096 439.06C398.983 437.944 393.558 435.3 389.409 437.518C387.264 438.667 385.765 440.927 384.229 442.734C381.951 445.418 379.669 448.095 377.388 450.779C359.96 471.262 342.508 491.724 325.046 512.18C316.396 522.313 307.746 532.442 299.093 542.575C296.972 545.059 294.849 547.543 292.73 550.027C291.751 551.176 290.771 552.324 289.791 553.469C289.372 553.959 287.374 556.954 286.819 556.948C285.862 556.942 285.449 539.867 285.361 538.169C283.965 511.427 282.611 484.683 281.262 457.938C280.592 444.68 279.928 431.42 279.277 418.162C279.116 414.908 278.958 411.656 278.801 408.404C278.671 405.772 278.887 402.886 278.096 400.342C276.732 395.936 271.665 394.76 267.899 393.161C243.495 382.799 219.107 372.409 194.722 362.008C182.297 356.71 169.877 351.409 157.454 346.109C151.475 343.558 145.494 341.005 139.511 338.451C137.902 337.765 136.291 337.079 134.68 336.39L132.611 335.508C132.615 335.408 132.39 335.713 132.201 336.018C131.871 336.547 131.654 337.079 132.972 335.465C133.391 334.952 136.413 334.232 137.074 333.972C138.469 333.422 139.865 332.872 141.264 332.326C165.877 322.706 190.622 313.414 215.307 303.976C227.622 299.265 239.948 294.587 252.248 289.842C258.19 287.549 264.102 285.188 270.077 282.988C273.725 281.643 278.647 280.891 279.889 276.618C280.507 274.487 280.412 272.012 280.58 269.824C280.855 266.313 281.129 262.801 281.401 259.287C281.929 252.515 282.458 245.742 282.986 238.97C284.022 225.676 285.06 212.382 286.096 199.086C287.135 185.792 288.174 172.498 289.213 159.204C289.714 152.804 290.216 146.406 290.72 140.005C290.962 136.953 291.204 133.901 291.447 130.846C291.558 129.416 291.674 127.984 291.786 126.552C291.919 124.88 291.579 122.218 292.246 120.737C292.757 119.607 291.984 119.259 293.279 120.864C294.377 122.224 295.475 123.578 296.573 124.938C298.613 127.455 300.648 129.978 302.687 132.499C306.919 137.733 311.155 142.967 315.387 148.201C323.698 158.479 332.004 168.757 340.313 179.035C348.773 189.509 357.234 199.983 365.686 210.463C369.757 215.51 373.825 220.557 377.892 225.607C381.9 230.578 385.632 236.344 390.225 240.774C393.7 244.131 397.532 243.186 401.824 242.137C408.106 240.605 414.386 239.079 420.672 237.562C433.724 234.404 446.782 231.279 459.84 228.157C472.417 225.153 484.995 222.152 497.573 219.139C500.404 218.46 499.207 214.087 496.364 214.77Z" fill="#040606"/>
<mask id="mask1_1_292" style="mask-type:luminance" maskUnits="userSpaceOnUse" x="266" y="246" width="168" height="178">
<path d="M328.457 423.72C328.417 423.179 328.354 422.741 328.348 422.623C328.242 420.719 328.142 418.818 328.044 416.917C327.46 405.585 326.878 394.249 326.309 382.917C326.034 377.495 325.766 372.074 325.5 366.652C325.27 361.944 325.644 359.315 321.103 357.284C310.632 352.603 299.976 348.297 289.425 343.8C284.375 341.645 279.326 339.494 274.279 337.336C271.597 336.194 268.914 335.048 266.231 333.903C266.71 333.686 267.108 333.498 267.236 333.447C277.915 329.301 288.634 325.254 299.335 321.162C304.579 319.156 309.829 317.167 315.065 315.133C317.26 314.284 319.458 313.444 321.666 312.619C323.389 311.979 324.971 311.501 325.698 309.655C326.277 308.18 326.131 306.282 326.25 304.753C326.484 301.776 326.712 298.796 326.946 295.82C327.41 289.863 327.876 283.904 328.339 277.948C328.843 271.496 329.348 265.044 329.854 258.589C330.074 255.754 330.296 252.92 330.521 250.085C330.596 249.142 330.947 247.673 330.941 246.543C339.087 256.616 347.233 266.685 355.369 276.766C359.47 281.846 363.571 286.929 367.666 292.015C368.844 293.481 370.023 295.478 371.93 296.077C372.429 296.231 372.948 296.294 373.48 296.294C375.411 296.294 377.499 295.445 379.231 295.025C391.621 292.015 404.027 289.072 416.426 286.101C422.134 284.732 427.876 283.451 433.561 281.973C432.82 282.583 431.953 284.614 431.49 285.343C429.738 288.096 427.988 290.849 426.235 293.599C420.164 303.136 414.096 312.674 408.016 322.199C406.692 324.272 405.371 326.342 404.045 328.412C402.794 330.37 400.681 332.673 400.155 334.976C399.844 336.351 400.252 337.545 400.872 338.747C402.434 341.8 404.525 344.679 406.323 347.599C412.295 357.296 418.251 366.997 424.21 376.704C427.06 381.345 429.907 385.987 432.754 390.629C432.799 390.699 432.932 390.937 433.116 391.267C430.236 390.49 427.353 389.716 424.473 388.94C413.337 385.945 402.195 382.947 391.062 379.94C385.74 378.502 380.437 376.951 375.088 375.616C374.133 375.377 373.305 375.265 372.571 375.265C369.258 375.265 367.826 377.538 365.103 380.738C357.464 389.716 349.818 398.68 342.165 407.643C338.585 411.837 335.003 416.035 331.42 420.23C331.254 420.426 329.751 422.2 328.457 423.72Z" fill="white"/>
</mask>
<g mask="url(#mask1_1_292)">
<path d="M328.457 423.72C328.417 423.179 328.354 422.741 328.348 422.623C328.242 420.719 328.142 418.818 328.044 416.917C327.46 405.585 326.878 394.249 326.309 382.917C326.034 377.495 325.766 372.074 325.5 366.652C325.27 361.944 325.644 359.315 321.103 357.284C310.632 352.603 299.976 348.297 289.425 343.8C284.375 341.645 279.326 339.494 274.279 337.336C271.597 336.194 268.914 335.048 266.231 333.903C266.71 333.686 267.108 333.498 267.236 333.447C277.915 329.301 288.634 325.254 299.335 321.162C304.579 319.156 309.829 317.167 315.065 315.133C317.26 314.284 319.458 313.444 321.666 312.619C323.389 311.979 324.971 311.501 325.698 309.655C326.277 308.18 326.131 306.282 326.25 304.753C326.484 301.776 326.712 298.796 326.946 295.82C327.41 289.863 327.876 283.904 328.339 277.948C328.843 271.496 329.348 265.044 329.854 258.589C330.074 255.754 330.296 252.92 330.521 250.085C330.596 249.142 330.947 247.673 330.941 246.543C339.087 256.616 347.233 266.685 355.369 276.766C359.47 281.846 363.571 286.929 367.666 292.015C368.844 293.481 370.023 295.478 371.93 296.077C372.429 296.231 372.948 296.294 373.48 296.294C375.411 296.294 377.499 295.445 379.231 295.025C391.621 292.015 404.027 289.072 416.426 286.101C422.134 284.732 427.876 283.451 433.561 281.973C432.82 282.583 431.953 284.614 431.49 285.343C429.738 288.096 427.988 290.849 426.235 293.599C420.164 303.136 414.096 312.674 408.016 322.199C406.692 324.272 405.371 326.342 404.045 328.412C402.794 330.37 400.681 332.673 400.155 334.976C399.844 336.351 400.252 337.545 400.872 338.747C402.434 341.8 404.525 344.679 406.323 347.599C412.295 357.296 418.251 366.997 424.21 376.704C427.06 381.345 429.907 385.987 432.754 390.629C432.799 390.699 432.932 390.937 433.116 391.267C430.236 390.49 427.353 389.716 424.473 388.94C413.337 385.945 402.195 382.947 391.062 379.94C385.74 378.502 380.437 376.951 375.088 375.616C374.133 375.377 373.305 375.265 372.571 375.265C369.258 375.265 367.826 377.538 365.103 380.738C357.464 389.716 349.818 398.68 342.165 407.643C338.585 411.837 335.003 416.035 331.42 420.23C331.254 420.426 329.751 422.2 328.457 423.72Z" fill="url(#paint1_linear_1_292)"/>
</g>
<mask id="mask2_1_292" style="mask-type:luminance" maskUnits="userSpaceOnUse" x="259" y="239" width="181" height="192">
<path d="M327.302 430.193C323.067 430.193 323.879 423.847 323.735 421.206C323.094 409.432 322.519 397.652 321.923 385.872C321.601 379.466 321.28 373.059 320.967 366.652C320.9 365.256 321.15 362.95 320.19 361.784C319.584 361.041 316.963 360.412 316.06 360.028C313.303 358.859 310.55 357.686 307.793 356.514C296.317 351.63 284.843 346.734 273.368 341.839C270.157 340.47 266.943 339.098 263.732 337.729C262.505 337.203 260.917 336.834 260.049 335.719C257.623 332.588 261.483 330.866 263.827 329.941C274.991 325.544 286.234 321.341 297.44 317.055C303.354 314.795 309.271 312.537 315.177 310.25C316.493 309.742 317.827 309.265 319.134 308.736C321.288 307.865 320.959 308.322 321.601 306.243C322.274 304.067 322 301.105 322.181 298.796C323.149 286.388 324.117 273.977 325.087 261.568C325.35 258.211 325.612 254.857 325.876 251.499C326.094 248.737 325.905 245.525 326.563 242.838C326.998 241.055 328.281 239.774 329.791 239.774C330.51 239.774 331.281 240.064 332.037 240.729C334.191 242.623 335.927 245.537 337.733 247.773C339.315 249.728 340.893 251.68 342.473 253.633C346.262 258.32 350.052 263.007 353.84 267.697C357.944 272.777 362.045 277.857 366.143 282.943C368.007 285.258 369.754 287.845 371.815 289.984C372.957 291.169 373.045 291.441 373.804 291.441C374.112 291.441 374.529 291.395 375.17 291.35C376.548 291.253 378.11 290.634 379.458 290.308C391.37 287.416 403.298 284.587 415.22 281.731C421.391 280.253 427.761 278.047 434.044 277.192C434.301 277.156 434.549 277.138 434.791 277.138C437.906 277.138 439.662 279.969 438.36 282.985C437.151 285.775 434.875 288.461 433.24 291.03C431.421 293.895 429.596 296.757 427.774 299.618C424.081 305.424 420.388 311.229 416.689 317.031C413.253 322.419 409.814 327.802 406.372 333.184C405.003 335.323 404.498 335.48 405.565 337.723C406.184 339.031 407.145 340.285 407.904 341.518C409.72 344.468 411.536 347.417 413.353 350.373C420.617 362.177 427.864 373.993 435.117 385.809C436.444 387.976 441.487 393.291 438.393 395.945C437.722 396.522 436.84 396.742 435.857 396.742C433.11 396.742 429.581 395.008 427.625 394.485C415.519 391.227 403.41 387.973 391.307 384.703C387.919 383.79 384.532 382.872 381.144 381.956C379.694 381.56 378.24 381.167 376.789 380.774C376.001 380.56 373.74 379.559 372.704 379.559C372.601 379.559 372.51 379.571 372.432 379.593C370.41 380.17 368.192 384.08 366.844 385.664C364.895 387.955 362.946 390.245 360.99 392.536C353.188 401.696 345.371 410.849 337.556 420.003C335.278 422.671 332.998 425.34 330.718 428.008C329.833 429.051 328.912 430.157 327.403 430.193C327.369 430.193 327.336 430.193 327.302 430.193ZM266.231 333.903C268.915 335.048 271.597 336.194 274.28 337.336C279.326 339.494 284.375 341.645 289.425 343.8C299.976 348.297 310.632 352.603 321.103 357.284C325.644 359.315 325.27 361.944 325.5 366.652C325.766 372.074 326.034 377.495 326.309 382.917C326.878 394.249 327.46 405.585 328.044 416.917C328.142 418.818 328.242 420.719 328.349 422.623C328.355 422.741 328.417 423.179 328.457 423.72C329.751 422.2 331.254 420.426 331.42 420.229C335.003 416.035 338.586 411.837 342.165 407.643C349.818 398.68 357.464 389.716 365.103 380.738C367.826 377.538 369.259 375.265 372.571 375.265C373.305 375.265 374.133 375.377 375.088 375.616C380.437 376.951 385.741 378.502 391.062 379.94C402.195 382.947 413.337 385.945 424.474 388.94C427.353 389.716 430.236 390.49 433.116 391.267C432.932 390.937 432.799 390.698 432.754 390.629C429.907 385.987 427.06 381.345 424.211 376.704C418.251 366.997 412.295 357.296 406.323 347.599C404.525 344.679 402.434 341.8 400.872 338.747C400.252 337.545 399.844 336.351 400.155 334.976C400.681 332.673 402.794 330.37 404.045 328.412C405.371 326.342 406.692 324.272 408.016 322.199C414.096 312.673 420.164 303.136 426.235 293.599C427.988 290.849 429.738 288.095 431.491 285.342C431.953 284.614 432.82 282.583 433.561 281.973C427.876 283.451 422.134 284.732 416.426 286.101C404.027 289.072 391.621 292.015 379.231 295.025C377.5 295.445 375.411 296.294 373.48 296.294C372.948 296.294 372.429 296.231 371.93 296.077C370.023 295.478 368.845 293.481 367.666 292.015C363.571 286.929 359.47 281.846 355.369 276.766C347.233 266.685 339.088 256.615 330.941 246.543C330.947 247.673 330.596 249.142 330.521 250.085C330.297 252.919 330.074 255.754 329.854 258.589C329.348 265.044 328.843 271.496 328.339 277.948C327.876 283.904 327.41 289.863 326.946 295.82C326.712 298.796 326.484 301.776 326.25 304.753C326.132 306.282 326.277 308.18 325.699 309.654C324.971 311.501 323.389 311.978 321.666 312.619C319.458 313.444 317.261 314.284 315.065 315.133C309.829 317.167 304.579 319.156 299.335 321.162C288.634 325.254 277.916 329.301 267.236 333.447C267.108 333.498 266.711 333.685 266.231 333.903Z" fill="white"/>
</mask>
<g mask="url(#mask2_1_292)">
<path d="M327.302 430.193C323.067 430.193 323.879 423.847 323.735 421.206C323.094 409.432 322.519 397.652 321.923 385.872C321.601 379.466 321.28 373.059 320.967 366.652C320.9 365.256 321.15 362.95 320.19 361.784C319.584 361.041 316.963 360.412 316.06 360.028C313.303 358.859 310.55 357.686 307.793 356.514C296.317 351.63 284.843 346.734 273.368 341.839C270.157 340.47 266.943 339.098 263.732 337.729C262.505 337.203 260.917 336.834 260.049 335.719C257.623 332.588 261.483 330.866 263.827 329.941C274.991 325.544 286.234 321.341 297.44 317.055C303.354 314.795 309.271 312.537 315.177 310.25C316.493 309.742 317.827 309.265 319.134 308.736C321.288 307.865 320.959 308.322 321.601 306.243C322.274 304.067 322 301.105 322.181 298.796C323.149 286.388 324.117 273.977 325.087 261.568C325.35 258.211 325.612 254.857 325.876 251.499C326.094 248.737 325.905 245.525 326.563 242.838C326.998 241.055 328.281 239.774 329.791 239.774C330.51 239.774 331.281 240.064 332.037 240.729C334.191 242.623 335.927 245.537 337.733 247.773C339.315 249.728 340.893 251.68 342.473 253.633C346.262 258.32 350.052 263.007 353.84 267.697C357.944 272.777 362.045 277.857 366.143 282.943C368.007 285.258 369.754 287.845 371.815 289.984C372.957 291.169 373.045 291.441 373.804 291.441C374.112 291.441 374.529 291.395 375.17 291.35C376.548 291.253 378.11 290.634 379.458 290.308C391.37 287.416 403.298 284.587 415.22 281.731C421.391 280.253 427.761 278.047 434.044 277.192C434.301 277.156 434.549 277.138 434.791 277.138C437.906 277.138 439.662 279.969 438.36 282.985C437.151 285.775 434.875 288.461 433.24 291.03C431.421 293.895 429.596 296.757 427.774 299.618C424.081 305.424 420.388 311.229 416.689 317.031C413.253 322.419 409.814 327.802 406.372 333.184C405.003 335.323 404.498 335.48 405.565 337.723C406.184 339.031 407.145 340.285 407.904 341.518C409.72 344.468 411.536 347.417 413.353 350.373C420.617 362.177 427.864 373.993 435.117 385.809C436.444 387.976 441.487 393.291 438.393 395.945C437.722 396.522 436.84 396.742 435.857 396.742C433.11 396.742 429.581 395.008 427.625 394.485C415.519 391.227 403.41 387.973 391.307 384.703C387.919 383.79 384.532 382.872 381.144 381.956C379.694 381.56 378.24 381.167 376.789 380.774C376.001 380.56 373.74 379.559 372.704 379.559C372.601 379.559 372.51 379.571 372.432 379.593C370.41 380.17 368.192 384.08 366.844 385.664C364.895 387.955 362.946 390.245 360.99 392.536C353.188 401.696 345.371 410.849 337.556 420.003C335.278 422.671 332.998 425.34 330.718 428.008C329.833 429.051 328.912 430.157 327.403 430.193C327.369 430.193 327.336 430.193 327.302 430.193ZM266.231 333.903C268.915 335.048 271.597 336.194 274.28 337.336C279.326 339.494 284.375 341.645 289.425 343.8C299.976 348.297 310.632 352.603 321.103 357.284C325.644 359.315 325.27 361.944 325.5 366.652C325.766 372.074 326.034 377.495 326.309 382.917C326.878 394.249 327.46 405.585 328.044 416.917C328.142 418.818 328.242 420.719 328.349 422.623C328.355 422.741 328.417 423.179 328.457 423.72C329.751 422.2 331.254 420.426 331.42 420.229C335.003 416.035 338.586 411.837 342.165 407.643C349.818 398.68 357.464 389.716 365.103 380.738C367.826 377.538 369.259 375.265 372.571 375.265C373.305 375.265 374.133 375.377 375.088 375.616C380.437 376.951 385.741 378.502 391.062 379.94C402.195 382.947 413.337 385.945 424.474 388.94C427.353 389.716 430.236 390.49 433.116 391.267C432.932 390.937 432.799 390.698 432.754 390.629C429.907 385.987 427.06 381.345 424.211 376.704C418.251 366.997 412.295 357.296 406.323 347.599C404.525 344.679 402.434 341.8 400.872 338.747C400.252 337.545 399.844 336.351 400.155 334.976C400.681 332.673 402.794 330.37 404.045 328.412C405.371 326.342 406.692 324.272 408.016 322.199C414.096 312.673 420.164 303.136 426.235 293.599C427.988 290.849 429.738 288.095 431.491 285.342C431.953 284.614 432.82 282.583 433.561 281.973C427.876 283.451 422.134 284.732 416.426 286.101C404.027 289.072 391.621 292.015 379.231 295.025C377.5 295.445 375.411 296.294 373.48 296.294C372.948 296.294 372.429 296.231 371.93 296.077C370.023 295.478 368.845 293.481 367.666 292.015C363.571 286.929 359.47 281.846 355.369 276.766C347.233 266.685 339.088 256.615 330.941 246.543C330.947 247.673 330.596 249.142 330.521 250.085C330.297 252.919 330.074 255.754 329.854 258.589C329.348 265.044 328.843 271.496 328.339 277.948C327.876 283.904 327.41 289.863 326.946 295.82C326.712 298.796 326.484 301.776 326.25 304.753C326.132 306.282 326.277 308.18 325.699 309.654C324.971 311.501 323.389 311.978 321.666 312.619C319.458 313.444 317.261 314.284 315.065 315.133C309.829 317.167 304.579 319.156 299.335 321.162C288.634 325.254 277.916 329.301 267.236 333.447C267.108 333.498 266.711 333.685 266.231 333.903Z" fill="url(#paint2_linear_1_292)"/>
</g>
<path d="M459.063 245.401C439.275 250.142 419.472 254.838 399.693 259.628C397.282 260.214 394.867 260.798 392.455 261.387C390.582 261.843 387.094 263.415 385.1 262.922C383.308 262.478 381.6 259.281 380.482 257.893C378.593 255.545 376.702 253.197 374.81 250.849C368.506 243.022 362.193 235.198 355.877 227.377C342.93 211.343 329.968 195.32 317.013 179.294C315.268 177.14 313.029 172.664 309.91 172.25C306.634 171.815 305.698 174.704 305.468 177.333C304.629 186.889 303.951 196.462 303.203 206.027C301.604 226.495 300.004 246.963 298.412 267.431C298.04 272.172 297.671 276.917 297.301 281.659C297.128 283.886 297.423 286.998 296.718 289.147C296.142 290.903 295.046 291.081 293.362 291.8C292.072 292.35 290.712 292.776 289.402 293.272C280.076 296.802 270.791 300.443 261.477 304.003C242.35 311.319 223.224 318.633 204.101 325.955C200.099 327.487 196.103 329.025 192.125 330.618C189.75 331.567 187.342 333.196 188.595 336.124C189.797 338.928 194.698 339.868 197.175 340.923C201.997 342.981 206.816 345.039 211.638 347.097C230.467 355.129 249.293 363.162 268.126 371.179C272.491 373.035 276.857 374.893 281.221 376.749C283.517 377.725 285.815 378.701 288.112 379.677C290.031 380.49 293.901 381.23 295.186 383.056C296.122 384.382 295.658 388.71 295.732 390.266C295.856 392.78 295.979 395.295 296.103 397.809C296.364 403.089 296.626 408.368 296.889 413.647C297.922 434.26 298.981 454.874 300.041 475.487C300.282 480.207 300.521 484.93 300.785 489.651C300.944 492.494 300.146 497.895 302.499 500.08C304.187 501.648 306.61 501.358 308.222 499.886C311.822 496.589 314.847 492.126 318.02 488.409C331.379 472.764 344.736 457.119 358.08 441.465C364.593 433.828 371.099 426.186 377.599 418.543C378.763 417.177 380.757 413.675 382.525 412.958C384.366 412.215 388.391 414.013 390.201 414.506C395.529 415.95 400.857 417.392 406.181 418.833C426.042 424.206 445.906 429.552 465.772 434.895C470.375 436.134 474.977 437.373 479.58 438.609C484.406 439.909 489.652 442.054 494.614 442.643C496.829 442.906 499.093 441.731 499.162 439.238C499.199 438.002 498.458 437.02 497.869 436.025C496.343 433.441 494.729 430.906 493.161 428.349C482.435 410.87 471.71 393.388 460.97 375.918C455.733 367.393 450.49 358.874 445.244 350.355C443.932 348.227 442.621 346.097 441.306 343.966C439.432 340.929 438.184 339.197 439.747 335.783C441.962 330.938 445.773 326.369 448.643 321.875C459.686 304.589 470.698 287.282 481.71 269.979C484.364 265.811 487.017 261.644 489.667 257.48C492.209 253.491 495.56 249.396 497.536 245.108C498.576 242.856 498.534 240.351 496.545 238.589C493.964 236.307 490.453 237.827 487.576 238.519C478.069 240.813 468.571 243.122 459.063 245.401C456.229 246.081 457.428 250.453 460.269 249.773C469.776 247.492 479.277 245.183 488.779 242.892C489.443 242.732 490.867 242.188 491.631 242.206C493.931 242.255 493.593 241.889 492.816 244.089C492.133 246.023 490.35 247.966 489.25 249.698C486.506 254.007 483.765 258.317 481.024 262.623C470.544 279.084 460.073 295.548 449.577 311.996C447.018 316.004 444.461 320.008 441.901 324.012C439.429 327.874 435.709 332.096 434.186 336.435C433.038 339.699 434.945 342.283 436.607 344.978C439.363 349.448 442.116 353.921 444.869 358.393C455.228 375.22 465.57 392.055 475.905 408.894C481.136 417.422 486.367 425.947 491.601 434.475C491.985 435.098 494.968 439.328 494.741 439.591C496.382 437.699 489.888 436.687 488.779 436.388C483.934 435.085 479.087 433.783 474.246 432.48C454.863 427.268 435.483 422.055 416.106 416.82C406.662 414.267 397.218 411.71 387.774 409.148C384.767 408.332 382.135 407.57 379.497 409.613C376.064 412.272 373.302 416.618 370.495 419.924C357.651 435.019 344.787 450.096 331.92 465.169C325.565 472.613 319.211 480.053 312.861 487.493C311.232 489.4 309.602 491.307 307.974 493.217C307.162 494.166 306.391 495.178 305.53 496.078C304.232 497.435 305.678 496.166 305.666 495.816C305.509 491.301 305.155 486.786 304.922 482.274C303.892 462.416 302.879 442.556 301.877 422.698C301.383 412.895 300.893 403.089 300.412 393.285C300.235 389.653 300.799 385.129 299.503 381.693C298.279 378.453 294.676 377.577 291.78 376.347C273.858 368.737 255.945 361.104 238.033 353.467C228.849 349.551 219.665 345.631 210.481 341.712C206.12 339.85 201.758 337.989 197.396 336.13C195.784 335.441 194.138 334.806 192.55 334.06C192.81 334.368 193.069 334.679 193.329 334.988C193.955 334.74 194.577 334.492 195.2 334.247C196.611 333.688 198.019 333.132 199.432 332.582C217.442 325.577 235.534 318.76 253.586 311.854C262.861 308.306 272.149 304.789 281.406 301.205C285.349 299.679 289.277 298.116 293.244 296.654C296.148 295.584 299.772 295.01 300.867 291.704C302.021 288.219 301.669 283.798 301.953 280.16C302.339 275.17 302.729 270.178 303.118 265.186C303.898 255.201 304.677 245.216 305.456 235.232C306.235 225.247 307.014 215.262 307.797 205.277C308.124 201.068 308.454 196.861 308.788 192.652C308.968 190.361 309.147 188.07 309.331 185.783C309.505 183.592 310.192 180.917 309.886 178.762C309.924 178.285 309.963 177.808 310.001 177.333C308.729 176.269 308.734 176.429 310.015 177.81C310.534 178.62 311.317 179.424 311.911 180.156C313.491 182.111 315.071 184.066 316.65 186.018C319.81 189.929 322.971 193.836 326.132 197.744C332.453 205.561 338.774 213.379 345.09 221.197C351.25 228.822 357.409 236.446 363.562 244.077C366.56 247.791 369.555 251.511 372.549 255.228C375.33 258.679 377.989 263.224 381.464 265.999C383.912 267.954 386.472 267.476 389.322 266.814C394.157 265.696 398.971 264.466 403.791 263.3C413.201 261.024 422.615 258.77 432.029 256.525C441.442 254.273 450.859 252.028 460.269 249.773C463.104 249.094 461.904 244.721 459.063 245.401Z" fill="#040606"/>
<defs>
<linearGradient id="paint0_linear_1_292" x1="334.099" y1="199.403" x2="353.184" y2="526.782" gradientUnits="userSpaceOnUse">
<stop stop-color="#C9E9A4"/>
<stop offset="0.293296" stop-color="#E57FC5"/>
<stop offset="0.46648" stop-color="#F57F9D"/>
<stop offset="0.667598" stop-color="#7A6BBC"/>
<stop offset="0.860335" stop-color="#86D7DF"/>
<stop offset="0.963687" stop-color="#9FDCA8"/>
<stop offset="1" stop-color="#9FDCA8"/>
</linearGradient>
<linearGradient id="paint1_linear_1_292" x1="334.099" y1="199.403" x2="353.184" y2="526.782" gradientUnits="userSpaceOnUse">
<stop stop-color="#050606"/>
<stop offset="0.293296" stop-color="#050606"/>
<stop offset="0.46648" stop-color="#050606"/>
<stop offset="0.667598" stop-color="#050606"/>
<stop offset="0.860335" stop-color="#050606"/>
<stop offset="0.963687" stop-color="#050606"/>
<stop offset="1" stop-color="#050606"/>
</linearGradient>
<linearGradient id="paint2_linear_1_292" x1="334.099" y1="199.403" x2="353.184" y2="526.782" gradientUnits="userSpaceOnUse">
<stop stop-color="#050606"/>
<stop offset="0.293296" stop-color="#050606"/>
<stop offset="0.46648" stop-color="#050606"/>
<stop offset="0.667598" stop-color="#050606"/>
<stop offset="0.860335" stop-color="#050606"/>
<stop offset="0.963687" stop-color="#050606"/>
<stop offset="1" stop-color="#050606"/>
</linearGradient>
</defs>
</svg>
