<svg width="677" height="677" viewBox="0 0 677 677" fill="none" xmlns="http://www.w3.org/2000/svg">
<path d="M488.083 220.714C469.522 193.534 395.942 193.64 377.934 194.087C366.33 180.306 317.639 125.146 284.981 129.262C247.692 133.961 194.84 144.097 173.695 212.711C152.55 281.326 200.355 370.94 240.016 396.425C260.134 409.356 272.953 411.257 280.714 410C284.917 416.645 294.841 424.983 317.857 431.474C363.226 444.275 462.012 420.667 499.37 359.354C536.728 298.041 509.288 251.75 488.083 220.714Z" fill="#040606"/>
<path d="M490.044 219.568C479.292 204.22 457.809 199.073 440.459 195.988C421.971 192.7 403.068 191.624 384.311 191.724C382.957 191.733 381.603 191.748 380.252 191.772C379.666 191.781 379.049 191.736 378.472 191.805C378.094 191.851 379.433 192.842 379.04 191.899C378.919 191.603 378.551 191.361 378.369 191.104C376.411 188.348 373.83 185.864 371.57 183.362C365.021 176.109 358.207 169.086 351.078 162.401C336.128 148.379 318.292 132.852 297.839 127.956C289.45 125.95 281.294 127.358 272.911 128.679C264.114 130.069 255.374 131.891 246.858 134.52C227.496 140.498 209.621 150.839 196.176 166.173C179.676 184.994 169.616 209.913 166.987 234.696C164.173 261.202 169.401 288.31 178.627 313.129C187.198 336.19 199.376 358.302 215.381 377.057C221.794 384.569 228.935 391.602 237.1 397.204C246.982 403.989 258.583 410.241 270.581 412.097C274.174 412.656 277.719 412.728 281.318 412.188C280.463 411.837 279.61 411.492 278.758 411.145C284.863 420.583 295.669 426.031 305.854 429.921C316.736 434.076 327.857 436.421 339.482 436.962C364.184 438.11 389.388 433.245 412.675 425.237C438.19 416.464 462.795 403.215 482.217 384.27C504.272 362.754 519.467 332.168 520.083 301.093C520.684 270.8 506.659 243.929 490.044 219.568C488.409 217.172 484.478 219.438 486.128 221.856C500.083 242.315 512.64 264.499 515.103 289.618C518.11 320.34 505.559 351.817 485.209 374.594C467.802 394.074 444.69 408.035 420.535 417.527C398.043 426.37 373.821 431.973 349.603 432.535C338.642 432.789 327.627 431.97 317.068 428.89C304.92 425.345 289.94 420.09 282.672 408.857C282.067 407.92 281.161 407.658 280.112 407.815C270.771 409.229 260.95 405.291 252.802 401.184C243.108 396.298 234.374 390.202 226.665 382.575C210.401 366.492 198.01 346.377 188.633 325.628C177.996 302.096 171.033 276.297 170.785 250.371C170.54 224.935 177.896 199.39 192.383 178.378C203.979 161.561 220.555 149.119 239.56 141.824C247.768 138.675 256.287 136.397 264.902 134.683C272.575 133.157 280.865 131.274 288.716 131.311C297.869 131.353 306.727 135.381 314.521 139.86C324.031 145.324 332.74 152.12 340.972 159.343C348.473 165.919 355.605 172.918 362.453 180.167C365.251 183.126 367.998 186.13 370.7 189.176C372.455 191.158 374.22 194.099 376.333 195.688C378.137 197.045 381.872 196.275 384.048 196.26C387.493 196.238 390.941 196.266 394.386 196.338C403.694 196.535 412.999 197.054 422.255 198.009C440.91 199.931 462.124 202.98 477.908 213.902C481.057 216.081 483.925 218.713 486.128 221.856C487.79 224.228 491.722 221.965 490.044 219.568Z" fill="#040606"/>
<path d="M279.142 164.804C273.231 173.812 265.265 194.047 280.599 204.416C293.687 213.267 307.585 214.618 321.438 191.642C335.294 168.663 339.564 151.389 339.564 151.389L308.31 131.19C308.31 131.19 295.914 139.243 279.142 164.804Z" fill="white"/>
<path d="M277.181 163.661C272.418 171.044 268.879 180.267 269.532 189.176C270.291 199.493 277.404 206.38 286.54 210.303C310.976 220.798 325.4 191.385 333.653 173.456C336.823 166.562 339.902 159.376 341.749 151.99C342.003 150.978 341.57 149.99 340.706 149.434C330.289 142.701 319.869 135.968 309.453 129.235C308.806 128.818 307.812 128.812 307.165 129.235C303.962 131.338 301.1 134.115 298.41 136.814C290.341 144.898 283.463 154.148 277.181 163.661C275.57 166.1 279.496 168.373 281.097 165.949C287.174 156.747 293.811 147.838 301.614 140.017C304.046 137.581 306.678 134.967 309.453 133.148C308.691 133.148 307.926 133.148 307.165 133.148C317.585 139.881 328.002 146.614 338.419 153.347C338.071 152.495 337.726 151.64 337.376 150.788C336.258 155.263 334.587 159.639 332.87 163.912C328.41 175.021 322.916 186.447 315.772 196.081C310.471 203.228 302.765 209.626 293.321 207.749C285.156 206.126 276.377 200.388 274.479 191.896C272.5 183.038 276.35 173.304 281.097 165.949C282.684 163.489 278.761 161.213 277.181 163.661Z" fill="#040606"/>
<path d="M239.161 143.897C233.606 150.361 225.653 165.568 238.121 175.864C248.762 184.655 260.526 187.529 273.66 170.884C286.797 154.239 291.432 140.93 291.432 140.93L265.963 120.697C265.963 120.697 254.933 125.557 239.161 143.897Z" fill="white"/>
<path d="M237.559 142.296C232.872 147.841 229.204 155.021 229.231 162.428C229.264 171.44 235.649 177.995 243.156 182.092C250.022 185.84 257.686 186.223 264.564 182.262C269.197 179.59 272.868 175.58 276.114 171.398C279.577 166.934 282.808 162.289 285.718 157.445C288.74 152.41 291.662 147.095 293.617 141.534C293.859 140.848 293.617 139.79 293.034 139.328C284.545 132.583 276.057 125.838 267.568 119.093C266.688 118.395 265.836 118.286 264.821 118.739C262.065 119.966 259.517 121.831 257.118 123.626C249.868 129.041 243.47 135.469 237.559 142.296C235.659 144.493 238.853 147.711 240.769 145.502C246.517 138.857 252.736 132.444 259.835 127.219C262.107 125.548 264.513 123.81 267.105 122.653C266.193 122.535 265.277 122.417 264.361 122.299C272.85 129.044 281.339 135.789 289.831 142.534C289.634 141.797 289.441 141.063 289.248 140.328C288.075 143.665 286.419 146.862 284.751 149.968C280.375 158.134 275.147 166.475 268.692 173.159C263.594 178.442 256.988 182.183 249.551 179.935C242.972 177.946 235.583 172.498 234.081 165.505C232.564 158.445 236.302 150.784 240.769 145.502C242.639 143.287 239.448 140.065 237.559 142.296Z" fill="#040606"/>
<path d="M466.195 249.03C463.373 259.425 453.5 278.802 435.567 274.194C420.267 270.262 410.043 260.755 418.067 235.15C426.087 209.544 436.19 194.897 436.19 194.897L472.031 204.909C472.031 204.909 474.218 219.529 466.195 249.03Z" fill="white"/>
<path d="M464.013 248.428C461.867 256.077 457.824 264.121 451.332 268.978C443.877 274.562 434.24 272.798 426.697 268.262C419.426 263.889 417.027 256.331 417.64 248.168C418.568 235.79 424.228 223.08 429.441 211.962C431.995 206.519 434.736 201.013 438.144 196.042C437.292 196.389 436.44 196.737 435.585 197.081C447.531 200.421 459.48 203.757 471.426 207.093C470.9 206.567 470.371 206.039 469.842 205.51C469.676 204.346 469.89 205.606 469.863 205.866C469.8 206.519 469.963 207.272 469.99 207.93C470.096 210.59 470.017 213.255 469.851 215.908C469.174 226.924 466.865 237.794 464.013 248.428C463.254 251.248 467.624 252.45 468.382 249.634C471.341 238.61 473.68 227.326 474.384 215.908C474.623 212.071 474.768 208.13 474.215 204.307C474.103 203.551 473.32 202.917 472.631 202.723C460.685 199.387 448.736 196.051 436.79 192.712C435.766 192.424 434.805 192.92 434.231 193.754C430.532 199.145 427.598 205.147 424.878 211.07C419.369 223.086 413.34 236.697 413.007 250.105C412.784 259.078 416.359 267.189 424.107 271.991C431.949 276.859 442.291 279.095 450.776 274.674C460.003 269.866 465.672 259.304 468.382 249.634C469.171 246.817 464.795 245.618 464.013 248.428Z" fill="#040606"/>
<path d="M508.349 265.107C507.194 273.55 501.081 289.588 485.103 287.077C471.468 284.934 461.517 278.032 465.276 257.162C469.033 236.292 475.923 224.002 475.923 224.002L507.956 229.659C507.956 229.659 511.628 241.139 508.349 265.107Z" fill="white"/>
<path d="M506.164 264.502C505.287 270.525 502.957 276.826 498.449 281.075C492.794 286.403 484.804 285.532 478.047 282.961C460.302 276.203 467.642 253.022 471.979 239.616C473.574 234.699 475.357 229.68 477.878 225.147C477.026 225.494 476.173 225.842 475.321 226.189C485.998 228.072 496.675 229.958 507.351 231.844C506.826 231.318 506.3 230.789 505.771 230.26C506.62 232.962 506.907 235.902 507.14 238.703C507.868 247.5 507.243 256.373 506.082 265.107C505.698 267.987 510.237 267.959 510.615 265.107C511.803 256.177 512.437 247.089 511.621 238.096C511.35 235.104 511.047 231.943 510.141 229.054C509.92 228.35 509.337 227.61 508.56 227.474C497.88 225.588 487.201 223.702 476.524 221.816C475.542 221.644 474.484 221.928 473.967 222.859C471.396 227.477 469.531 232.596 467.878 237.594C464.533 247.697 460.967 259.474 462.571 270.211C463.693 277.708 468.21 283.598 475.146 286.638C482.402 289.821 491.558 291.19 498.557 286.705C505.547 282.226 509.373 273.689 510.534 265.708C510.948 262.855 506.584 261.622 506.164 264.502Z" fill="#040606"/>
<path d="M308.165 201.829C300.731 213.159 290.716 238.613 310.006 251.656C326.466 262.792 343.946 264.49 361.374 235.588C378.801 206.682 384.172 184.954 384.172 184.954L344.858 159.548C344.858 159.548 329.265 169.678 308.165 201.829Z" fill="white"/>
<path d="M306.21 200.684C300.157 210.043 295.657 221.85 296.718 233.146C297.909 245.79 306.987 254.049 318.207 258.739C348.678 271.477 366.638 233.536 376.686 211.424C380.464 203.107 384.138 194.449 386.356 185.559C386.61 184.543 386.178 183.555 385.317 182.999C372.214 174.528 359.107 166.061 346.004 157.59C345.357 157.173 344.363 157.167 343.716 157.59C339.724 160.204 336.17 163.673 332.819 167.031C322.707 177.167 314.079 188.759 306.21 200.684C304.599 203.125 308.522 205.401 310.127 202.974C317.79 191.355 326.176 180.107 336.025 170.237C339.11 167.146 342.377 163.879 346.004 161.504C345.239 161.504 344.478 161.504 343.716 161.504C356.819 169.974 369.923 178.442 383.029 186.912C382.682 186.057 382.331 185.205 381.987 184.353C380.578 189.992 378.472 195.504 376.308 200.886C370.687 214.881 363.776 229.233 354.804 241.393C347.959 250.671 337.971 258.9 325.744 256.385C315.258 254.231 304.173 246.908 301.719 235.999C299.19 224.757 304.086 212.306 310.127 202.974C311.713 200.518 307.791 198.242 306.21 200.684Z" fill="#040606"/>
<path d="M419.233 251.84C415.676 264.913 403.262 289.289 380.705 283.493C361.458 278.546 348.6 266.584 358.69 234.379C368.778 202.171 381.488 183.745 381.488 183.745L426.57 196.341C426.57 196.341 429.323 214.73 419.233 251.84Z" fill="white"/>
<path d="M417.048 251.236C414.301 261.09 409.015 271.522 400.554 277.636C391.025 284.52 378.895 282.299 369.324 276.581C360.183 271.118 356.871 261.689 357.523 251.378C358.04 243.179 360.651 235.252 363.329 227.546C365.906 220.124 368.823 212.823 372.129 205.697C375.435 198.583 378.992 191.373 383.443 184.891C382.591 185.238 381.739 185.586 380.884 185.93C395.912 190.131 410.94 194.329 425.969 198.526C425.44 197.997 424.911 197.471 424.382 196.943C424.249 196.024 424.443 196.979 424.415 197.369C424.361 198.179 424.542 199.073 424.579 199.886C424.73 203.313 424.627 206.755 424.418 210.176C423.557 224.08 420.662 237.812 417.048 251.236C416.289 254.055 420.659 255.258 421.418 252.442C425.135 238.628 428.066 224.482 428.951 210.176C429.248 205.407 429.447 200.487 428.755 195.737C428.643 194.981 427.86 194.347 427.171 194.153C412.146 189.956 397.118 185.758 382.089 181.561C381.062 181.273 380.104 181.769 379.533 182.603C374.985 189.224 371.355 196.601 368.001 203.875C364.426 211.626 361.265 219.574 358.506 227.652C355.777 235.651 353.302 243.853 352.939 252.354C352.462 263.508 356.556 273.786 366.136 279.936C375.864 286.176 388.979 289.132 399.596 283.562C411.028 277.563 418.072 264.454 421.418 252.442C422.203 249.628 417.83 248.425 417.048 251.236Z" fill="#040606"/>
<mask id="mask0_1_288" style="mask-type:luminance" maskUnits="userSpaceOnUse" x="141" y="101" width="397" height="373">
<path d="M351.19 401.752C329.724 394.687 308.211 386.014 294.603 380.29C281.297 373.899 260.545 363.536 241.026 352.149C197.473 326.752 162.952 259.752 185.524 209.62C208.098 159.485 246.051 132.154 288.695 151.356C328.528 169.291 327.358 207.909 358.884 227.271C358.929 227.661 358.959 227.873 358.959 227.873C360.168 228.417 361.368 228.915 362.558 229.369C363.689 229.958 364.855 230.529 366.064 231.073C366.064 231.073 366.245 230.952 366.565 230.728C401.959 241.502 430.1 215.026 469.936 232.962C512.579 252.163 517.273 298.699 494.698 348.831C472.124 398.966 399.07 417.527 351.19 401.752ZM534.066 308.856C544.193 266.204 536.048 185.797 439.208 163.561C419.045 158.932 403.866 159.409 392.452 162.978C387.559 152.066 377.856 140.386 361.026 128.358C280.185 70.5866 214.583 117.787 189.355 153.643C163.013 191.089 127.667 266.914 147.108 337.647C160.281 385.564 215.045 423.855 249.01 443.577L248.209 445.351C248.209 445.351 253.597 447.765 262.684 451.174C271.264 455.722 276.643 458.155 276.643 458.155L277.438 456.381C314.717 468.735 379.69 484.356 424.301 462.455C490.147 430.129 523.492 353.4 534.066 308.856Z" fill="white"/>
</mask>
<g mask="url(#mask0_1_288)">
<path d="M351.19 401.752C329.724 394.687 308.211 386.014 294.603 380.29C281.297 373.899 260.545 363.536 241.026 352.149C197.473 326.752 162.952 259.752 185.524 209.62C208.098 159.485 246.051 132.154 288.695 151.356C328.528 169.291 327.358 207.909 358.884 227.271C358.929 227.661 358.959 227.873 358.959 227.873C360.168 228.417 361.368 228.915 362.558 229.369C363.689 229.958 364.855 230.529 366.064 231.073C366.064 231.073 366.245 230.952 366.565 230.728C401.959 241.502 430.1 215.026 469.936 232.962C512.579 252.163 517.273 298.699 494.698 348.831C472.124 398.966 399.07 417.527 351.19 401.752ZM534.066 308.856C544.193 266.204 536.048 185.797 439.208 163.561C419.045 158.932 403.866 159.409 392.452 162.978C387.559 152.066 377.856 140.386 361.026 128.358C280.185 70.5866 214.583 117.787 189.355 153.643C163.013 191.089 127.667 266.914 147.108 337.647C160.281 385.564 215.045 423.855 249.01 443.577L248.209 445.351C248.209 445.351 253.597 447.765 262.684 451.174C271.264 455.722 276.643 458.155 276.643 458.155L277.438 456.381C314.717 468.735 379.69 484.356 424.301 462.455C490.147 430.129 523.492 353.4 534.066 308.856Z" fill="url(#paint0_linear_1_288)"/>
</g>
<path d="M536.254 309.458C541.996 285.001 540.675 258.304 531.772 234.763C519.856 203.246 494.453 180.597 463.363 168.533C441.49 160.044 414.948 153.776 391.85 160.793C392.703 161.141 393.555 161.488 394.407 161.836C385.492 142.377 366.816 128.286 348.838 117.724C330.283 106.82 309.389 99.5798 287.743 99.0328C254.34 98.1867 222.591 113.798 199.724 137.59C189.271 148.467 181.051 161.259 173.689 174.365C163.553 192.416 155.246 211.584 149.229 231.396C136.754 272.465 132.741 321.996 154.309 360.829C172.934 394.361 205.456 419.41 237.502 439.31C240.926 441.437 244.383 443.508 247.864 445.535C247.592 444.502 247.323 443.468 247.054 442.432C246.785 443.027 246.519 443.616 246.254 444.206C245.797 445.227 245.858 446.771 247.069 447.309C251.566 449.316 256.208 450.957 260.747 452.858C265.788 454.964 270.514 457.847 275.497 460.11C276.519 460.573 278.054 460.5 278.598 459.294C278.864 458.705 279.13 458.116 279.396 457.524C278.544 457.871 277.688 458.219 276.836 458.563C299.063 465.907 321.943 471.561 345.227 474.217C370.068 477.049 396.529 476.604 419.94 466.892C462.756 449.131 494.251 409.368 514.386 368.897C523.791 349.992 531.34 330.01 536.254 309.458C536.931 306.623 532.561 305.414 531.884 308.255C522.712 346.598 504.901 384.128 479.748 414.563C465.074 432.311 447.479 447.738 427.048 458.518C404.76 470.279 379.297 472.422 354.514 470.567C328.467 468.614 302.792 462.368 278.042 454.193C277.178 453.909 275.875 454.366 275.482 455.236C275.216 455.825 274.95 456.418 274.681 457.01C275.718 456.738 276.752 456.466 277.785 456.197C273.05 454.042 268.556 451.368 263.829 449.219C259.106 447.07 254.105 445.514 249.354 443.396C249.626 444.429 249.895 445.46 250.167 446.496C250.436 445.904 250.702 445.315 250.968 444.722C251.469 443.607 251.303 442.29 250.152 441.622C219.092 423.541 188.195 401.399 166.869 372.031C154.838 355.462 147.915 337.188 145.204 316.913C142.221 294.565 144.056 271.749 149.027 249.822C153.635 229.502 160.858 209.789 170.021 191.092C177.062 176.725 185.097 162.298 195.085 149.742C213.985 125.989 241.76 108.211 272.155 104.336C291.553 101.864 311.205 105.279 329.153 112.843C340.253 117.524 350.715 123.701 360.476 130.746C369.442 137.216 378.046 144.731 384.501 153.782C386.822 157.037 388.831 160.488 390.494 164.124C390.898 165.003 392.168 165.435 393.053 165.163C413.352 158.998 436.044 163.924 455.609 170.53C472.471 176.227 488.485 184.885 501.504 197.133C521.857 216.283 532.987 242.946 534.824 270.619C535.664 283.215 534.77 295.958 531.884 308.255C531.216 311.09 535.586 312.304 536.254 309.458Z" fill="#040606"/>
<path d="M351.791 399.571C332.65 393.234 313.191 386.431 294.89 377.921C276.661 369.441 258.605 360.019 241.346 349.711C213.142 332.86 192.432 302.38 184.227 270.864C180.069 254.898 179.199 237.857 183.553 221.835C188.174 204.836 198.258 188.025 209.691 174.734C219.708 163.09 232.374 153.199 247.444 149.264C262.799 145.254 278.897 148.361 292.69 155.858C308.392 164.396 318.105 178.421 327.029 193.407C335.245 207.202 343.834 220.529 357.744 229.227C357.37 228.574 356.995 227.921 356.617 227.271C357.022 230.611 361.026 231.239 363.725 232.478C364.994 233.058 365.74 232.938 366.94 233.146C367.732 233.279 370.068 234.025 371.494 234.316C378.339 235.721 385.356 235.941 392.307 235.346C405.985 234.17 419.251 230.188 432.938 229.1C460.936 226.878 490.8 240.547 501.259 267.866C511.362 294.242 503.616 325.822 491.543 350.224C480.235 373.077 458.159 388.537 434.588 396.878C408.393 406.15 378.433 408.211 351.791 399.571C349.011 398.667 347.817 403.043 350.585 403.94C374.631 411.74 401.343 410.964 425.582 404.424C449.813 397.89 473.154 384.854 488.225 364.361C496.802 352.702 502.129 338.466 505.898 324.592C509.597 310.984 511.416 296.632 509.561 282.583C506.019 255.784 487.582 235.449 461.913 227.504C445.5 222.421 428.897 224.518 412.358 227.655C404.341 229.172 396.305 230.759 388.134 231.076C384.075 231.233 379.989 231.1 375.967 230.52C373.755 230.2 371.555 229.746 369.394 229.175C367.741 228.737 366.457 228.054 364.925 229.115C365.683 229.115 366.445 229.115 367.209 229.115C364.84 228.021 362.492 226.963 360.101 225.914C360.476 226.567 360.851 227.22 361.226 227.873C360.818 224.512 356.233 222.895 353.788 220.898C350.827 218.474 348.107 215.773 345.605 212.881C340.652 207.154 336.663 200.684 332.786 194.208C324.913 181.059 317.047 167.844 304.729 158.324C291.753 148.294 274.951 142.12 258.438 143C243.071 143.819 228.98 150.685 217.403 160.579C203.384 172.558 192.985 188.523 185.14 205.066C177.618 220.931 174.82 237.969 176.781 255.433C180.61 289.609 199.57 322.948 226.209 344.567C233.38 350.385 241.234 354.978 249.285 359.466C259.155 364.972 269.17 370.218 279.272 375.283C296.863 384.104 315.104 391.33 333.599 398.045C339.235 400.09 344.898 402.058 350.585 403.94C353.362 404.859 354.553 400.483 351.791 399.571Z" fill="#040606"/>
<mask id="mask1_1_288" style="mask-type:luminance" maskUnits="userSpaceOnUse" x="147" y="244" width="284" height="333">
<path d="M391.587 296.11C361.319 280.697 339.664 290.223 333.653 293.565C332.172 286.847 324.946 264.321 293.345 251.874C249.354 234.545 224.429 250.387 204.607 293.514C184.916 336.344 163.508 440.319 150.631 472.51C137.755 504.697 163.777 539.625 204.275 557.863C207.49 559.311 210.413 560.405 213.117 561.257C215.55 562.719 218.306 564.179 221.522 565.63C262.019 583.864 305.424 580.193 320.988 549.214C336.554 518.236 400.215 433.287 419.233 390.154C438.383 346.722 433.723 317.56 391.587 296.11Z" fill="white"/>
</mask>
<g mask="url(#mask1_1_288)">
<path d="M391.587 296.11C361.319 280.697 339.664 290.223 333.653 293.565C332.172 286.847 324.946 264.321 293.345 251.874C249.354 234.545 224.429 250.387 204.607 293.514C184.916 336.344 163.508 440.319 150.631 472.51C137.755 504.697 163.777 539.625 204.275 557.863C207.49 559.311 210.413 560.405 213.117 561.257C215.55 562.719 218.306 564.179 221.522 565.63C262.019 583.864 305.424 580.193 320.988 549.214C336.554 518.236 400.215 433.287 419.233 390.154C438.383 346.722 433.723 317.56 391.587 296.11Z" fill="url(#paint1_linear_1_288)"/>
</g>
<path d="M392.733 294.151C374.271 284.937 351.35 281.253 332.511 291.607C333.62 292.06 334.729 292.51 335.841 292.961C329.794 266.116 302.78 250.205 277.719 244.596C264.506 241.638 250.644 241.934 238.424 248.244C225.749 254.784 216.608 266.578 209.636 278.712C194.819 304.486 187.167 334.314 179.289 362.748C170.918 392.946 163.671 423.481 154.645 453.495C151.29 464.631 145.621 475.801 145.095 487.523C144.403 502.926 151.42 517.444 161.072 529.048C172.87 543.221 189.065 554.067 206.028 561.069C214.885 564.726 223.338 569.247 232.434 572.384C241.464 575.505 250.853 577.624 260.375 578.503C276.253 579.969 293.439 577.769 306.878 568.603C312.858 564.527 317.914 559.19 321.559 552.925C324.109 548.54 326.337 543.971 328.929 539.601C344.366 513.609 361.951 488.883 378.539 463.628C394.939 438.657 412.385 413.254 423.669 385.446C429.248 371.702 433.657 356.522 431.913 341.548C430.342 328.073 423.415 316.441 413.249 307.62C407.042 302.232 400.025 297.905 392.733 294.151C390.143 292.819 387.846 296.729 390.445 298.065C403.624 304.846 416.619 313.855 423.291 327.544C429.19 339.65 428.495 353.533 425.292 366.286C418.39 393.793 402.053 418.609 386.994 442.25C370.545 468.073 353.118 493.25 336.493 518.958C330.634 528.021 324.708 537.132 319.724 546.718C312.586 560.444 301.054 569.141 285.941 572.604C269.045 576.469 251.037 573.837 234.791 568.407C226.012 565.469 218.067 560.87 209.491 557.6C200.636 554.222 192.16 549.459 184.387 544.059C170.936 534.708 158.477 521.995 152.723 506.368C150.239 499.617 149.087 492.422 149.785 485.238C150.378 479.173 152.698 473.746 154.705 468.067C163.623 442.828 169.582 416.461 176.445 390.619C184.097 361.832 191.51 332.67 202.287 304.855C211.467 281.166 226.375 252.142 254.204 247.797C269.269 245.443 285.663 250.229 299.072 256.869C311.366 262.961 322.112 272.296 328.156 284.771C329.603 287.766 330.737 290.921 331.468 294.166C331.8 295.635 333.571 296.194 334.798 295.523C352.151 285.986 373.489 289.603 390.445 298.065C393.047 299.367 395.347 295.457 392.733 294.151Z" fill="#040606"/>
<path d="M316.379 419.371C313.13 415.509 309.734 413.01 306.367 411.493C293.469 405.684 280.958 414.282 278.444 416.174C278.196 413.037 276.341 397.969 263.443 392.167C260.076 390.65 255.954 389.764 250.907 389.891C224.265 390.547 217.203 420.828 220.875 439.21C224.547 457.59 245.577 489.167 245.577 489.167C245.577 489.167 283.161 483.984 299.359 474.55C315.56 465.112 333.547 439.757 316.379 419.371Z" fill="white"/>
<path d="M317.981 417.766C312.082 411.009 304.098 406.536 294.899 407.343C288.574 407.899 282.391 410.441 277.302 414.215C278.438 414.868 279.574 415.521 280.711 416.174C279.834 405.835 274.799 395.092 265.063 390.435C253.171 384.748 237.792 387.61 228.862 397.28C221.111 405.675 217.868 417.612 217.714 428.824C217.539 441.048 222.265 452.199 227.68 462.933C232.434 472.346 237.783 481.53 243.621 490.312C244.244 491.249 245.117 491.5 246.181 491.352C258.931 489.584 271.741 486.994 284.047 483.211C292.079 480.742 299.837 477.65 306.464 472.38C314.01 466.372 320.278 458.33 323.538 449.207C327.509 438.098 325.367 426.868 317.981 417.766C316.143 415.5 312.952 418.724 314.777 420.972C328.437 437.808 316.881 459.663 301.363 470.573C289.06 479.221 272.312 482.083 257.819 484.827C253.555 485.631 249.276 486.384 244.975 486.982C245.828 487.329 246.683 487.677 247.535 488.022C243.634 482.156 240.01 476.082 236.562 469.938C230.983 459.996 225.003 449.255 222.93 437.92C219.195 417.488 229.349 390.907 253.57 392.185C266.821 392.886 275.108 403.551 276.178 416.174C276.307 417.691 278.078 419.25 279.589 418.129C283.678 415.098 288.477 412.837 293.527 412.058C302.094 410.722 309.274 414.672 314.777 420.972C316.699 423.172 319.894 419.957 317.981 417.766Z" fill="#040606"/>
<path d="M332.465 293.087C322.468 315.287 312.472 337.49 302.475 359.692C301.064 362.829 299.649 365.966 298.238 369.103C297.05 371.741 300.955 374.047 302.151 371.39C312.148 349.188 322.145 326.985 332.142 304.786C333.556 301.646 334.964 298.509 336.379 295.375C337.566 292.737 333.662 290.428 332.465 293.087Z" fill="#040606"/>
<path d="M235.033 509.475C228.381 524.24 221.733 539.006 215.085 553.774C214.133 555.887 213.181 558.002 212.229 560.114C211.044 562.753 214.949 565.061 216.142 562.402C222.794 547.634 229.442 532.868 236.094 518.1C237.042 515.987 237.994 513.875 238.946 511.762C240.134 509.124 236.23 506.815 235.033 509.475Z" fill="#040606"/>
<defs>
<linearGradient id="paint0_linear_1_288" x1="200.343" y1="503.053" x2="430.686" y2="133.571" gradientUnits="userSpaceOnUse">
<stop stop-color="#C9E9A4"/>
<stop offset="0.293296" stop-color="#E57FC5"/>
<stop offset="0.46648" stop-color="#F57F9D"/>
<stop offset="0.667598" stop-color="#7A6BBC"/>
<stop offset="0.860335" stop-color="#86D7DF"/>
<stop offset="0.963687" stop-color="#9FDCA8"/>
<stop offset="1" stop-color="#9FDCA8"/>
</linearGradient>
<linearGradient id="paint1_linear_1_288" x1="472.073" y1="256.92" x2="165.95" y2="488.85" gradientUnits="userSpaceOnUse">
<stop stop-color="#C9E9A4"/>
<stop offset="0.293296" stop-color="#E57FC5"/>
<stop offset="0.46648" stop-color="#F57F9D"/>
<stop offset="0.667598" stop-color="#7A6BBC"/>
<stop offset="0.860335" stop-color="#86D7DF"/>
<stop offset="0.963687" stop-color="#9FDCA8"/>
<stop offset="1" stop-color="#9FDCA8"/>
</linearGradient>
</defs>
</svg>
