<svg width="982" height="525" viewBox="0 0 982 525" fill="none" xmlns="http://www.w3.org/2000/svg">
<g clip-path="url(#clip0_24_22)">
<path d="M259.077 8.99186L259.07 8.99847L259.063 9.00502C255.861 12.0735 253.53 14.1071 251.046 15.5101C248.511 16.9425 245.963 17.6369 242.49 18.3182C239.954 18.8353 237.894 19.2895 236.273 19.6998C236.598 19.7914 236.944 19.8862 237.311 19.9845C238.971 20.4251 240.473 20.9002 241.681 21.5431C242.939 22.2129 244.066 23.1638 244.685 24.6243C245.277 26.0219 245.247 27.523 245 28.9705C244.798 30.1523 244.417 31.4863 243.919 32.9773C244.972 32.0879 246.139 31.0511 247.346 29.9196C250.672 26.7274 253.068 24.628 255.6 23.1921C258.187 21.725 260.769 21.0306 264.296 20.3511C265.435 20.102 266.565 19.8568 267.628 19.626C268.809 19.3696 269.908 19.1311 270.843 18.9254C270.442 18.8035 270.005 18.6812 269.531 18.5599C267.802 18.1442 266.135 17.6503 264.828 17.1535C264.18 16.9072 263.554 16.6349 263.034 16.3406C262.775 16.1945 262.483 16.0092 262.21 15.7797C262.017 15.6167 261.675 15.3022 261.417 14.8234C261.155 14.3732 261.064 13.9394 261.025 13.698C260.97 13.3566 260.962 13.0234 260.97 12.7405C260.985 12.1705 261.073 11.5332 261.194 10.8973C261.44 9.61449 261.877 8.05813 262.444 6.49658C262.572 6.12763 262.692 5.77685 262.805 5.44373C261.76 6.40356 260.525 7.5824 259.077 8.99186ZM232.43 18.3166C232.43 18.3166 232.431 18.3173 232.433 18.3187C232.431 18.3173 232.43 18.3166 232.43 18.3166ZM274.046 18.0912C274.046 18.0912 274.043 18.0929 274.039 18.0964C274.044 18.093 274.046 18.0912 274.046 18.0912Z" fill="black" stroke="white" stroke-width="5"/>
<mask id="path-2-inside-1_24_22" fill="white">
<path d="M736.667 18.1334C733.733 18.4 724.8 19.3334 716.667 20C646.667 26.6667 560.8 49.0667 475.2 82.8L448.533 93.3334H419.067C402.667 93.3334 388 93.8667 385.867 94.6667C383.467 95.6 375.867 103.067 365.467 115.333C356.267 126 348.533 134.667 348.133 134.533C347.733 134.533 341.067 126.933 333.333 117.6C313.6 93.8667 314.667 94.2667 275.867 93.6C229.2 92.8 215.867 95.7334 200 110.267C190.267 119.333 186.533 125.867 171.2 161.333C152 205.467 152.133 208.533 174.533 235.2C181.2 243.067 186.667 250 186.667 250.533C186.667 250.933 179.333 257.867 170.533 265.867C144.4 289.467 115.2 322.667 98.2666 348.267C69.5999 391.2 62.3999 435.6 78.9332 467.2C88.6666 485.733 109.6 501.467 136.8 510.533C159.067 518 178.267 520.533 212 520.533C243.733 520.533 258.933 519.333 291.333 513.867C339.333 505.867 397.067 490.267 439.733 473.867L455.333 467.867L525.467 468H595.6L599.067 464.533C600.933 462.667 602.933 459.867 603.333 458.533C604.533 454.933 606.133 455.333 609.6 460.133C615.733 468.4 610.933 468 715.467 468C768 468 811.2 468.133 811.6 468.4C811.867 468.667 809.333 475.333 805.867 483.2C798.933 499.467 798.933 500.933 806.267 511.733C815.067 524.533 821.733 525.6 838.267 516.667L849.333 510.667L857.067 516.667C866.667 524.133 872.133 525.867 877.867 523.467C885.733 520.133 886.933 517.467 888.667 499.867C889.6 491.067 890.933 483.333 891.467 482.8C892.133 482.133 897.6 477.733 903.733 472.667C909.733 467.733 915.733 461.867 916.8 459.733C919.733 454.133 918.267 448.4 912.4 440.533C906 432.133 904.4 430.933 898.4 429.867C895.6 429.333 893.333 428.8 893.333 428.667C893.333 428.4 894.8 425.067 896.667 421.067C900.933 412 900.8 409.6 896 402.933L892.133 397.467L898.8 383.067C905.333 369.067 906 365.867 903.333 359.6C902.533 357.6 903.467 357.333 913.2 357.333C922.267 357.333 924.4 356.933 926.8 354.533C930.933 350.4 952 305.6 952 300.8C952 297.467 948.267 292.267 932 272.667C920.933 259.467 909.867 246.667 907.333 244.267L902.667 240H885.2C875.6 240 868 239.467 868.267 238.933C868.533 238.4 874.933 229.333 882.667 218.933C892.667 205.333 897.333 200 899.333 200C900.8 200.133 911.867 201.467 924 203.2C936.133 204.933 946.133 206.267 946.267 206.133C946.4 206 939.867 198.533 931.867 189.467C922.133 178.667 917.6 172.533 918.4 171.6C919.067 170.667 926.267 161.2 934.533 150.267C942.667 139.467 949.067 130.667 948.667 130.667C948.267 130.667 938.667 134.933 927.2 140.133C915.733 145.2 906.133 149.2 905.733 148.933C905.467 148.533 906.4 145.333 907.867 141.733C913.867 127.333 915.333 119.867 915.333 102.667C915.2 87.6 914.933 85.2 911.6 77.3334C902.4 55.3334 882.4 39.3334 850.533 28.8C827.2 20.9334 809.467 18.5334 773.333 18C756.133 17.7334 739.6 17.8667 736.667 18.1334ZM822.667 38.8C868.667 43.7334 900 64.6667 906.667 94.9334C909.2 106.267 907.733 126.267 903.467 139.6C901.467 145.733 899.333 150.667 898.8 150.667C898.133 150.667 891.733 143.733 884.533 135.2C869.067 117.2 869.733 116.8 869.333 142.667C868.8 168.533 871.2 165.333 842.933 177.867C823.733 186.267 819.2 188.8 821.6 189.467C823.333 189.867 834.133 191.333 845.867 192.667L866.933 195.2L866 216.533C865.467 228.4 864.667 238.4 864.133 238.933C863.333 239.867 822.133 240.267 737.867 240.133L696.267 240L698.8 231.867C703.333 217.2 701.6 202.533 694.133 192.8C692.267 190.267 690.667 187.867 690.667 187.467C690.667 187.067 694.133 186.667 698.4 186.667C707.867 186.667 709.867 184.933 712.133 174.667C714 165.867 713.067 156.533 709.467 149.467C708 146.533 698.533 134.533 688.533 122.533C664 93.6 665.6 94.2667 625.867 93.6C588.933 92.9334 577.467 94.2667 565.6 100.667L557.067 105.467L552.267 99.8667C547.733 94.9334 546.533 94.2667 539.333 93.4667L531.333 92.6667L550.667 85.7334C613.067 63.7334 666 50.2667 725.733 41.3334C757.6 36.5334 793.467 35.6 822.667 38.8ZM308.667 105.333C320.133 110.933 322 122 314.4 142.133L310 154L283.067 154.4C268.133 154.533 256 154.4 256 154C256 153.733 257.867 148.8 260.133 143.067C262.4 137.333 265.467 129.867 266.8 126.267L269.333 120H261.6H253.867L246.4 138.267C242.267 148.4 234.267 167.6 228.8 181.067L218.8 205.467L226.8 205.067L234.933 204.667L241.867 187.733L248.667 170.667H275.733C294 170.667 302.667 171.067 302.667 172.133C302.667 174.933 294.133 194.133 290.533 199.467C284.933 207.6 275.467 215.467 266.8 218.933C259.733 221.733 257.2 222 222.667 222.4C182.267 222.933 177.067 222.267 170.667 215.733C165.867 211.067 164.533 204.533 166.533 196.667C169.067 186.4 192.933 133.067 198.4 125.333C204.4 116.933 216.933 107.733 226.4 104.8C231.2 103.333 241.067 102.8 267.867 102.8C300.4 102.667 303.6 102.933 308.667 105.333ZM542.667 103.6C542.667 104.267 534.8 131.2 525.067 163.6L507.6 222.667H481.733C467.6 222.667 456 222.267 456 221.867C456 221.467 463.2 198.667 472 171.2C480.8 143.733 488 120.933 488 120.667C488 120.267 484.533 120 480.267 120H472.533L456 171.333L439.333 222.667H413.733C399.067 222.667 388 222.133 388 221.467C388 220.4 419.333 129.2 422 122.267C422.8 120.267 422 120 414.933 120H406.933L396.667 149.867L386.267 179.733L368.133 201.2L350 222.667H317.6C292 222.667 285.333 222.267 286.133 220.933C287.2 219.333 364.533 129.467 379.733 112.267L388.267 102.667H465.467C507.867 102.667 542.667 103.067 542.667 103.6ZM657.067 104.667C669.6 110 674.267 120.267 671.2 135.867L670.4 140H643.2C628.267 140 616 139.867 616 139.6C616 139.467 617.2 134.933 618.533 129.6L621.067 120H613.2H605.467L603.867 125.6C603.067 128.8 601.067 136.267 599.333 142.267L596.4 153.333H618.533C630.667 153.333 642.8 154 645.6 154.667C652.4 156.667 659.6 164.933 660.667 172.4C661.733 179.067 658.933 191.467 654.667 199.867C650.933 207.333 643.2 214.4 634.667 218.533C627.333 222 627.067 222 590.533 222.4C566.667 222.667 551.733 222.4 548.267 221.333C534.133 217.6 527.733 204.667 532.133 188.933L533.467 184H560.667C575.733 184 588 184.133 588 184.4C588 184.533 586.8 188.933 585.333 194C583.867 199.067 582.667 203.733 582.667 204.267C582.667 204.933 586.267 205.333 590.667 205.333H598.533L600 199.6C600.8 196.533 602.933 188.8 604.667 182.4L607.733 170.933L583.333 170.4C556.133 170 554.8 169.6 548.4 160C540.533 148.533 550 121.333 565.467 111.067C576.933 103.467 581.6 102.8 618.4 102.667C645.867 102.667 652.933 103.067 657.067 104.667ZM249.867 243.6C250.133 244.933 250.933 249.2 251.333 253.067C252.4 261.067 253.467 261.867 263.6 263.333C267.467 263.867 270.933 264.667 271.333 265.333C271.733 265.867 267.733 269.733 262.667 273.867C252.8 281.867 252.667 282.267 251.333 296.267C250.8 301.333 250.133 305.333 249.733 305.333C249.2 305.333 245.6 302.8 241.6 299.733L234.4 294.133L224.533 299.333C219.2 302.267 214.4 304.267 214 303.867C213.6 303.333 215.333 298.133 217.867 292.267L222.533 281.467L217.2 273.2C214.267 268.667 212.133 264.8 212.4 264.4C212.8 264.133 217.467 263.2 222.933 262.4C228.267 261.733 233.333 260.533 234.267 259.867C235.067 259.067 238.267 254.667 241.333 249.867C247.2 240.933 248.667 239.867 249.867 243.6ZM340 252.8C340 253.2 319.2 288 293.733 330.133L247.6 406.667H222.4C208.533 406.667 197.467 406.267 197.733 405.6C199.867 401.467 247.467 324.267 248.933 322.533C250 321.2 252 320.667 253.867 320.933C255.867 321.333 258.133 320.4 260.4 318.4C263.467 315.733 264.133 313.733 265.2 304C266.4 292.8 266.533 292.667 272.267 288C284.667 278 285.733 276.4 285.067 270.133C284.533 265.333 285.067 263.2 288.133 258.133L292 252H316C329.2 252 340 252.4 340 252.8ZM382.133 289.2L344.933 326.4L337.333 366.267L329.867 406L300.267 406.4C284 406.533 270.667 406.4 270.667 406.133C270.667 405.867 271.867 400.267 273.467 393.733C276.133 382.667 278 379.067 308.267 328.667C335.067 284 342.133 273.467 350.933 263.6L361.6 252H390.533H419.333L382.133 289.2ZM516.533 261.6C515.467 266.933 508.933 301.6 501.867 338.667C494.8 375.733 488.933 406.133 488.667 406.4C488.533 406.533 474.267 406.533 457.067 406.4L425.867 406L431.733 378.667L437.467 351.333L458.8 313.867C470.4 293.2 480 276 480 275.467C480 275.067 476.8 274.667 472.8 274.667H465.6L427.867 340.667L390 406.533L365.067 406.667C351.2 406.667 340 406.4 340 406.133C340 405.733 360.133 370.933 384.8 328.8L429.6 252H474H518.4L516.533 261.6ZM651.067 263.333L645.2 274.667H632.933L620.667 274.8L585.333 340.267C566 376.133 549.467 405.867 548.667 406.133C547.867 406.533 536.4 406.533 523.067 406.4L498.933 406L535.333 340.267L571.733 274.667H560.533C552.4 274.667 549.333 274.267 549.333 272.933C549.333 272.133 551.733 266.933 554.667 261.6L560.133 252H608.533H656.933L651.067 263.333ZM774.667 252.667C774.667 253.067 772.267 258 769.467 263.733C764.533 273.733 761.867 276.533 708 328.667L651.733 383.333L679.867 383.733L708 384L702.4 395.333L696.8 406.667H638.267H579.867L585.6 395.867C591.067 385.467 593.867 382.533 648.4 330.133L705.467 275.333L678.8 274.933C662.8 274.8 652 274.133 652 273.333C652 272.667 654.267 267.6 656.933 262L661.867 252H718.267C749.333 252 774.667 252.267 774.667 252.667ZM897.6 254.267C897.067 255.6 892.4 265.467 887.333 276.267L878 295.867H853.733C840.267 296 829.333 295.733 829.333 295.333C829.333 294.933 831.467 290.4 834 285.333C836.533 280.267 838.667 275.733 838.667 275.333C838.667 274.933 835.467 274.667 831.6 274.667H824.667L814.267 295.333C808.667 306.667 804 316.267 804 316.667C804 317.067 814.8 317.333 828 317.333H852L846.4 328.667L840.8 340H816.4H792L781.333 361.333C775.467 373.067 770.667 382.933 770.667 383.333C770.667 383.733 774.133 384 778.4 384H786L791.2 372.667L796.4 361.333H821.467H846.667L843.467 368.267C841.733 372.133 836.933 382.4 832.667 390.933L824.933 406.667H767.067C735.333 406.667 709.333 406.4 709.333 406C709.333 405.067 736.667 350.533 763.6 297.6L786.933 252H842.8C895.6 252 898.667 252.133 897.6 254.267ZM210 279.2C212 282.267 212 283.067 208.133 291.733C205.867 296.933 204 302.267 204 303.733C204 307.6 212.133 317.733 216.4 319.2C219.467 320.267 221.6 319.733 228.667 316.267C237.733 311.867 240 311.2 240 313.067C240 313.733 227.733 334.267 212.667 358.667C197.6 383.2 185.333 404.533 185.333 406.133C185.333 410 189.733 416 212.267 442.933C223.467 456.267 233.333 466.667 234.933 467.2C236.667 467.6 250.4 468 265.6 468C292.933 468 293.2 468 296.933 464.8L300.667 461.467L303.733 464.4C307.067 467.467 310.667 467.6 397.333 468C407.867 468 414.533 468.533 413.333 469.2C408.4 472 355.733 483.6 326 488.533C283.2 495.6 270.933 496.667 228.667 496.667C192.4 496.667 187.2 496.267 173.6 493.6C145.467 488 127.467 479.6 113.867 466.133C103.067 455.2 99.5999 446.533 99.4666 430C99.3332 400 120.133 363.333 162.933 317.867C171.733 308.667 206.4 276.133 207.6 276C207.867 276 208.933 277.467 210 279.2ZM868.133 423.733C869.2 431.2 870.533 437.6 870.933 438C871.333 438.4 877.467 439.733 884.533 441.067C891.6 442.267 897.333 443.867 897.333 444.667C897.333 445.467 891.467 450.933 884.133 456.933C869.467 468.933 870.267 467.333 868.533 489.733C868 496.133 867.2 501.6 866.8 502C866.267 502.267 861.467 498.933 856 494.667C850.533 490.267 845.2 486.8 844.267 486.667C843.2 486.667 836.4 489.733 829.2 493.467C821.867 497.2 815.467 499.867 815.067 499.467C814.533 498.933 816.133 494 818.533 488.267C820.933 482.667 823.867 475.467 825.067 472.4L827.2 466.8L819.6 455.333C815.333 449.067 812.267 443.467 812.533 442.8C812.933 442.267 817.333 441.333 822.267 440.8C827.2 440.267 834.133 439.6 837.6 439.2L843.867 438.4L853.467 423.733C858.8 415.733 863.733 409.467 864.533 409.733C865.333 410 866.933 416.267 868.133 423.733ZM451.333 454.933C453.333 457.867 453.2 458 448.4 459.6C445.733 460.533 443.333 461.067 442.933 460.8C442.267 460 446.933 452 448.267 452C448.8 452 450.133 453.333 451.333 454.933Z"/>
</mask>
<path d="M736.667 18.1334C733.733 18.4 724.8 19.3334 716.667 20C646.667 26.6667 560.8 49.0667 475.2 82.8L448.533 93.3334H419.067C402.667 93.3334 388 93.8667 385.867 94.6667C383.467 95.6 375.867 103.067 365.467 115.333C356.267 126 348.533 134.667 348.133 134.533C347.733 134.533 341.067 126.933 333.333 117.6C313.6 93.8667 314.667 94.2667 275.867 93.6C229.2 92.8 215.867 95.7334 200 110.267C190.267 119.333 186.533 125.867 171.2 161.333C152 205.467 152.133 208.533 174.533 235.2C181.2 243.067 186.667 250 186.667 250.533C186.667 250.933 179.333 257.867 170.533 265.867C144.4 289.467 115.2 322.667 98.2666 348.267C69.5999 391.2 62.3999 435.6 78.9332 467.2C88.6666 485.733 109.6 501.467 136.8 510.533C159.067 518 178.267 520.533 212 520.533C243.733 520.533 258.933 519.333 291.333 513.867C339.333 505.867 397.067 490.267 439.733 473.867L455.333 467.867L525.467 468H595.6L599.067 464.533C600.933 462.667 602.933 459.867 603.333 458.533C604.533 454.933 606.133 455.333 609.6 460.133C615.733 468.4 610.933 468 715.467 468C768 468 811.2 468.133 811.6 468.4C811.867 468.667 809.333 475.333 805.867 483.2C798.933 499.467 798.933 500.933 806.267 511.733C815.067 524.533 821.733 525.6 838.267 516.667L849.333 510.667L857.067 516.667C866.667 524.133 872.133 525.867 877.867 523.467C885.733 520.133 886.933 517.467 888.667 499.867C889.6 491.067 890.933 483.333 891.467 482.8C892.133 482.133 897.6 477.733 903.733 472.667C909.733 467.733 915.733 461.867 916.8 459.733C919.733 454.133 918.267 448.4 912.4 440.533C906 432.133 904.4 430.933 898.4 429.867C895.6 429.333 893.333 428.8 893.333 428.667C893.333 428.4 894.8 425.067 896.667 421.067C900.933 412 900.8 409.6 896 402.933L892.133 397.467L898.8 383.067C905.333 369.067 906 365.867 903.333 359.6C902.533 357.6 903.467 357.333 913.2 357.333C922.267 357.333 924.4 356.933 926.8 354.533C930.933 350.4 952 305.6 952 300.8C952 297.467 948.267 292.267 932 272.667C920.933 259.467 909.867 246.667 907.333 244.267L902.667 240H885.2C875.6 240 868 239.467 868.267 238.933C868.533 238.4 874.933 229.333 882.667 218.933C892.667 205.333 897.333 200 899.333 200C900.8 200.133 911.867 201.467 924 203.2C936.133 204.933 946.133 206.267 946.267 206.133C946.4 206 939.867 198.533 931.867 189.467C922.133 178.667 917.6 172.533 918.4 171.6C919.067 170.667 926.267 161.2 934.533 150.267C942.667 139.467 949.067 130.667 948.667 130.667C948.267 130.667 938.667 134.933 927.2 140.133C915.733 145.2 906.133 149.2 905.733 148.933C905.467 148.533 906.4 145.333 907.867 141.733C913.867 127.333 915.333 119.867 915.333 102.667C915.2 87.6 914.933 85.2 911.6 77.3334C902.4 55.3334 882.4 39.3334 850.533 28.8C827.2 20.9334 809.467 18.5334 773.333 18C756.133 17.7334 739.6 17.8667 736.667 18.1334ZM822.667 38.8C868.667 43.7334 900 64.6667 906.667 94.9334C909.2 106.267 907.733 126.267 903.467 139.6C901.467 145.733 899.333 150.667 898.8 150.667C898.133 150.667 891.733 143.733 884.533 135.2C869.067 117.2 869.733 116.8 869.333 142.667C868.8 168.533 871.2 165.333 842.933 177.867C823.733 186.267 819.2 188.8 821.6 189.467C823.333 189.867 834.133 191.333 845.867 192.667L866.933 195.2L866 216.533C865.467 228.4 864.667 238.4 864.133 238.933C863.333 239.867 822.133 240.267 737.867 240.133L696.267 240L698.8 231.867C703.333 217.2 701.6 202.533 694.133 192.8C692.267 190.267 690.667 187.867 690.667 187.467C690.667 187.067 694.133 186.667 698.4 186.667C707.867 186.667 709.867 184.933 712.133 174.667C714 165.867 713.067 156.533 709.467 149.467C708 146.533 698.533 134.533 688.533 122.533C664 93.6 665.6 94.2667 625.867 93.6C588.933 92.9334 577.467 94.2667 565.6 100.667L557.067 105.467L552.267 99.8667C547.733 94.9334 546.533 94.2667 539.333 93.4667L531.333 92.6667L550.667 85.7334C613.067 63.7334 666 50.2667 725.733 41.3334C757.6 36.5334 793.467 35.6 822.667 38.8ZM308.667 105.333C320.133 110.933 322 122 314.4 142.133L310 154L283.067 154.4C268.133 154.533 256 154.4 256 154C256 153.733 257.867 148.8 260.133 143.067C262.4 137.333 265.467 129.867 266.8 126.267L269.333 120H261.6H253.867L246.4 138.267C242.267 148.4 234.267 167.6 228.8 181.067L218.8 205.467L226.8 205.067L234.933 204.667L241.867 187.733L248.667 170.667H275.733C294 170.667 302.667 171.067 302.667 172.133C302.667 174.933 294.133 194.133 290.533 199.467C284.933 207.6 275.467 215.467 266.8 218.933C259.733 221.733 257.2 222 222.667 222.4C182.267 222.933 177.067 222.267 170.667 215.733C165.867 211.067 164.533 204.533 166.533 196.667C169.067 186.4 192.933 133.067 198.4 125.333C204.4 116.933 216.933 107.733 226.4 104.8C231.2 103.333 241.067 102.8 267.867 102.8C300.4 102.667 303.6 102.933 308.667 105.333ZM542.667 103.6C542.667 104.267 534.8 131.2 525.067 163.6L507.6 222.667H481.733C467.6 222.667 456 222.267 456 221.867C456 221.467 463.2 198.667 472 171.2C480.8 143.733 488 120.933 488 120.667C488 120.267 484.533 120 480.267 120H472.533L456 171.333L439.333 222.667H413.733C399.067 222.667 388 222.133 388 221.467C388 220.4 419.333 129.2 422 122.267C422.8 120.267 422 120 414.933 120H406.933L396.667 149.867L386.267 179.733L368.133 201.2L350 222.667H317.6C292 222.667 285.333 222.267 286.133 220.933C287.2 219.333 364.533 129.467 379.733 112.267L388.267 102.667H465.467C507.867 102.667 542.667 103.067 542.667 103.6ZM657.067 104.667C669.6 110 674.267 120.267 671.2 135.867L670.4 140H643.2C628.267 140 616 139.867 616 139.6C616 139.467 617.2 134.933 618.533 129.6L621.067 120H613.2H605.467L603.867 125.6C603.067 128.8 601.067 136.267 599.333 142.267L596.4 153.333H618.533C630.667 153.333 642.8 154 645.6 154.667C652.4 156.667 659.6 164.933 660.667 172.4C661.733 179.067 658.933 191.467 654.667 199.867C650.933 207.333 643.2 214.4 634.667 218.533C627.333 222 627.067 222 590.533 222.4C566.667 222.667 551.733 222.4 548.267 221.333C534.133 217.6 527.733 204.667 532.133 188.933L533.467 184H560.667C575.733 184 588 184.133 588 184.4C588 184.533 586.8 188.933 585.333 194C583.867 199.067 582.667 203.733 582.667 204.267C582.667 204.933 586.267 205.333 590.667 205.333H598.533L600 199.6C600.8 196.533 602.933 188.8 604.667 182.4L607.733 170.933L583.333 170.4C556.133 170 554.8 169.6 548.4 160C540.533 148.533 550 121.333 565.467 111.067C576.933 103.467 581.6 102.8 618.4 102.667C645.867 102.667 652.933 103.067 657.067 104.667ZM249.867 243.6C250.133 244.933 250.933 249.2 251.333 253.067C252.4 261.067 253.467 261.867 263.6 263.333C267.467 263.867 270.933 264.667 271.333 265.333C271.733 265.867 267.733 269.733 262.667 273.867C252.8 281.867 252.667 282.267 251.333 296.267C250.8 301.333 250.133 305.333 249.733 305.333C249.2 305.333 245.6 302.8 241.6 299.733L234.4 294.133L224.533 299.333C219.2 302.267 214.4 304.267 214 303.867C213.6 303.333 215.333 298.133 217.867 292.267L222.533 281.467L217.2 273.2C214.267 268.667 212.133 264.8 212.4 264.4C212.8 264.133 217.467 263.2 222.933 262.4C228.267 261.733 233.333 260.533 234.267 259.867C235.067 259.067 238.267 254.667 241.333 249.867C247.2 240.933 248.667 239.867 249.867 243.6ZM340 252.8C340 253.2 319.2 288 293.733 330.133L247.6 406.667H222.4C208.533 406.667 197.467 406.267 197.733 405.6C199.867 401.467 247.467 324.267 248.933 322.533C250 321.2 252 320.667 253.867 320.933C255.867 321.333 258.133 320.4 260.4 318.4C263.467 315.733 264.133 313.733 265.2 304C266.4 292.8 266.533 292.667 272.267 288C284.667 278 285.733 276.4 285.067 270.133C284.533 265.333 285.067 263.2 288.133 258.133L292 252H316C329.2 252 340 252.4 340 252.8ZM382.133 289.2L344.933 326.4L337.333 366.267L329.867 406L300.267 406.4C284 406.533 270.667 406.4 270.667 406.133C270.667 405.867 271.867 400.267 273.467 393.733C276.133 382.667 278 379.067 308.267 328.667C335.067 284 342.133 273.467 350.933 263.6L361.6 252H390.533H419.333L382.133 289.2ZM516.533 261.6C515.467 266.933 508.933 301.6 501.867 338.667C494.8 375.733 488.933 406.133 488.667 406.4C488.533 406.533 474.267 406.533 457.067 406.4L425.867 406L431.733 378.667L437.467 351.333L458.8 313.867C470.4 293.2 480 276 480 275.467C480 275.067 476.8 274.667 472.8 274.667H465.6L427.867 340.667L390 406.533L365.067 406.667C351.2 406.667 340 406.4 340 406.133C340 405.733 360.133 370.933 384.8 328.8L429.6 252H474H518.4L516.533 261.6ZM651.067 263.333L645.2 274.667H632.933L620.667 274.8L585.333 340.267C566 376.133 549.467 405.867 548.667 406.133C547.867 406.533 536.4 406.533 523.067 406.4L498.933 406L535.333 340.267L571.733 274.667H560.533C552.4 274.667 549.333 274.267 549.333 272.933C549.333 272.133 551.733 266.933 554.667 261.6L560.133 252H608.533H656.933L651.067 263.333ZM774.667 252.667C774.667 253.067 772.267 258 769.467 263.733C764.533 273.733 761.867 276.533 708 328.667L651.733 383.333L679.867 383.733L708 384L702.4 395.333L696.8 406.667H638.267H579.867L585.6 395.867C591.067 385.467 593.867 382.533 648.4 330.133L705.467 275.333L678.8 274.933C662.8 274.8 652 274.133 652 273.333C652 272.667 654.267 267.6 656.933 262L661.867 252H718.267C749.333 252 774.667 252.267 774.667 252.667ZM897.6 254.267C897.067 255.6 892.4 265.467 887.333 276.267L878 295.867H853.733C840.267 296 829.333 295.733 829.333 295.333C829.333 294.933 831.467 290.4 834 285.333C836.533 280.267 838.667 275.733 838.667 275.333C838.667 274.933 835.467 274.667 831.6 274.667H824.667L814.267 295.333C808.667 306.667 804 316.267 804 316.667C804 317.067 814.8 317.333 828 317.333H852L846.4 328.667L840.8 340H816.4H792L781.333 361.333C775.467 373.067 770.667 382.933 770.667 383.333C770.667 383.733 774.133 384 778.4 384H786L791.2 372.667L796.4 361.333H821.467H846.667L843.467 368.267C841.733 372.133 836.933 382.4 832.667 390.933L824.933 406.667H767.067C735.333 406.667 709.333 406.4 709.333 406C709.333 405.067 736.667 350.533 763.6 297.6L786.933 252H842.8C895.6 252 898.667 252.133 897.6 254.267ZM210 279.2C212 282.267 212 283.067 208.133 291.733C205.867 296.933 204 302.267 204 303.733C204 307.6 212.133 317.733 216.4 319.2C219.467 320.267 221.6 319.733 228.667 316.267C237.733 311.867 240 311.2 240 313.067C240 313.733 227.733 334.267 212.667 358.667C197.6 383.2 185.333 404.533 185.333 406.133C185.333 410 189.733 416 212.267 442.933C223.467 456.267 233.333 466.667 234.933 467.2C236.667 467.6 250.4 468 265.6 468C292.933 468 293.2 468 296.933 464.8L300.667 461.467L303.733 464.4C307.067 467.467 310.667 467.6 397.333 468C407.867 468 414.533 468.533 413.333 469.2C408.4 472 355.733 483.6 326 488.533C283.2 495.6 270.933 496.667 228.667 496.667C192.4 496.667 187.2 496.267 173.6 493.6C145.467 488 127.467 479.6 113.867 466.133C103.067 455.2 99.5999 446.533 99.4666 430C99.3332 400 120.133 363.333 162.933 317.867C171.733 308.667 206.4 276.133 207.6 276C207.867 276 208.933 277.467 210 279.2ZM868.133 423.733C869.2 431.2 870.533 437.6 870.933 438C871.333 438.4 877.467 439.733 884.533 441.067C891.6 442.267 897.333 443.867 897.333 444.667C897.333 445.467 891.467 450.933 884.133 456.933C869.467 468.933 870.267 467.333 868.533 489.733C868 496.133 867.2 501.6 866.8 502C866.267 502.267 861.467 498.933 856 494.667C850.533 490.267 845.2 486.8 844.267 486.667C843.2 486.667 836.4 489.733 829.2 493.467C821.867 497.2 815.467 499.867 815.067 499.467C814.533 498.933 816.133 494 818.533 488.267C820.933 482.667 823.867 475.467 825.067 472.4L827.2 466.8L819.6 455.333C815.333 449.067 812.267 443.467 812.533 442.8C812.933 442.267 817.333 441.333 822.267 440.8C827.2 440.267 834.133 439.6 837.6 439.2L843.867 438.4L853.467 423.733C858.8 415.733 863.733 409.467 864.533 409.733C865.333 410 866.933 416.267 868.133 423.733ZM451.333 454.933C453.333 457.867 453.2 458 448.4 459.6C445.733 460.533 443.333 461.067 442.933 460.8C442.267 460 446.933 452 448.267 452C448.8 452 450.133 453.333 451.333 454.933Z" fill="black" stroke="white" stroke-width="10" mask="url(#path-2-inside-1_24_22)"/>
<path d="M151.636 93.2409L151.636 93.2408C153.152 89.6569 154.94 84.1691 155.647 80.7796C155.913 79.5148 156.128 78.4093 156.235 77.4539C156.342 76.4939 156.36 75.5247 156.132 74.5694C155.641 72.5159 154.185 71.2803 152.729 70.1552C150.928 68.7637 148.676 67.7202 145.412 66.7254C142.167 65.7361 137.765 64.7507 131.571 63.5512C130.14 63.2381 129.481 62.93 129.209 62.7278C129.192 62.715 129.178 62.7039 129.167 62.6946C129.167 62.6865 129.167 62.6772 129.167 62.6667C129.167 62.0448 129.284 61.768 129.41 61.5859C129.559 61.3689 129.921 60.9999 130.888 60.5501C132.923 59.603 136.609 58.7441 143.198 57.6683C155.376 55.7382 162.962 54.1264 169.74 50.5244C176.504 46.9296 182.29 41.4444 191.131 32.271C194.984 28.2849 197.973 25.3989 200.231 23.5229C201.362 22.5829 202.247 21.949 202.919 21.5619C203.519 21.2163 203.772 21.1716 203.771 21.1669C203.771 21.1668 203.771 21.1668 203.771 21.1668C203.786 21.1668 203.8 21.1668 203.814 21.1669C203.69 21.8785 203.421 22.939 202.937 24.514C202.317 26.5337 201.407 29.2087 200.171 32.7806L151.636 93.2409ZM151.636 93.2409L151.631 93.2515M151.636 93.2409L151.631 93.2515M151.631 93.2515C150.741 95.3292 150.114 96.9356 149.726 98.1802M151.631 93.2515L149.726 98.1802M149.726 98.1802C149.428 99.1364 149.313 99.7495 149.282 100.121M149.726 98.1802L149.282 100.121M149.282 100.121C149.468 100.145 149.743 100.167 150.133 100.167C150.197 100.167 150.511 100.143 151.218 99.7621C151.918 99.3842 152.852 98.7395 154.112 97.7029C156.633 95.6285 160.15 92.2483 165.285 87.0459C172.995 79.2039 178.017 74.5198 184.036 71.412C190.047 68.3086 196.886 66.8625 207.976 65.003C216.029 63.5818 219.911 62.8551 221.97 62.1143C222.929 61.7695 223.185 61.5213 223.267 61.4278C223.368 61.3133 223.491 61.1174 223.744 60.3307C223.876 59.8822 223.929 59.6108 223.95 59.4585C223.58 59.23 222.832 58.9215 221.367 58.5332L149.282 100.121ZM204.714 21.2166C204.715 21.2166 204.712 21.2159 204.706 21.2146C204.711 21.216 204.714 21.2166 204.714 21.2166ZM129.171 62.7426C129.171 62.7426 129.171 62.742 129.171 62.7409L129.171 62.7426ZM129.133 62.6632C129.132 62.6614 129.131 62.6605 129.131 62.6605C129.131 62.6605 129.132 62.6614 129.133 62.6632Z" fill="black" stroke="white" stroke-width="5"/>
<path d="M947.755 58.4038L947.177 59.1982L946.213 59.3868L933.957 61.7848C933.955 61.7851 933.954 61.7855 933.952 61.7858C931.718 62.2326 929.628 62.6627 927.839 63.0463C929.01 63.6898 930.319 64.3952 931.698 65.1211L931.702 65.1231L941.035 70.0564L942.234 70.6901L942.356 72.0403L943.156 80.8403L943.157 80.8525L943.158 80.8646C943.364 83.3992 943.605 85.9688 943.808 88.0462C944.757 86.8949 945.922 85.378 947.31 83.4653L947.31 83.4653L947.317 83.4549L954.651 73.4549L955.225 72.6723L956.176 72.4819L968.843 69.9486L974.76 68.7652L970.536 66.4614L970.525 66.4555L970.514 66.4494L960.248 60.7161L959.019 60.03L958.968 58.6237L958.568 47.557L958.43 43.7261L955.222 48.1371L947.755 58.4038Z" fill="black" stroke="white" stroke-width="5"/>
<path d="M105.415 55.0527L105.408 55.0595L105.402 55.0661C103.433 57.1137 100.486 58.9428 97.5077 60.2546C96.4865 60.7044 95.4231 61.1104 94.3529 61.4495C94.8741 61.8018 95.3405 62.2438 95.7284 62.7954C96.6614 64.1225 96.85 65.6725 96.6542 67.234C96.8095 67.0953 96.9658 66.9548 97.1227 66.8129L97.1355 66.8013L97.1484 66.7899C100.714 63.6524 104.872 61.357 108.953 60.7291C109.16 60.6972 109.36 60.6652 109.553 60.6331C109.179 60.4835 108.825 60.3243 108.5 60.1503C107.728 59.7372 106.925 59.1427 106.39 58.1968C105.855 57.2501 105.765 56.2631 105.807 55.4136C105.821 55.1356 105.851 54.8483 105.891 54.5548C105.738 54.7133 105.579 54.8793 105.415 55.0527ZM113.33 59.6483C113.33 59.6481 113.323 59.6523 113.312 59.6609C113.325 59.6527 113.331 59.6484 113.33 59.6483ZM113.163 62.1456C113.164 62.1455 113.158 62.1405 113.146 62.1307C113.157 62.1407 113.163 62.1456 113.163 62.1456ZM106.503 50.6448C106.503 50.6452 106.504 50.6543 106.507 50.6709C106.505 50.6527 106.504 50.6444 106.503 50.6448ZM108.829 51.9476C108.829 51.9471 108.822 51.95 108.806 51.9579C108.821 51.952 108.829 51.9481 108.829 51.9476Z" fill="black" stroke="white" stroke-width="5"/>
<path d="M35.9015 468.355L35.7617 464.441L32.436 469.051L32.4273 469.063L24.836 479.717L24.2341 480.562L23.211 480.733L12.811 482.466L12.7783 482.471L12.7455 482.476C9.93449 482.868 7.1937 483.358 5.07251 483.811C5.03604 483.819 4.99979 483.827 4.96375 483.835C6.0323 484.518 7.39485 485.312 9.04576 486.196L9.04807 486.197L18.2481 491.13L19.4466 491.773L19.5582 493.128L20.4915 504.461L20.8915 509.318L24.2734 504.891C26.3063 502.181 28.4161 499.593 30.1877 497.615C31.0715 496.629 31.8972 495.764 32.6039 495.104C32.9558 494.776 33.3077 494.47 33.6436 494.217C33.9062 494.02 34.3186 493.73 34.81 493.542C35.3339 493.323 36.0604 493.125 36.7629 492.951C37.573 492.75 38.5715 492.53 39.6786 492.301C41.8948 491.845 44.6197 491.34 47.2968 490.872C49.0485 490.557 50.6932 490.214 52.0881 489.882C50.6192 488.982 48.8027 487.938 46.8147 486.868L46.8043 486.862L46.7939 486.857L37.5939 481.79L36.3515 481.106L36.3015 479.688L35.9016 468.356L35.9015 468.355Z" fill="black" stroke="white" stroke-width="5"/>
</g>
<defs>
<clipPath id="clip0_24_22">
<rect width="982" height="525" fill="white"/>
</clipPath>
</defs>
</svg>
