<svg width="4125" height="4125" viewBox="0 0 4125 4125" fill="none" xmlns="http://www.w3.org/2000/svg">
<mask id="mask0_1_321" style="mask-type:luminance" maskUnits="userSpaceOnUse" x="2643" y="759" width="170" height="170">
<path d="M2812.66 844.649V842.896C2766.33 842.896 2728.77 805.336 2728.77 759H2727.02C2727.02 805.336 2689.45 842.896 2643.12 842.896V844.649C2689.45 844.649 2727.02 882.209 2727.02 928.545H2728.77C2728.77 882.209 2766.33 844.649 2812.66 844.649Z" fill="white"/>
</mask>
<g mask="url(#mask0_1_321)">
<path d="M2812.66 844.649V842.896C2766.33 842.896 2728.77 805.336 2728.77 759H2727.02C2727.02 805.336 2689.45 842.896 2643.12 842.896V844.649C2689.45 844.649 2727.02 882.209 2727.02 928.545H2728.77C2728.77 882.209 2766.33 844.649 2812.66 844.649Z" fill="url(#paint0_linear_1_321)"/>
</g>
<path d="M2641.91 1275.6L2641.29 1275C2625.38 1291.51 2599.11 1291.99 2582.59 1276.09L2582 1276.71C2598.51 1292.61 2598.99 1318.89 2583.09 1335.4L2583.71 1336C2599.62 1319.49 2625.89 1319.01 2642.4 1334.91L2643 1334.29C2626.49 1318.38 2626 1292.1 2641.91 1275.6Z" fill="white"/>
<mask id="mask1_1_321" style="mask-type:luminance" maskUnits="userSpaceOnUse" x="1216" y="989" width="195" height="195">
<path d="M1411 1087.86V1085.85C1357.94 1085.85 1314.92 1042.83 1314.92 989.767H1312.92C1312.92 1042.83 1269.9 1085.85 1216.83 1085.85V1087.86C1269.9 1087.86 1312.92 1130.87 1312.92 1183.94H1314.92C1314.92 1130.87 1357.94 1087.86 1411 1087.86Z" fill="white"/>
</mask>
<g mask="url(#mask1_1_321)">
<path d="M1411 1087.86V1085.85C1357.94 1085.85 1314.92 1042.83 1314.92 989.767H1312.92C1312.92 1042.83 1269.9 1085.85 1216.83 1085.85V1087.86C1269.9 1087.86 1312.92 1130.87 1312.92 1183.94H1314.92C1314.92 1130.87 1357.94 1087.86 1411 1087.86Z" fill="url(#paint1_linear_1_321)"/>
</g>
<mask id="mask2_1_321" style="mask-type:luminance" maskUnits="userSpaceOnUse" x="3306" y="3394" width="150" height="150">
<path d="M3456 3469.59V3468.06C3415.28 3468.06 3382.26 3435.04 3382.26 3394.32H3380.73C3380.73 3435.04 3347.71 3468.06 3306.99 3468.06V3469.59C3347.71 3469.59 3380.73 3502.61 3380.73 3543.33H3382.26C3382.26 3502.61 3415.28 3469.59 3456 3469.59Z" fill="white"/>
</mask>
<g mask="url(#mask2_1_321)">
<path d="M3456 3469.59V3468.06C3415.28 3468.06 3382.26 3435.04 3382.26 3394.32H3380.73C3380.73 3435.04 3347.71 3468.06 3306.99 3468.06V3469.59C3347.71 3469.59 3380.73 3502.61 3380.73 3543.33H3382.26C3382.26 3502.61 3415.28 3469.59 3456 3469.59Z" fill="url(#paint2_linear_1_321)"/>
</g>
<path d="M729.876 2854.63L729.231 2854C712.802 2871.32 685.669 2871.83 668.616 2855.14L668 2855.79C685.047 2872.48 685.55 2900.05 669.124 2917.37L669.767 2918C686.193 2900.68 713.331 2900.17 730.379 2916.85L731 2916.2C713.953 2899.51 713.447 2871.95 729.876 2854.63Z" fill="white"/>
<path d="M601.233 314.981L600.22 314C574.404 341.058 531.765 341.859 504.969 315.782L504 316.8C530.788 342.876 531.578 385.953 505.767 413.011L506.777 414C532.589 386.935 575.235 386.141 602.023 412.211L603 411.193C576.212 385.116 575.417 342.039 601.233 314.981Z" fill="white"/>
<mask id="mask3_1_321" style="mask-type:luminance" maskUnits="userSpaceOnUse" x="1932" y="1577" width="171" height="170">
<path d="M2102.36 1663.1V1661.35C2056.03 1661.35 2018.46 1623.79 2018.46 1577.45H2016.71C2016.71 1623.79 1979.15 1661.35 1932.81 1661.35V1663.1C1979.15 1663.1 2016.71 1700.66 2016.71 1747H2018.46C2018.46 1700.66 2056.03 1663.1 2102.36 1663.1Z" fill="white"/>
</mask>
<g mask="url(#mask3_1_321)">
<path d="M2102.36 1663.1V1661.35C2056.03 1661.35 2018.46 1623.79 2018.46 1577.45H2016.71C2016.71 1623.79 1979.15 1661.35 1932.81 1661.35V1663.1C1979.15 1663.1 2016.71 1700.66 2016.71 1747H2018.46C2018.46 1700.66 2056.03 1663.1 2102.36 1663.1Z" fill="url(#paint3_linear_1_321)"/>
</g>
<mask id="mask4_1_321" style="mask-type:luminance" maskUnits="userSpaceOnUse" x="334" y="2742" width="177" height="177">
<path d="M510.963 2831.24V2829.42C462.816 2829.42 423.78 2790.39 423.78 2742.24H421.962C421.962 2790.39 382.926 2829.42 334.774 2829.42V2831.24C382.926 2831.24 421.962 2870.28 421.962 2918.43H423.78C423.78 2870.28 462.816 2831.24 510.963 2831.24Z" fill="white"/>
</mask>
<g mask="url(#mask4_1_321)">
<path d="M510.963 2831.24V2829.42C462.816 2829.42 423.78 2790.39 423.78 2742.24H421.962C421.962 2790.39 382.926 2829.42 334.774 2829.42V2831.24C382.926 2831.24 421.962 2870.28 421.962 2918.43H423.78C423.78 2870.28 462.816 2831.24 510.963 2831.24Z" fill="url(#paint4_linear_1_321)"/>
</g>
<path d="M2641.91 1399.6L2641.29 1399C2625.38 1415.51 2599.11 1416 2582.59 1400.09L2582 1400.71C2598.51 1416.62 2598.99 1442.89 2583.09 1459.4L2583.71 1460C2599.62 1443.49 2625.89 1443.01 2642.4 1458.91L2643 1458.29C2626.49 1442.38 2626 1416.11 2641.91 1399.6Z" fill="white"/>
<path d="M2895.91 1152.6L2895.29 1152C2879.38 1168.51 2853.11 1168.99 2836.59 1153.09L2836 1153.71C2852.51 1169.61 2852.99 1195.89 2837.09 1212.4L2837.71 1213C2853.62 1196.49 2879.89 1196.01 2896.4 1211.91L2897 1211.29C2880.49 1195.38 2880 1169.1 2895.91 1152.6Z" fill="white"/>
<mask id="mask5_1_321" style="mask-type:luminance" maskUnits="userSpaceOnUse" x="3644" y="145" width="155" height="155">
<path d="M3799 223.512V221.924C3756.83 221.924 3722.63 187.731 3722.63 145.554H3721.04C3721.04 187.731 3686.85 221.924 3644.67 221.924V223.512C3686.85 223.512 3721.04 257.705 3721.04 299.882H3722.63C3722.63 257.705 3756.83 223.512 3799 223.512Z" fill="white"/>
</mask>
<g mask="url(#mask5_1_321)">
<path d="M3799 223.512V221.924C3756.83 221.924 3722.63 187.731 3722.63 145.554H3721.04C3721.04 187.731 3686.85 221.924 3644.67 221.924V223.512C3686.85 223.512 3721.04 257.705 3721.04 299.882H3722.63C3722.63 257.705 3756.83 223.512 3799 223.512Z" fill="url(#paint5_linear_1_321)"/>
</g>
<path d="M2352.89 1069.6L2352.26 1069C2336.09 1085.51 2309.39 1086 2292.6 1070.09L2292 1070.71C2308.78 1086.62 2309.27 1112.89 2293.11 1129.4L2293.74 1130C2309.9 1113.49 2336.61 1113.01 2353.39 1128.91L2354 1128.29C2337.22 1112.38 2336.73 1086.11 2352.89 1069.6Z" fill="white"/>
<defs>
<linearGradient id="paint0_linear_1_321" x1="2736.65" y1="834.866" x2="2521.23" y2="1053.71" gradientUnits="userSpaceOnUse">
<stop stop-color="#C9E9A4"/>
<stop offset="0.293296" stop-color="#E57FC5"/>
<stop offset="0.46648" stop-color="#F57F9D"/>
<stop offset="0.667598" stop-color="#7A6BBC"/>
<stop offset="0.860335" stop-color="#86D7DF"/>
<stop offset="0.963687" stop-color="#9FDCA8"/>
<stop offset="1" stop-color="#9FDCA8"/>
</linearGradient>
<linearGradient id="paint1_linear_1_321" x1="1323.96" y1="1076.65" x2="1077.25" y2="1327.28" gradientUnits="userSpaceOnUse">
<stop stop-color="#C9E9A4"/>
<stop offset="0.293296" stop-color="#E57FC5"/>
<stop offset="0.46648" stop-color="#F57F9D"/>
<stop offset="0.667598" stop-color="#7A6BBC"/>
<stop offset="0.860335" stop-color="#86D7DF"/>
<stop offset="0.963687" stop-color="#9FDCA8"/>
<stop offset="1" stop-color="#9FDCA8"/>
</linearGradient>
<linearGradient id="paint2_linear_1_321" x1="3455.9" y1="3355.61" x2="3317.65" y2="3565.98" gradientUnits="userSpaceOnUse">
<stop stop-color="#C9E9A4"/>
<stop offset="0.293296" stop-color="#E57FC5"/>
<stop offset="0.46648" stop-color="#F57F9D"/>
<stop offset="0.667598" stop-color="#7A6BBC"/>
<stop offset="0.860335" stop-color="#86D7DF"/>
<stop offset="0.963687" stop-color="#9FDCA8"/>
<stop offset="1" stop-color="#9FDCA8"/>
</linearGradient>
<linearGradient id="paint3_linear_1_321" x1="2109.66" y1="1562.32" x2="1948.95" y2="1736.71" gradientUnits="userSpaceOnUse">
<stop stop-color="#C9E9A4"/>
<stop offset="0.293296" stop-color="#E57FC5"/>
<stop offset="0.46648" stop-color="#F57F9D"/>
<stop offset="0.667598" stop-color="#7A6BBC"/>
<stop offset="0.860335" stop-color="#86D7DF"/>
<stop offset="0.963687" stop-color="#9FDCA8"/>
<stop offset="1" stop-color="#9FDCA8"/>
</linearGradient>
<linearGradient id="paint4_linear_1_321" x1="601.149" y1="2580.17" x2="380.838" y2="2889.31" gradientUnits="userSpaceOnUse">
<stop stop-color="#C9E9A4"/>
<stop offset="0.293296" stop-color="#E57FC5"/>
<stop offset="0.46648" stop-color="#F57F9D"/>
<stop offset="0.667598" stop-color="#7A6BBC"/>
<stop offset="0.860335" stop-color="#86D7DF"/>
<stop offset="0.963687" stop-color="#9FDCA8"/>
<stop offset="1" stop-color="#9FDCA8"/>
</linearGradient>
<linearGradient id="paint5_linear_1_321" x1="3886.61" y1="7.89001" x2="3679.38" y2="278.074" gradientUnits="userSpaceOnUse">
<stop stop-color="#C9E9A4"/>
<stop offset="0.293296" stop-color="#E57FC5"/>
<stop offset="0.46648" stop-color="#F57F9D"/>
<stop offset="0.667598" stop-color="#7A6BBC"/>
<stop offset="0.860335" stop-color="#86D7DF"/>
<stop offset="0.963687" stop-color="#9FDCA8"/>
<stop offset="1" stop-color="#9FDCA8"/>
</linearGradient>
</defs>
</svg>
